<?xml version="1.0" encoding="utf-8"?>
<!-- Generator: Adobe Illustrator 21.0.0, SVG Export Plug-In . SVG Version: 6.00 Build 0)  -->
<svg version="1.1" id="Layer_1" xmlns="http://www.w3.org/2000/svg" xmlns:xlink="http://www.w3.org/1999/xlink" x="0px" y="0px"
	 viewBox="0 0 108 111" style="enable-background:new 0 0 108 111;" xml:space="preserve">
<style type="text/css">
	.st0{fill:url(#SVGID_1_);}
	.st1{fill:url(#SVGID_2_);}
	.st2{fill:url(#SVGID_3_);}
	.st3{fill:url(#SVGID_4_);}
	.st4{fill:url(#SVGID_5_);}
	.st5{fill:url(#SVGID_6_);}
	.st6{fill:url(#SVGID_7_);}
	.st7{fill:url(#SVGID_8_);}
	.st8{fill:url(#SVGID_9_);}
	.st9{fill:url(#SVGID_10_);}
	.st10{fill:url(#SVGID_11_);}
</style>
<g>
	<linearGradient id="SVGID_1_" gradientUnits="userSpaceOnUse" x1="138.0866" y1="-61.7829" x2="219.0989" y2="-61.7829">
		<stop  offset="0" style="stop-color:#9494EE"/>
		<stop  offset="1" style="stop-color:#F9C5D2"/>
	</linearGradient>
	<path class="st0" d="M178.6-102.2c-22.3,0-40.5,18.1-40.5,40.5c0,22.3,18.2,40.5,40.5,40.5c22.3,0,40.5-18.1,40.5-40.5
		C219.1-84.1,200.9-102.2,178.6-102.2L178.6-102.2z M205.2-83.1c4.6,5.7,7.4,13,7.6,20.8c-1.5-0.3-8-1.5-15.8-1.5
		c-2.5,0-5.2,0.1-7.8,0.5c-0.2-0.5-0.4-1.1-0.7-1.6c-0.7-1.6-1.4-3.2-2.2-4.8C198.3-74.7,204-81.6,205.2-83.1L205.2-83.1z
		 M178.6-95.9c8.6,0,16.5,3.2,22.5,8.5c-1,1.3-6.1,7.8-17.7,12.1c-5.3-9.8-11.2-17.9-12.6-19.7C173.4-95.6,175.9-95.9,178.6-95.9
		L178.6-95.9z M163.9-92.6c1.2,1.6,7,9.8,12.5,19.5c-14.7,3.9-27.8,4.1-30.9,4.1h-0.3C147.4-79.4,154.5-88.1,163.9-92.6L163.9-92.6z
		 M144.4-61.7c0-0.3,0-0.6,0-0.8c0.2,0,0.5,0,0.9,0c4.2,0,19-0.4,34.2-4.9c0.9,1.8,1.8,3.6,2.6,5.5c-0.4,0.1-0.8,0.2-1.1,0.3
		c-17.1,5.5-26.5,20.1-28,22.5C147.6-45.1,144.4-53.1,144.4-61.7L144.4-61.7z M178.6-27.6c-7.8,0-15.1-2.7-20.9-7.1
		c1-1.9,8.1-14.7,26.8-21.2c0,0,0,0,0,0c4.7,12.2,6.7,22.5,7.2,25.7C187.7-28.5,183.3-27.6,178.6-27.6L178.6-27.6z M198-33.6
		c-0.5-2.6-2.3-12.3-6.6-24c2.4-0.4,4.7-0.5,6.9-0.5c7.2,0,12.7,1.6,14,2C210.8-46.8,205.5-38.7,198-33.6L198-33.6z M198-33.6"/>
</g>
<g>
	<linearGradient id="SVGID_2_" gradientUnits="userSpaceOnUse" x1="211.0507" y1="60.5024" x2="297.2153" y2="60.5024">
		<stop  offset="0" style="stop-color:#9494EE"/>
		<stop  offset="1" style="stop-color:#F9C5D2"/>
	</linearGradient>
	<path class="st1" d="M297.2,69.8v31.9h-18.5V71.9c0-7.5-2.7-12.6-9.4-12.6c-5.1,0-8.1,3.4-9.5,6.8c-0.5,1.2-0.6,2.8-0.6,4.5v31
		h-18.5c0,0,0.2-50.3,0-55.6h18.5V54c0,0.1-0.1,0.1-0.1,0.2h0.1V54c2.5-3.8,6.8-9.2,16.6-9.2C288.1,44.8,297.2,52.7,297.2,69.8
		L297.2,69.8z M221.5,19.3c-6.3,0-10.5,4.1-10.5,9.6c0,5.3,4,9.6,10.2,9.6h0.1c6.4,0,10.4-4.3,10.4-9.6
		C231.7,23.5,227.8,19.3,221.5,19.3L221.5,19.3z M212.1,101.7h18.5V46.1h-18.5V101.7z M212.1,101.7"/>
</g>
<g id="_x33_4hbmL.tif">
	<g>
		<linearGradient id="SVGID_3_" gradientUnits="userSpaceOnUse" x1="13.5777" y1="55.2774" x2="94.2868" y2="55.2774">
			<stop  offset="0" style="stop-color:#9494EE"/>
			<stop  offset="1" style="stop-color:#F9C5D2"/>
		</linearGradient>
		<path class="st2" d="M54,14.9c5.4,0.1,10.8,0.1,16.3,0.3c4.7,0.1,9.3,1,13.4,3.5c5.4,3.3,8.6,8.1,9.7,14.2
			c0.6,3.7,0.9,7.4,0.9,11.2c0.1,8,0.1,16,0,24c0,4.2-0.2,8.4-1.6,12.5c-2.7,7.8-8.2,12.6-16.3,14.1c-3.6,0.7-7.4,0.9-11.2,0.9
			c-8,0.1-16,0.1-24,0c-4.2,0-8.4-0.2-12.5-1.6c-7.9-2.7-12.6-8.2-14.2-16.3c-0.7-3.6-0.9-7.4-0.9-11.2c-0.1-8-0.1-16,0-24
			c0-4.2,0.2-8.4,1.6-12.5c2.7-7.8,8.2-12.6,16.3-14.1c3.6-0.7,7.4-0.8,11.2-0.9c3.8-0.1,7.5,0,11.3,0C54,15,54,14.9,54,14.9z
			 M87.1,54.7c-0.1,0-0.1,0-0.2,0c0-3.2,0.1-6.4,0-9.5c-0.1-3.1-0.2-6.1-0.5-9.2c-0.7-6.8-4.8-11.5-11.5-12.8
			c-3.5-0.7-7.2-0.8-10.8-0.8c-6.8-0.1-13.7-0.1-20.5,0c-3.4,0.1-6.8,0.2-10.2,0.7c-5.8,0.9-9.8,4.2-11.4,10
			c-0.5,1.9-0.8,3.8-0.9,5.7c-0.2,7.3-0.3,14.6-0.3,21.9c0,4.6,0.1,9.3,0.5,13.9c0.6,6.9,4.8,11.7,11.7,12.9
			c3.5,0.6,7.1,0.7,10.7,0.8c6.7,0.1,13.5,0.1,20.2,0c3.1,0,6.2-0.2,9.3-0.5c2.9-0.3,5.6-1.2,7.9-3.1c3.7-3,5.2-7.1,5.4-11.6
			C86.9,67,87,60.8,87.1,54.7z"/>
		<linearGradient id="SVGID_4_" gradientUnits="userSpaceOnUse" x1="33.2137" y1="55.3181" x2="74.6508" y2="55.3181">
			<stop  offset="0" style="stop-color:#9494EE"/>
			<stop  offset="1" style="stop-color:#F9C5D2"/>
		</linearGradient>
		<path class="st3" d="M74.7,55.3c0,11.5-9.2,20.7-20.7,20.7c-11.6,0-20.7-9.2-20.7-20.9c0-11.4,9.3-20.5,20.9-20.5
			C65.5,34.6,74.7,43.9,74.7,55.3z M53.9,68.8c7.4,0,13.4-6.1,13.5-13.4c0-7.4-6.1-13.5-13.4-13.5c-7.4,0-13.4,6.1-13.5,13.4
			C40.5,62.7,46.5,68.8,53.9,68.8z"/>
		<linearGradient id="SVGID_5_" gradientUnits="userSpaceOnUse" x1="70.5904" y1="33.7998" x2="80.3096" y2="33.7998">
			<stop  offset="0" style="stop-color:#9494EE"/>
			<stop  offset="1" style="stop-color:#F9C5D2"/>
		</linearGradient>
		<path class="st4" d="M80.3,33.8c0,2.7-2.2,4.9-4.8,4.9c-2.7,0-4.9-2.2-4.9-4.9c0-2.7,2.2-4.8,4.8-4.8C78.2,28.9,80.3,31,80.3,33.8
			z"/>
	</g>
</g>
<g>
	<linearGradient id="SVGID_6_" gradientUnits="userSpaceOnUse" x1="546.0831" y1="-61.5181" x2="578" y2="-61.5181">
		<stop  offset="0" style="stop-color:#9494EE"/>
		<stop  offset="1" style="stop-color:#F9C5D2"/>
	</linearGradient>
	<path class="st5" d="M575.7-21.5l-29.4-14.1l-0.2-64.1c0-1.5,1.6-2.5,2.9-1.8l27.9,13.4c0.7,0.3,1.1,1,1.1,1.8v63.3
		C578-21.8,576.8-21,575.7-21.5z"/>
	<linearGradient id="SVGID_7_" gradientUnits="userSpaceOnUse" x1="514.4928" y1="-68.9651" x2="577.1307" y2="-68.9651">
		<stop  offset="0" style="stop-color:#9494EE"/>
		<stop  offset="1" style="stop-color:#F9C5D2"/>
	</linearGradient>
	<path class="st6" d="M546.3-35.6l-31.8-15.3l30.6-50.4c0.5-0.9,1.7-1.2,2.6-0.8L576-88.5c1.1,0.5,1.5,1.9,0.9,2.9L546.3-35.6z"/>
	<linearGradient id="SVGID_8_" gradientUnits="userSpaceOnUse" x1="485.096" y1="-68.1967" x2="546.3044" y2="-68.1967">
		<stop  offset="0" style="stop-color:#9494EE"/>
		<stop  offset="1" style="stop-color:#F9C5D2"/>
	</linearGradient>
	<path class="st7" d="M546.3-35.6l-31.8-15.3l-29.2-47.5c-0.8-1.3,0.6-2.9,2-2.2l27.2,13.1L546.3-35.6z"/>
	<linearGradient id="SVGID_9_" gradientUnits="userSpaceOnUse" x1="482.5647" y1="-61.6593" x2="514.4928" y2="-61.6593">
		<stop  offset="0" style="stop-color:#9494EE"/>
		<stop  offset="1" style="stop-color:#F9C5D2"/>
	</linearGradient>
	<path class="st8" d="M512.2-21.5l-28.7-13.8c-0.6-0.3-0.9-0.8-0.9-1.4v-63.7c0-1.1,1.2-1.9,2.2-1.4l29.7,14.3v64.6
		C514.5-21.8,513.3-21,512.2-21.5z"/>
</g>
<g>
	<linearGradient id="SVGID_10_" gradientUnits="userSpaceOnUse" x1="253.7518" y1="-62.3703" x2="337.8934" y2="-62.3703">
		<stop  offset="0" style="stop-color:#9494EE"/>
		<stop  offset="1" style="stop-color:#F9C5D2"/>
	</linearGradient>
	<path class="st9" d="M332.2-82.5c-3.8-6.4-8.9-11.5-15.3-15.3c-6.4-3.8-13.5-5.6-21.1-5.6c-7.6,0-14.7,1.9-21.1,5.6
		c-6.4,3.8-11.5,8.9-15.3,15.3c-3.8,6.4-5.6,13.5-5.6,21.1c0,9.2,2.7,17.4,8,24.7c5.3,7.3,12.3,12.4,20.7,15.2
		c1,0.2,1.7,0.1,2.2-0.4c0.5-0.4,0.7-1,0.7-1.6c0-0.1,0-1.1,0-3c0-1.9,0-3.5,0-4.9l-1.3,0.2c-0.8,0.1-1.8,0.2-3,0.2
		c-1.2,0-2.5-0.1-3.8-0.4c-1.3-0.2-2.5-0.8-3.7-1.6c-1.1-0.9-1.9-2-2.4-3.4l-0.5-1.3c-0.4-0.8-0.9-1.8-1.7-2.8
		c-0.8-1-1.6-1.7-2.4-2.1l-0.4-0.3c-0.3-0.2-0.5-0.4-0.7-0.7c-0.2-0.3-0.4-0.5-0.5-0.8c-0.1-0.3,0-0.5,0.3-0.6s0.8-0.2,1.6-0.2
		l1.1,0.2c0.7,0.1,1.6,0.6,2.7,1.3c1.1,0.7,2,1.7,2.7,2.8c0.8,1.5,1.9,2.6,3,3.4c1.2,0.8,2.4,1.2,3.6,1.2c1.2,0,2.2-0.1,3.1-0.3
		c0.9-0.2,1.7-0.5,2.5-0.8c0.3-2.4,1.2-4.3,2.7-5.6c-2.1-0.2-4-0.5-5.6-1c-1.7-0.4-3.4-1.2-5.1-2.1c-1.8-1-3.2-2.2-4.4-3.7
		c-1.2-1.5-2.1-3.4-2.9-5.8c-0.7-2.4-1.1-5.1-1.1-8.2c0-4.4,1.4-8.2,4.3-11.3c-1.4-3.3-1.2-7,0.4-11.2c1.1-0.3,2.6-0.1,4.7,0.7
		c2.1,0.8,3.6,1.5,4.6,2.1c1,0.6,1.7,1.1,2.3,1.5c3.4-0.9,6.9-1.4,10.5-1.4c3.6,0,7.1,0.5,10.5,1.4l2.1-1.3c1.4-0.9,3.1-1.7,5-2.4
		c1.9-0.7,3.4-0.9,4.4-0.6c1.6,4.1,1.8,7.9,0.4,11.2c2.9,3.1,4.3,6.9,4.3,11.3c0,3.1-0.4,5.9-1.1,8.2c-0.7,2.4-1.7,4.3-2.9,5.8
		c-1.2,1.4-2.7,2.7-4.4,3.6c-1.8,1-3.5,1.7-5.1,2.1c-1.7,0.4-3.5,0.8-5.6,1c1.9,1.6,2.8,4.2,2.8,7.8v11.6c0,0.7,0.2,1.2,0.7,1.6
		c0.5,0.4,1.2,0.6,2.2,0.4c8.5-2.8,15.4-7.9,20.7-15.2c5.3-7.3,8-15.6,8-24.7C337.9-69,336-76,332.2-82.5z"/>
</g>
<g>
	<linearGradient id="SVGID_11_" gradientUnits="userSpaceOnUse" x1="374.314" y1="-61.1092" x2="451.7909" y2="-61.1092">
		<stop  offset="0" style="stop-color:#9494EE"/>
		<stop  offset="1" style="stop-color:#F9C5D2"/>
	</linearGradient>
	<path class="st10" d="M415.7-99.8c-2.1-1.4-4.9-1.4-7.1,0.1l-31.6,22c-1.7,1.2-2.7,3.1-2.7,5.2v23.7c0,2.1,1.1,4.1,2.8,5.2
		l32.1,21.2c2.1,1.4,4.8,1.4,6.9,0L449-44c1.8-1.2,2.8-3.1,2.8-5.2v-23.3c0-2.1-1.1-4.1-2.8-5.2L415.7-99.8z M440.2-74.1L428-66
		l-11.4-8.3l-0.1-16.2L440.2-74.1z M408.4-90.5v15.9l-11.6,8.1l-11.6-7.8L408.4-90.5z M382-66.4l7.5,5l-7.5,5.3V-66.4z M408.6-32.5
		l-23.4-15.7l11.7-8.2l11.7,7.9C408.6-48.5,408.6-32.5,408.6-32.5z M404.1-61.5l7.6-5.3l8.8,5.8l-7.8,5.3L404.1-61.5z M416.9-32.5
		v-16l11.2-7.5l12.1,7.9L416.9-32.5z M443.5-55.8l-8-5.2l8-5.3V-55.8z"/>
</g>
</svg>
