<?xml version="1.0" encoding="utf-8"?>
<!-- Generator: Adobe Illustrator 21.0.0, SVG Export Plug-In . SVG Version: 6.00 Build 0)  -->
<svg version="1.1" id="Layer_1" xmlns="http://www.w3.org/2000/svg" xmlns:xlink="http://www.w3.org/1999/xlink" x="0px" y="0px"
	 viewBox="0 0 108 111" style="enable-background:new 0 0 108 111;" xml:space="preserve">
<style type="text/css">
	.st0{fill:url(#SVGID_1_);}
</style>
<g>
	
		<linearGradient id="SVGID_1_" gradientUnits="userSpaceOnUse" x1="9" y1="58.5" x2="95.2" y2="58.5" gradientTransform="matrix(1 0 0 -1 0 112)">
		<stop  offset="0" style="stop-color:#9494EE"/>
		<stop  offset="1" style="stop-color:#F9C5D2"/>
	</linearGradient>
	<path class="st0" d="M95.2,62.8v31.9H76.7V64.9c0-7.5-2.7-12.6-9.4-12.6c-5.1,0-8.1,3.4-9.5,6.8c-0.5,1.2-0.6,2.8-0.6,4.5v31H38.8
		c0,0,0.2-50.3,0-55.6h18.5v8c0,0.1-0.1,0.1-0.1,0.2h0.1V47c2.5-3.8,6.8-9.2,16.6-9.2C86.1,37.8,95.2,45.7,95.2,62.8L95.2,62.8z
		 M19.5,12.3C13.2,12.3,9,16.4,9,21.9c0,5.3,4,9.6,10.2,9.6h0.1c6.4,0,10.4-4.3,10.4-9.6C29.7,16.5,25.8,12.3,19.5,12.3L19.5,12.3z
		 M10.1,94.7h18.5V39.1H10.1V94.7z"/>
</g>
</svg>
