<?xml version="1.0" encoding="utf-8"?>
<!-- Generator: Adobe Illustrator 21.0.0, SVG Export Plug-In . SVG Version: 6.00 Build 0)  -->
<svg version="1.1" id="Layer_1" xmlns="http://www.w3.org/2000/svg" xmlns:xlink="http://www.w3.org/1999/xlink" x="0px" y="0px"
	 viewBox="0 0 800 400" style="enable-background:new 0 0 800 400;" xml:space="preserve">
<style type="text/css">
	.st0{fill:#F2F2F2;}
	.st1{fill:#E1DDDA;}
	.st2{fill:#F1EDEB;}
	.st3{fill:#D1CBC7;}
	.st4{fill:#F6EA33;}
	.st5{fill:#FFFFFF;}
	.st6{fill:#FDA045;}
	.st7{fill:#F1BBBB;}
	.st8{fill:#F0F0F0;}
	.st9{opacity:0.5;clip-path:url(#SVGID_2_);}
	.st10{fill:#F1BB78;}
	.st11{fill:#E5C9B1;}
	.st12{fill:#F2D7BD;}
	.st13{fill:#D17459;}
	.st14{fill:#BFBFBF;}
	.st15{fill:#E4E4E4;}
	.st16{fill:#AA8995;}
	.st17{fill:#D0D1D3;}
	.st18{fill:#CDD0D1;}
	.st19{fill:#EFF0F0;}
	.st20{fill:#DBD8DB;}
	.st21{fill:#A4A6A9;}
	.st22{fill:#E7E2DE;}
	.st23{fill:#E0802C;}
	.st24{fill:#EDF3F3;}
	.st25{fill:#A8A8A8;}
	.st26{fill:#FBE0A8;}
	.st27{fill:#C0B9A9;}
	.st28{fill:#DCAB8C;}
	.st29{fill:#505050;}
	.st30{fill:#BB8A6D;}
	.st31{fill:#AA7C5E;}
	.st32{fill:#E17E30;}
	.st33{fill:#CECECE;}
	.st34{fill:#BEBEBE;}
	.st35{fill:#666666;}
	.st36{fill:#333333;}
	.st37{fill:#142D3D;}
	.st38{fill:#34495D;}
	.st39{fill:#D33D34;}
	.st40{fill:#FCCC57;}
</style>
<g>
	<g>
		<g>
			<circle class="st0" cx="342.1" cy="45.5" r="36.4"/>
		</g>
		<g>
			<path class="st0" d="M342.1,12.6c-17.9,0-32.5,14.6-32.5,32.5c0,17.9,14.6,32.5,32.5,32.5c17.9,0,32.5-14.6,32.5-32.5
				C374.6,27.2,360.1,12.6,342.1,12.6z"/>
		</g>
		<g>
			<path class="st1" d="M342.1,82.8c-20.8,0-37.7-16.9-37.7-37.7c0-20.8,16.9-37.7,37.7-37.7c20.8,0,37.7,16.9,37.7,37.7
				C379.9,65.9,363,82.8,342.1,82.8z M342.1,12.6c-17.9,0-32.5,14.6-32.5,32.5c0,17.9,14.6,32.5,32.5,32.5
				c17.9,0,32.5-14.6,32.5-32.5C374.6,27.2,360.1,12.6,342.1,12.6z"/>
			<path class="st1" d="M342.1,83.5c-21.2,0-38.4-17.2-38.4-38.4S321,6.6,342.1,6.6s38.4,17.2,38.4,38.4S363.3,83.5,342.1,83.5z
				 M342.1,8c-20.4,0-37,16.6-37,37s16.6,37,37,37c20.4,0,37-16.6,37-37S362.6,8,342.1,8z M342.1,78.3c-18.3,0-33.2-14.9-33.2-33.2
				s14.9-33.2,33.2-33.2c18.3,0,33.2,14.9,33.2,33.2S360.4,78.3,342.1,78.3z M342.1,13.3c-17.5,0-31.8,14.3-31.8,31.8
				s14.3,31.8,31.8,31.8s31.8-14.3,31.8-31.8S359.7,13.3,342.1,13.3z"/>
		</g>
		<g>
			<path class="st1" d="M342.3,52.2c-0.7,0-1.4-0.4-1.7-1.1l-8.6-16.8c-0.5-1-0.1-2.1,0.9-2.6c1-0.5,2.1-0.1,2.6,0.9l8.6,16.8
				c0.5,1,0.1,2.1-0.9,2.6C342.9,52.1,342.6,52.2,342.3,52.2z"/>
		</g>
		<g>
			<path class="st1" d="M335.2,49.9c-0.5,0-0.9-0.3-1-0.8c-0.1-0.5,0.3-1,0.8-1.1l32.1-5.5c0.5-0.1,1,0.3,1.1,0.8
				c0.1,0.5-0.3,1-0.8,1.1l-32.1,5.5C335.3,49.9,335.3,49.9,335.2,49.9z"/>
		</g>
	</g>
	<g>
		<g>
			<rect x="531" y="20.9" class="st0" width="105" height="126.6"/>
		</g>
		<g>
			<path class="st1" d="M637.7,149.2H529.2v-130h108.5V149.2z M532.7,145.7h101.5V22.7H532.7V145.7z"/>
		</g>
		<g>
			<rect x="547.4" y="40" class="st1" width="70.2" height="88.8"/>
		</g>
		<g>
			<path class="st2" d="M560,85.8c-0.9-0.9-0.9-2.3,0-3.2l11.2-11.2c0.8-0.9,2.3-1,3.2-0.2c0.9,0.8,1,2.3,0.2,3.2
				c0,0.1-0.1,0.1-0.2,0.2l-9.6,9.6l9.6,9.6c0.9,0.9,0.9,2.3,0,3.2c-0.4,0.4-1,0.7-1.6,0.7c-0.6,0-1.2-0.2-1.6-0.7L560,85.8z
				 M590.6,93.8l9.6-9.6l-9.6-9.6c-0.9-0.9-0.9-2.3,0-3.2c0.9-0.9,2.3-0.9,3.2,0l11.2,11.2c0.9,0.9,0.9,2.3,0,3.2L593.8,97
				c-0.4,0.4-1,0.7-1.6,0.7c-0.6,0-1.2-0.2-1.6-0.7C589.7,96.1,589.7,94.7,590.6,93.8L590.6,93.8z M576.9,96.6l5.9-25.7
				c0.3-1.2,1.5-2,2.7-1.7c1.2,0.3,2,1.5,1.7,2.7l-5.9,25.7c-0.2,1-1.1,1.8-2.2,1.8c-0.2,0-0.3,0-0.5,0
				C577.3,99.1,576.6,97.9,576.9,96.6C576.8,96.6,576.8,96.6,576.9,96.6z"/>
		</g>
	</g>
	<g>
		<g>
			
				<rect x="186.7" y="114.1" transform="matrix(1 4.145334e-03 -4.145334e-03 1 0.5775 -0.7938)" class="st1" width="10.1" height="49.7"/>
		</g>
		<g>
			
				<rect x="173.3" y="114.1" transform="matrix(1 4.145334e-03 -4.145334e-03 1 0.5774 -0.7381)" class="st1" width="10.1" height="49.7"/>
		</g>
		<g>
			
				<rect x="160.1" y="114.1" transform="matrix(1 4.145334e-03 -4.145334e-03 1 0.5772 -0.6836)" class="st1" width="10.1" height="49.7"/>
		</g>
		<g>
			
				<rect x="199.2" y="129.3" transform="matrix(1 4.145941e-03 -4.145941e-03 1 0.6094 -0.8454)" class="st3" width="10" height="34.4"/>
		</g>
		<g>
			
				<rect x="220.9" y="130.1" transform="matrix(0.7603 -0.6496 0.6496 0.7603 -41.5153 182.0447)" class="st1" width="10" height="34.4"/>
		</g>
		<g>
			<path class="st1" d="M304.1,179.9l-150.8-0.7l0-14.9l150.8,0.7L304.1,179.9z M155.6,176.9l146.2,0.7l0-10.3l-146.2-0.7
				L155.6,176.9z"/>
		</g>
		<g>
			<g>
				<g>
					<g>
						<path class="st1" d="M296.9,164.4h-47.5v-63.6h47.5V164.4z M250.2,163.6h46v-62.1h-46V163.6z"/>
					</g>
				</g>
				<g>
					<g>
						<path class="st1" d="M297.9,165.3h-49.4V99.8h49.4V165.3z M249.2,164.6h47.9v-64h-47.9V164.6z M295.9,163.4h-45.6v-61.7h45.6
							V163.4z M251.1,162.7h44v-60.1h-44V162.7z"/>
					</g>
				</g>
			</g>
			<g>
				<g>
					<rect x="263.5" y="154.3" class="st4" width="20.6" height="2.6"/>
				</g>
			</g>
			<g>
				<path class="st5" d="M260.8,110.9v-3.6h0.7v1.4h1.4v-1.4h0.7v3.6H263v-1.6h-1.4v1.6H260.8z"/>
				<path class="st5" d="M265.5,109.3c0.1,0,0.2,0,0.3-0.1c0.1,0,0.2-0.1,0.2-0.2c0-0.1,0-0.2-0.1-0.2c-0.1,0-0.2-0.1-0.3-0.1
					c-0.2,0-0.3,0-0.4,0.1c0,0.1-0.1,0.1-0.1,0.2h-0.7c0-0.2,0.1-0.4,0.2-0.6c0.2-0.2,0.5-0.4,1-0.4c0.3,0,0.6,0.1,0.8,0.2
					c0.2,0.1,0.3,0.3,0.3,0.7v1.2c0,0.1,0,0.2,0,0.3c0,0.1,0,0.2,0,0.2c0,0,0.1,0.1,0.1,0.1v0.1H266c0-0.1,0-0.1,0-0.2
					c0,0,0-0.1,0-0.2c-0.1,0.1-0.2,0.2-0.3,0.3c-0.2,0.1-0.3,0.1-0.5,0.1c-0.2,0-0.4-0.1-0.6-0.2c-0.2-0.1-0.2-0.3-0.2-0.6
					c0-0.3,0.1-0.6,0.4-0.7c0.1-0.1,0.3-0.1,0.6-0.2L265.5,109.3z M265.9,109.6c0,0-0.1,0.1-0.1,0.1c0,0-0.1,0-0.2,0l-0.2,0
					c-0.1,0-0.3,0.1-0.3,0.1c-0.1,0.1-0.2,0.2-0.2,0.3c0,0.1,0,0.2,0.1,0.3c0.1,0.1,0.1,0.1,0.2,0.1c0.2,0,0.3,0,0.4-0.1
					c0.1-0.1,0.2-0.2,0.2-0.5V109.6z"/>
				<path class="st5" d="M269.4,108.5c0.2,0.2,0.3,0.6,0.3,1c0,0.5-0.1,0.8-0.3,1.1c-0.2,0.2-0.5,0.4-0.8,0.4
					c-0.2,0-0.4-0.1-0.5-0.2c-0.1-0.1-0.2-0.1-0.2-0.3v1.4h-0.7v-3.7h0.7v0.4c0.1-0.1,0.2-0.2,0.2-0.3c0.2-0.1,0.3-0.2,0.6-0.2
					C269,108.2,269.2,108.3,269.4,108.5z M268.9,109c-0.1-0.2-0.2-0.2-0.5-0.2c-0.3,0-0.4,0.1-0.5,0.4c0,0.1-0.1,0.3-0.1,0.5
					c0,0.3,0.1,0.5,0.2,0.7c0.1,0.1,0.2,0.1,0.4,0.1c0.2,0,0.3-0.1,0.4-0.2c0.1-0.1,0.2-0.3,0.2-0.6C269,109.3,269,109.2,268.9,109z
					"/>
				<path class="st5" d="M272.5,108.5c0.2,0.2,0.3,0.6,0.3,1c0,0.5-0.1,0.8-0.3,1.1c-0.2,0.2-0.5,0.4-0.8,0.4
					c-0.2,0-0.4-0.1-0.5-0.2c-0.1-0.1-0.2-0.1-0.2-0.3v1.4h-0.7v-3.7h0.7v0.4c0.1-0.1,0.2-0.2,0.2-0.3c0.2-0.1,0.3-0.2,0.6-0.2
					C272,108.2,272.3,108.3,272.5,108.5z M272,109c-0.1-0.2-0.2-0.2-0.5-0.2c-0.3,0-0.4,0.1-0.5,0.4c0,0.1-0.1,0.3-0.1,0.5
					c0,0.3,0.1,0.5,0.2,0.7c0.1,0.1,0.2,0.1,0.4,0.1c0.2,0,0.3-0.1,0.4-0.2c0.1-0.1,0.2-0.3,0.2-0.6
					C272.1,109.3,272.1,109.2,272,109z"/>
				<path class="st5" d="M274,107.9h-0.7v-0.6h0.7V107.9z M273.3,108.2h0.7v2.7h-0.7V108.2z"/>
				<path class="st5" d="M276.8,108.4c0.2,0.1,0.3,0.4,0.3,0.7v1.8h-0.7v-1.6c0-0.1,0-0.2-0.1-0.3c-0.1-0.1-0.2-0.2-0.4-0.2
					c-0.2,0-0.4,0.1-0.5,0.3c0,0.1-0.1,0.2-0.1,0.4v1.4h-0.7v-2.7h0.7v0.4c0.1-0.1,0.2-0.2,0.3-0.3c0.1-0.1,0.3-0.2,0.5-0.2
					C276.5,108.2,276.7,108.2,276.8,108.4z"/>
				<path class="st5" d="M279.5,108.3c0.2,0.1,0.3,0.2,0.5,0.4c0.1,0.2,0.2,0.3,0.2,0.6c0,0.1,0,0.3,0,0.5h-1.9
					c0,0.3,0.1,0.5,0.3,0.6c0.1,0.1,0.2,0.1,0.4,0.1c0.2,0,0.3,0,0.4-0.1c0.1,0,0.1-0.1,0.1-0.2h0.7c0,0.2-0.1,0.3-0.3,0.5
					c-0.2,0.3-0.6,0.4-1,0.4c-0.4,0-0.7-0.1-0.9-0.3c-0.3-0.2-0.4-0.6-0.4-1.1c0-0.5,0.1-0.8,0.4-1.1c0.2-0.2,0.6-0.4,1-0.4
					C279.1,108.1,279.3,108.2,279.5,108.3z M278.5,108.9c-0.1,0.1-0.2,0.2-0.2,0.4h1.2c0-0.2-0.1-0.3-0.2-0.4
					c-0.1-0.1-0.2-0.1-0.4-0.1C278.7,108.7,278.6,108.8,278.5,108.9z"/>
				<path class="st5" d="M281.1,110c0,0.1,0,0.2,0.1,0.3c0.1,0.1,0.2,0.1,0.5,0.1c0.1,0,0.2,0,0.3-0.1c0.1,0,0.1-0.1,0.1-0.2
					c0-0.1,0-0.1-0.1-0.2c-0.1,0-0.3-0.1-0.7-0.2c-0.3-0.1-0.5-0.2-0.6-0.3c-0.1-0.1-0.2-0.3-0.2-0.5c0-0.2,0.1-0.5,0.3-0.6
					c0.2-0.2,0.5-0.3,0.8-0.3c0.3,0,0.6,0.1,0.8,0.2c0.2,0.1,0.3,0.4,0.4,0.7H282c0-0.1,0-0.2-0.1-0.2c-0.1-0.1-0.2-0.1-0.4-0.1
					c-0.2,0-0.3,0-0.3,0.1c-0.1,0-0.1,0.1-0.1,0.2c0,0.1,0,0.1,0.1,0.2c0.1,0,0.3,0.1,0.7,0.2c0.3,0.1,0.5,0.2,0.6,0.3
					c0.1,0.1,0.2,0.3,0.2,0.5c0,0.3-0.1,0.5-0.3,0.6c-0.2,0.2-0.5,0.3-0.9,0.3c-0.4,0-0.7-0.1-0.9-0.3c-0.2-0.2-0.3-0.4-0.3-0.7
					H281.1z"/>
				<path class="st5" d="M283.9,110c0,0.1,0,0.2,0.1,0.3c0.1,0.1,0.2,0.1,0.5,0.1c0.1,0,0.2,0,0.3-0.1c0.1,0,0.1-0.1,0.1-0.2
					c0-0.1,0-0.1-0.1-0.2c-0.1,0-0.3-0.1-0.7-0.2c-0.3-0.1-0.5-0.2-0.6-0.3c-0.1-0.1-0.2-0.3-0.2-0.5c0-0.2,0.1-0.5,0.3-0.6
					c0.2-0.2,0.5-0.3,0.8-0.3c0.3,0,0.6,0.1,0.8,0.2c0.2,0.1,0.3,0.4,0.4,0.7h-0.7c0-0.1,0-0.2-0.1-0.2c-0.1-0.1-0.2-0.1-0.4-0.1
					c-0.2,0-0.3,0-0.3,0.1c-0.1,0-0.1,0.1-0.1,0.2c0,0.1,0,0.1,0.1,0.2c0.1,0,0.3,0.1,0.7,0.2c0.3,0.1,0.5,0.2,0.6,0.3
					c0.1,0.1,0.2,0.3,0.2,0.5c0,0.3-0.1,0.5-0.3,0.6c-0.2,0.2-0.5,0.3-0.9,0.3c-0.4,0-0.7-0.1-0.9-0.3c-0.2-0.2-0.3-0.4-0.3-0.7
					H283.9z"/>
				<path class="st5" d="M258.8,115.2c0-0.1,0-0.2-0.1-0.3c-0.1-0.1-0.2-0.2-0.4-0.2c-0.2,0-0.4,0.1-0.5,0.3c0,0.1-0.1,0.3-0.1,0.5
					c0,0.2,0,0.4,0.1,0.5c0.1,0.2,0.2,0.3,0.5,0.3c0.2,0,0.3,0,0.3-0.1c0.1-0.1,0.1-0.2,0.1-0.3h0.7c0,0.2-0.1,0.4-0.2,0.6
					c-0.2,0.3-0.5,0.5-1,0.5c-0.4,0-0.7-0.1-0.9-0.4c-0.2-0.3-0.3-0.6-0.3-1c0-0.5,0.1-0.8,0.3-1.1c0.2-0.3,0.5-0.4,0.9-0.4
					c0.3,0,0.6,0.1,0.8,0.2c0.2,0.2,0.3,0.4,0.4,0.8H258.8z"/>
				<path class="st5" d="M261,115.3c0.1,0,0.2,0,0.3-0.1c0.1,0,0.2-0.1,0.2-0.2c0-0.1,0-0.2-0.1-0.2c-0.1,0-0.2-0.1-0.3-0.1
					c-0.2,0-0.3,0-0.4,0.1c0,0.1-0.1,0.1-0.1,0.2h-0.7c0-0.2,0.1-0.4,0.2-0.6c0.2-0.2,0.5-0.4,1-0.4c0.3,0,0.6,0.1,0.8,0.2
					c0.2,0.1,0.3,0.3,0.3,0.7v1.2c0,0.1,0,0.2,0,0.3c0,0.1,0,0.2,0,0.2c0,0,0.1,0.1,0.1,0.1v0.1h-0.8c0-0.1,0-0.1,0-0.2
					c0,0,0-0.1,0-0.2c-0.1,0.1-0.2,0.2-0.3,0.3c-0.2,0.1-0.3,0.1-0.5,0.1c-0.2,0-0.4-0.1-0.6-0.2c-0.2-0.1-0.2-0.3-0.2-0.6
					c0-0.3,0.1-0.6,0.4-0.7c0.1-0.1,0.3-0.1,0.6-0.2L261,115.3z M261.4,115.6c0,0-0.1,0.1-0.1,0.1c0,0-0.1,0-0.2,0l-0.2,0
					c-0.1,0-0.3,0.1-0.3,0.1c-0.1,0.1-0.2,0.2-0.2,0.3c0,0.1,0,0.2,0.1,0.3c0.1,0.1,0.1,0.1,0.2,0.1c0.2,0,0.3,0,0.4-0.1
					c0.1-0.1,0.2-0.2,0.2-0.5V115.6z"/>
				<path class="st5" d="M264.9,114.4c0.2,0.1,0.3,0.4,0.3,0.7v1.8h-0.7v-1.6c0-0.1,0-0.2-0.1-0.3c-0.1-0.1-0.2-0.2-0.4-0.2
					c-0.2,0-0.4,0.1-0.5,0.3c0,0.1-0.1,0.2-0.1,0.4v1.4h-0.7v-2.7h0.7v0.4c0.1-0.1,0.2-0.2,0.3-0.3c0.1-0.1,0.3-0.2,0.5-0.2
					C264.5,114.2,264.7,114.2,264.9,114.4z"/>
				<path class="st5" d="M269.5,114.5c0.2,0.3,0.3,0.6,0.3,1c0,0.4-0.1,0.8-0.3,1c-0.2,0.3-0.5,0.4-0.8,0.4c-0.2,0-0.4,0-0.5-0.1
					c-0.1-0.1-0.2-0.1-0.3-0.3v0.3h-0.7v-3.6h0.7v1.3c0.1-0.1,0.2-0.2,0.3-0.3c0.1-0.1,0.3-0.1,0.5-0.1
					C269,114.2,269.3,114.3,269.5,114.5z M268.9,116.2c0.1-0.1,0.2-0.3,0.2-0.6c0-0.2,0-0.3-0.1-0.5c-0.1-0.2-0.3-0.4-0.5-0.4
					c-0.3,0-0.4,0.1-0.5,0.3c0,0.1-0.1,0.3-0.1,0.5c0,0.2,0.1,0.4,0.2,0.6c0.1,0.2,0.3,0.2,0.5,0.2
					C268.7,116.4,268.8,116.3,268.9,116.2z"/>
				<path class="st5" d="M272,114.3c0.2,0.1,0.3,0.2,0.5,0.4c0.1,0.2,0.2,0.3,0.2,0.6c0,0.1,0,0.3,0,0.5h-1.9c0,0.3,0.1,0.5,0.3,0.6
					c0.1,0.1,0.2,0.1,0.4,0.1c0.2,0,0.3,0,0.4-0.1c0.1,0,0.1-0.1,0.1-0.2h0.7c0,0.2-0.1,0.3-0.3,0.5c-0.2,0.3-0.6,0.4-1,0.4
					c-0.4,0-0.7-0.1-0.9-0.3c-0.3-0.2-0.4-0.6-0.4-1.1c0-0.5,0.1-0.8,0.4-1.1c0.2-0.2,0.6-0.4,1-0.4
					C271.6,114.2,271.8,114.2,272,114.3z M271,114.9c-0.1,0.1-0.2,0.2-0.2,0.4h1.2c0-0.2-0.1-0.3-0.2-0.4c-0.1-0.1-0.2-0.1-0.4-0.1
					C271.2,114.7,271.1,114.8,271,114.9z"/>
				<path class="st5" d="M275.5,113.3c0,0,0.1,0,0.1,0v0.6c0,0-0.1,0-0.2,0c-0.1,0-0.2,0-0.2,0.1c0,0-0.1,0.1-0.1,0.1s0,0.1,0,0.2
					h0.5v0.5h-0.5v2.1h-0.7v-2.1h-0.4v-0.5h0.4v-0.2c0-0.3,0-0.5,0.1-0.6c0.1-0.2,0.3-0.2,0.7-0.2
					C275.5,113.3,275.5,113.3,275.5,113.3z"/>
				<path class="st5" d="M278.3,116.6c-0.2,0.3-0.6,0.4-1,0.4s-0.8-0.1-1-0.4c-0.2-0.3-0.3-0.6-0.3-1c0-0.4,0.1-0.7,0.3-1
					c0.2-0.3,0.6-0.4,1-0.4s0.8,0.1,1,0.4c0.2,0.3,0.3,0.6,0.3,1C278.7,116,278.5,116.3,278.3,116.6z M277.8,116.2
					c0.1-0.1,0.2-0.4,0.2-0.6c0-0.3-0.1-0.5-0.2-0.6c-0.1-0.1-0.3-0.2-0.5-0.2c-0.2,0-0.4,0.1-0.5,0.2c-0.1,0.1-0.2,0.3-0.2,0.6
					c0,0.3,0.1,0.5,0.2,0.6c0.1,0.1,0.3,0.2,0.5,0.2C277.5,116.4,277.7,116.3,277.8,116.2z"/>
				<path class="st5" d="M279.9,114.2v1.6c0,0.2,0,0.3,0.1,0.3c0.1,0.1,0.2,0.2,0.4,0.2c0.2,0,0.4-0.1,0.5-0.3
					c0-0.1,0.1-0.2,0.1-0.4v-1.4h0.7v2.7h-0.7v-0.4c0,0,0,0,0,0.1c0,0-0.1,0.1-0.1,0.1c-0.1,0.1-0.2,0.2-0.3,0.2
					c-0.1,0-0.2,0.1-0.4,0.1c-0.4,0-0.7-0.1-0.8-0.4c-0.1-0.2-0.1-0.4-0.1-0.7v-1.6H279.9z"/>
				<path class="st5" d="M284.4,114.4c0.2,0.1,0.3,0.4,0.3,0.7v1.8h-0.7v-1.6c0-0.1,0-0.2-0.1-0.3c-0.1-0.1-0.2-0.2-0.4-0.2
					c-0.2,0-0.4,0.1-0.5,0.3c0,0.1-0.1,0.2-0.1,0.4v1.4h-0.7v-2.7h0.7v0.4c0.1-0.1,0.2-0.2,0.3-0.3c0.1-0.1,0.3-0.2,0.5-0.2
					C284,114.2,284.2,114.2,284.4,114.4z"/>
				<path class="st5" d="M286.7,114.3c0.1,0.1,0.2,0.2,0.3,0.3v-1.3h0.7v3.6H287v-0.4c-0.1,0.2-0.2,0.3-0.3,0.3
					c-0.1,0.1-0.3,0.1-0.5,0.1c-0.3,0-0.6-0.1-0.8-0.4c-0.2-0.3-0.3-0.6-0.3-1c0-0.5,0.1-0.8,0.3-1.1c0.2-0.3,0.5-0.4,0.8-0.4
					C286.4,114.2,286.6,114.2,286.7,114.3z M286.9,116.2c0.1-0.1,0.2-0.3,0.2-0.6c0-0.3-0.1-0.6-0.2-0.7c-0.1-0.1-0.2-0.1-0.4-0.1
					c-0.2,0-0.4,0.1-0.4,0.2c-0.1,0.2-0.1,0.3-0.1,0.6c0,0.2,0,0.4,0.1,0.6c0.1,0.1,0.2,0.2,0.4,0.2
					C286.6,116.4,286.8,116.3,286.9,116.2z"/>
				<path class="st5" d="M288.3,117.5c0.1,0,0.2-0.1,0.3-0.2c0.1-0.1,0.1-0.2,0.1-0.4h-0.4v-0.7h0.8v0.6c0,0.1,0,0.2,0,0.3
					c0,0.1-0.1,0.2-0.2,0.3c-0.1,0.1-0.2,0.2-0.3,0.2c-0.1,0-0.2,0.1-0.2,0.1V117.5z"/>
				<path class="st5" d="M262.1,120.3c0.2,0.1,0.3,0.2,0.5,0.4c0.1,0.2,0.2,0.3,0.2,0.6c0,0.1,0,0.3,0,0.5h-1.9
					c0,0.3,0.1,0.5,0.3,0.6c0.1,0.1,0.2,0.1,0.4,0.1c0.2,0,0.3,0,0.4-0.1c0.1,0,0.1-0.1,0.1-0.2h0.7c0,0.2-0.1,0.3-0.3,0.5
					c-0.2,0.3-0.6,0.4-1,0.4c-0.4,0-0.7-0.1-0.9-0.3c-0.3-0.2-0.4-0.6-0.4-1.1c0-0.5,0.1-0.8,0.4-1.1c0.2-0.2,0.6-0.4,1-0.4
					C261.7,120.2,261.9,120.2,262.1,120.3z M261.1,120.9c-0.1,0.1-0.2,0.2-0.2,0.4h1.2c0-0.2-0.1-0.3-0.2-0.4
					c-0.1-0.1-0.2-0.1-0.4-0.1C261.3,120.7,261.2,120.8,261.1,120.9z"/>
				<path class="st5" d="M264.8,120.2h0.7l-1,2.7h-0.7l-1-2.7h0.8l0.6,2L264.8,120.2z"/>
				<path class="st5" d="M267.7,120.3c0.2,0.1,0.3,0.2,0.5,0.4c0.1,0.2,0.2,0.3,0.2,0.6c0,0.1,0,0.3,0,0.5h-1.9
					c0,0.3,0.1,0.5,0.3,0.6c0.1,0.1,0.2,0.1,0.4,0.1c0.2,0,0.3,0,0.4-0.1c0.1,0,0.1-0.1,0.1-0.2h0.7c0,0.2-0.1,0.3-0.3,0.5
					c-0.2,0.3-0.6,0.4-1,0.4c-0.4,0-0.7-0.1-0.9-0.3c-0.3-0.2-0.4-0.6-0.4-1.1c0-0.5,0.1-0.8,0.4-1.1c0.2-0.2,0.6-0.4,1-0.4
					C267.3,120.2,267.5,120.2,267.7,120.3z M266.6,120.9c-0.1,0.1-0.2,0.2-0.2,0.4h1.2c0-0.2-0.1-0.3-0.2-0.4
					c-0.1-0.1-0.2-0.1-0.4-0.1C266.9,120.7,266.7,120.8,266.6,120.9z"/>
				<path class="st5" d="M270.9,120.4c0.2,0.1,0.3,0.4,0.3,0.7v1.8h-0.7v-1.6c0-0.1,0-0.2-0.1-0.3c-0.1-0.1-0.2-0.2-0.4-0.2
					c-0.2,0-0.4,0.1-0.5,0.3c0,0.1-0.1,0.2-0.1,0.4v1.4h-0.7v-2.7h0.7v0.4c0.1-0.1,0.2-0.2,0.3-0.3c0.1-0.1,0.3-0.2,0.5-0.2
					C270.5,120.2,270.7,120.2,270.9,120.4z"/>
				<path class="st5" d="M273.9,119.9h-0.7v-0.6h0.7V119.9z M273.2,120.2h0.7v2.7h-0.7V120.2z"/>
				<path class="st5" d="M276.7,120.4c0.2,0.1,0.3,0.4,0.3,0.7v1.8h-0.7v-1.6c0-0.1,0-0.2-0.1-0.3c-0.1-0.1-0.2-0.2-0.4-0.2
					c-0.2,0-0.4,0.1-0.5,0.3c0,0.1-0.1,0.2-0.1,0.4v1.4h-0.7v-2.7h0.7v0.4c0.1-0.1,0.2-0.2,0.3-0.3c0.1-0.1,0.3-0.2,0.5-0.2
					C276.3,120.2,276.5,120.2,276.7,120.4z"/>
				<path class="st5" d="M278.7,120.8v-0.5h0.4v-0.7h0.7v0.7h0.4v0.5h-0.4v1.4c0,0.1,0,0.2,0,0.2c0,0,0.1,0,0.3,0c0,0,0,0,0.1,0
					s0,0,0.1,0v0.5l-0.3,0c-0.3,0-0.6,0-0.7-0.2c-0.1-0.1-0.1-0.2-0.1-0.4v-1.6H278.7z"/>
				<path class="st5" d="M282.6,120.3c0.1,0.1,0.2,0.1,0.3,0.3c0.1,0.1,0.1,0.2,0.1,0.3c0,0.1,0,0.3,0,0.5v1.6h-0.7v-1.6
					c0-0.1,0-0.3-0.1-0.3c-0.1-0.1-0.2-0.2-0.4-0.2c-0.2,0-0.3,0.1-0.4,0.2c-0.1,0.1-0.1,0.3-0.1,0.5v1.4h-0.7v-3.6h0.7v1.3
					c0.1-0.2,0.2-0.3,0.3-0.3c0.1-0.1,0.3-0.1,0.4-0.1C282.3,120.2,282.5,120.2,282.6,120.3z"/>
				<path class="st5" d="M285.5,120.3c0.2,0.1,0.3,0.2,0.5,0.4c0.1,0.2,0.2,0.3,0.2,0.6c0,0.1,0,0.3,0,0.5h-1.9
					c0,0.3,0.1,0.5,0.3,0.6c0.1,0.1,0.2,0.1,0.4,0.1c0.2,0,0.3,0,0.4-0.1c0.1,0,0.1-0.1,0.1-0.2h0.7c0,0.2-0.1,0.3-0.3,0.5
					c-0.2,0.3-0.6,0.4-1,0.4c-0.4,0-0.7-0.1-0.9-0.3c-0.3-0.2-0.4-0.6-0.4-1.1c0-0.5,0.1-0.8,0.4-1.1c0.2-0.2,0.6-0.4,1-0.4
					C285.1,120.2,285.3,120.2,285.5,120.3z M284.4,120.9c-0.1,0.1-0.2,0.2-0.2,0.4h1.2c0-0.2-0.1-0.3-0.2-0.4
					c-0.1-0.1-0.2-0.1-0.4-0.1C284.7,120.7,284.5,120.8,284.4,120.9z"/>
				<path class="st5" d="M255,126.3c0.1,0.1,0.2,0.2,0.3,0.3v-1.3h0.7v3.6h-0.7v-0.4c-0.1,0.2-0.2,0.3-0.3,0.3
					c-0.1,0.1-0.3,0.1-0.5,0.1c-0.3,0-0.6-0.1-0.8-0.4c-0.2-0.3-0.3-0.6-0.3-1c0-0.5,0.1-0.8,0.3-1.1c0.2-0.3,0.5-0.4,0.8-0.4
					C254.7,126.2,254.8,126.2,255,126.3z M255.1,128.2c0.1-0.1,0.2-0.3,0.2-0.6c0-0.3-0.1-0.6-0.2-0.7c-0.1-0.1-0.2-0.1-0.4-0.1
					c-0.2,0-0.4,0.1-0.4,0.2c-0.1,0.2-0.1,0.3-0.1,0.6c0,0.2,0,0.4,0.1,0.6c0.1,0.1,0.2,0.2,0.4,0.2
					C254.9,128.4,255,128.3,255.1,128.2z"/>
				<path class="st5" d="M257.7,127.3c0.1,0,0.2,0,0.3-0.1c0.1,0,0.2-0.1,0.2-0.2c0-0.1,0-0.2-0.1-0.2c-0.1,0-0.2-0.1-0.3-0.1
					c-0.2,0-0.3,0-0.4,0.1c0,0.1-0.1,0.1-0.1,0.2h-0.7c0-0.2,0.1-0.4,0.2-0.6c0.2-0.2,0.5-0.4,1-0.4c0.3,0,0.6,0.1,0.8,0.2
					c0.2,0.1,0.3,0.3,0.3,0.7v1.2c0,0.1,0,0.2,0,0.3c0,0.1,0,0.2,0,0.2c0,0,0.1,0.1,0.1,0.1v0.1h-0.8c0-0.1,0-0.1,0-0.2
					c0,0,0-0.1,0-0.2c-0.1,0.1-0.2,0.2-0.3,0.3c-0.2,0.1-0.3,0.1-0.5,0.1c-0.2,0-0.4-0.1-0.6-0.2c-0.2-0.1-0.2-0.3-0.2-0.6
					c0-0.3,0.1-0.6,0.4-0.7c0.1-0.1,0.3-0.1,0.6-0.2L257.7,127.3z M258.1,127.6c0,0-0.1,0.1-0.1,0.1c0,0-0.1,0-0.2,0l-0.2,0
					c-0.1,0-0.3,0.1-0.3,0.1c-0.1,0.1-0.2,0.2-0.2,0.3c0,0.1,0,0.2,0.1,0.3c0.1,0.1,0.1,0.1,0.2,0.1c0.2,0,0.3,0,0.4-0.1
					c0.1-0.1,0.2-0.2,0.2-0.5V127.6z"/>
				<path class="st5" d="M260.9,126.2C260.9,126.2,260.9,126.2,260.9,126.2l0.1,0.7c0,0-0.1,0-0.1,0c0,0-0.1,0-0.1,0
					c-0.3,0-0.5,0.1-0.6,0.3c-0.1,0.1-0.1,0.3-0.1,0.5v1.3h-0.7v-2.7h0.7v0.5c0.1-0.2,0.2-0.3,0.3-0.4
					C260.5,126.2,260.6,126.2,260.9,126.2C260.9,126.2,260.9,126.2,260.9,126.2z"/>
				<path class="st5" d="M261.3,125.3h0.7v1.9l0.9-1h0.9l-1,1l1,1.7H263l-0.6-1.1l-0.3,0.3v0.8h-0.7V125.3z"/>
				<path class="st5" d="M265.9,126.3c0.2,0.1,0.3,0.2,0.5,0.4c0.1,0.2,0.2,0.3,0.2,0.6c0,0.1,0,0.3,0,0.5h-1.9
					c0,0.3,0.1,0.5,0.3,0.6c0.1,0.1,0.2,0.1,0.4,0.1c0.2,0,0.3,0,0.4-0.1c0.1,0,0.1-0.1,0.1-0.2h0.7c0,0.2-0.1,0.3-0.3,0.5
					c-0.2,0.3-0.6,0.4-1,0.4c-0.4,0-0.7-0.1-0.9-0.3c-0.3-0.2-0.4-0.6-0.4-1.1c0-0.5,0.1-0.8,0.4-1.1c0.2-0.2,0.6-0.4,1-0.4
					C265.5,126.2,265.7,126.2,265.9,126.3z M264.8,126.9c-0.1,0.1-0.2,0.2-0.2,0.4h1.2c0-0.2-0.1-0.3-0.2-0.4
					c-0.1-0.1-0.2-0.1-0.4-0.1C265.1,126.7,264.9,126.8,264.8,126.9z"/>
				<path class="st5" d="M267.5,128.1c0,0.1,0,0.2,0.1,0.3c0.1,0.1,0.2,0.1,0.5,0.1c0.1,0,0.2,0,0.3-0.1c0.1,0,0.1-0.1,0.1-0.2
					c0-0.1,0-0.1-0.1-0.2c-0.1,0-0.3-0.1-0.7-0.2c-0.3-0.1-0.5-0.2-0.6-0.3c-0.1-0.1-0.2-0.3-0.2-0.5c0-0.2,0.1-0.5,0.3-0.6
					c0.2-0.2,0.5-0.3,0.8-0.3c0.3,0,0.6,0.1,0.8,0.2c0.2,0.1,0.3,0.4,0.4,0.7h-0.7c0-0.1,0-0.2-0.1-0.2c-0.1-0.1-0.2-0.1-0.4-0.1
					c-0.2,0-0.3,0-0.3,0.1c-0.1,0-0.1,0.1-0.1,0.2c0,0.1,0,0.1,0.1,0.2c0.1,0,0.3,0.1,0.7,0.2c0.3,0.1,0.5,0.2,0.6,0.3
					c0.1,0.1,0.2,0.3,0.2,0.5c0,0.3-0.1,0.5-0.3,0.6c-0.2,0.2-0.5,0.3-0.9,0.3c-0.4,0-0.7-0.1-0.9-0.3c-0.2-0.2-0.3-0.4-0.3-0.7
					H267.5z"/>
				<path class="st5" d="M269.4,126.8v-0.5h0.4v-0.7h0.7v0.7h0.4v0.5h-0.4v1.4c0,0.1,0,0.2,0,0.2c0,0,0.1,0,0.3,0c0,0,0,0,0.1,0
					c0,0,0,0,0.1,0v0.5l-0.3,0c-0.3,0-0.6,0-0.7-0.2c-0.1-0.1-0.1-0.2-0.1-0.4v-1.6H269.4z"/>
				<path class="st5" d="M275,128.6c-0.2,0.3-0.6,0.4-1,0.4c-0.5,0-0.8-0.1-1-0.4c-0.2-0.3-0.3-0.6-0.3-1c0-0.4,0.1-0.7,0.3-1
					c0.2-0.3,0.6-0.4,1-0.4c0.5,0,0.8,0.1,1,0.4c0.2,0.3,0.3,0.6,0.3,1C275.3,128,275.2,128.3,275,128.6z M274.4,128.2
					c0.1-0.1,0.2-0.4,0.2-0.6c0-0.3-0.1-0.5-0.2-0.6c-0.1-0.1-0.3-0.2-0.5-0.2c-0.2,0-0.4,0.1-0.5,0.2c-0.1,0.1-0.2,0.3-0.2,0.6
					c0,0.3,0.1,0.5,0.2,0.6c0.1,0.1,0.3,0.2,0.5,0.2C274.2,128.4,274.3,128.3,274.4,128.2z"/>
				<path class="st5" d="M276.9,125.3c0,0,0.1,0,0.1,0v0.6c0,0-0.1,0-0.2,0c-0.1,0-0.2,0-0.2,0.1c0,0-0.1,0.1-0.1,0.1s0,0.1,0,0.2
					h0.5v0.5h-0.5v2.1h-0.7v-2.1h-0.4v-0.5h0.4v-0.2c0-0.3,0-0.5,0.1-0.6c0.1-0.2,0.3-0.2,0.7-0.2
					C276.8,125.3,276.9,125.3,276.9,125.3z"/>
				<path class="st5" d="M278.6,126.8v-0.5h0.4v-0.7h0.7v0.7h0.4v0.5h-0.4v1.4c0,0.1,0,0.2,0,0.2c0,0,0.1,0,0.3,0c0,0,0,0,0.1,0
					s0,0,0.1,0v0.5l-0.3,0c-0.3,0-0.6,0-0.7-0.2c-0.1-0.1-0.1-0.2-0.1-0.4v-1.6H278.6z"/>
				<path class="st5" d="M281.3,125.9h-0.7v-0.6h0.7V125.9z M280.6,126.2h0.7v2.7h-0.7V126.2z"/>
				<path class="st5" d="M285.3,126.3c0.1,0,0.2,0.1,0.3,0.2c0.1,0.1,0.1,0.2,0.2,0.3c0,0.1,0,0.2,0,0.4l0,1.7H285v-1.7
					c0-0.1,0-0.2,0-0.2c-0.1-0.1-0.2-0.2-0.3-0.2c-0.2,0-0.3,0.1-0.4,0.2c0,0.1-0.1,0.2-0.1,0.3v1.6h-0.7v-1.6c0-0.2,0-0.3,0-0.3
					c-0.1-0.1-0.2-0.2-0.3-0.2c-0.2,0-0.3,0.1-0.4,0.2c0,0.1-0.1,0.2-0.1,0.3v1.6h-0.7v-2.7h0.7v0.4c0.1-0.1,0.2-0.2,0.2-0.3
					c0.1-0.1,0.3-0.2,0.5-0.2c0.2,0,0.4,0,0.5,0.1c0.1,0.1,0.2,0.2,0.2,0.3c0.1-0.2,0.2-0.3,0.3-0.3c0.1-0.1,0.3-0.1,0.5-0.1
					C285,126.2,285.1,126.2,285.3,126.3z"/>
				<path class="st5" d="M288.1,126.3c0.2,0.1,0.3,0.2,0.5,0.4c0.1,0.2,0.2,0.3,0.2,0.6c0,0.1,0,0.3,0,0.5h-1.9
					c0,0.3,0.1,0.5,0.3,0.6c0.1,0.1,0.2,0.1,0.4,0.1c0.2,0,0.3,0,0.4-0.1c0.1,0,0.1-0.1,0.1-0.2h0.7c0,0.2-0.1,0.3-0.3,0.5
					c-0.2,0.3-0.6,0.4-1,0.4c-0.4,0-0.7-0.1-0.9-0.3c-0.3-0.2-0.4-0.6-0.4-1.1c0-0.5,0.1-0.8,0.4-1.1c0.2-0.2,0.6-0.4,1-0.4
					C287.7,126.2,287.9,126.2,288.1,126.3z M287.1,126.9c-0.1,0.1-0.2,0.2-0.2,0.4h1.2c0-0.2-0.1-0.3-0.2-0.4
					c-0.1-0.1-0.2-0.1-0.4-0.1C287.3,126.7,287.2,126.8,287.1,126.9z"/>
				<path class="st5" d="M289.7,128.1c0,0.1,0,0.2,0.1,0.3c0.1,0.1,0.2,0.1,0.5,0.1c0.1,0,0.2,0,0.3-0.1c0.1,0,0.1-0.1,0.1-0.2
					c0-0.1,0-0.1-0.1-0.2c-0.1,0-0.3-0.1-0.7-0.2c-0.3-0.1-0.5-0.2-0.6-0.3c-0.1-0.1-0.2-0.3-0.2-0.5c0-0.2,0.1-0.5,0.3-0.6
					c0.2-0.2,0.5-0.3,0.8-0.3c0.3,0,0.6,0.1,0.8,0.2c0.2,0.1,0.3,0.4,0.4,0.7h-0.7c0-0.1,0-0.2-0.1-0.2c-0.1-0.1-0.2-0.1-0.4-0.1
					c-0.2,0-0.3,0-0.3,0.1c-0.1,0-0.1,0.1-0.1,0.2c0,0.1,0,0.1,0.1,0.2c0.1,0,0.3,0.1,0.7,0.2c0.3,0.1,0.5,0.2,0.6,0.3
					c0.1,0.1,0.2,0.3,0.2,0.5c0,0.3-0.1,0.5-0.3,0.6c-0.2,0.2-0.5,0.3-0.9,0.3c-0.4,0-0.7-0.1-0.9-0.3c-0.2-0.2-0.3-0.4-0.3-0.7
					H289.7z"/>
				<path class="st5" d="M291.9,129.5c0.1,0,0.2-0.1,0.3-0.2c0.1-0.1,0.1-0.2,0.1-0.4h-0.4v-0.7h0.8v0.6c0,0.1,0,0.2,0,0.3
					c0,0.1-0.1,0.2-0.2,0.3c-0.1,0.1-0.2,0.2-0.3,0.2c-0.1,0-0.2,0.1-0.2,0.1V129.5z"/>
				<path class="st5" d="M261.7,131.9h-0.7v-0.6h0.7V131.9z M260.9,132.3h0.7v2.7h-0.7V132.3z"/>
				<path class="st5" d="M263.4,131.3c0,0,0.1,0,0.1,0v0.6c0,0-0.1,0-0.2,0c-0.1,0-0.2,0-0.2,0.1s-0.1,0.1-0.1,0.1
					c0,0.1,0,0.1,0,0.2h0.5v0.5h-0.5v2.1h-0.7v-2.1h-0.4v-0.5h0.4v-0.2c0-0.3,0-0.5,0.1-0.6c0.1-0.2,0.3-0.2,0.7-0.2
					C263.4,131.3,263.4,131.3,263.4,131.3z"/>
				<path class="st5" d="M267.6,134.6c-0.2,0.3-0.6,0.4-1,0.4c-0.5,0-0.8-0.1-1-0.4c-0.2-0.3-0.3-0.6-0.3-1c0-0.4,0.1-0.7,0.3-1
					c0.2-0.3,0.6-0.4,1-0.4c0.5,0,0.8,0.1,1,0.4c0.2,0.3,0.3,0.6,0.3,1C267.9,134,267.8,134.3,267.6,134.6z M267.1,134.2
					c0.1-0.1,0.2-0.4,0.2-0.6c0-0.3-0.1-0.5-0.2-0.6c-0.1-0.1-0.3-0.2-0.5-0.2c-0.2,0-0.4,0.1-0.5,0.2c-0.1,0.1-0.2,0.3-0.2,0.6
					c0,0.3,0.1,0.5,0.2,0.6c0.1,0.1,0.3,0.2,0.5,0.2C266.8,134.4,266.9,134.4,267.1,134.2z"/>
				<path class="st5" d="M270.6,132.4c0.2,0.1,0.3,0.4,0.3,0.7v1.8h-0.7v-1.6c0-0.1,0-0.2-0.1-0.3c-0.1-0.1-0.2-0.2-0.4-0.2
					c-0.2,0-0.4,0.1-0.5,0.3c0,0.1-0.1,0.2-0.1,0.4v1.4h-0.7v-2.7h0.7v0.4c0.1-0.1,0.2-0.2,0.3-0.3c0.1-0.1,0.3-0.2,0.5-0.2
					C270.2,132.2,270.4,132.3,270.6,132.4z"/>
				<path class="st5" d="M273.2,132.3c0.2,0.1,0.3,0.2,0.5,0.4c0.1,0.2,0.2,0.3,0.2,0.6c0,0.1,0,0.3,0,0.5H272
					c0,0.3,0.1,0.5,0.3,0.6c0.1,0.1,0.2,0.1,0.4,0.1c0.2,0,0.3,0,0.4-0.1c0.1,0,0.1-0.1,0.1-0.2h0.7c0,0.2-0.1,0.3-0.3,0.5
					c-0.2,0.3-0.6,0.4-1,0.4c-0.4,0-0.7-0.1-0.9-0.3c-0.3-0.2-0.4-0.6-0.4-1.1c0-0.5,0.1-0.8,0.4-1.1c0.2-0.2,0.6-0.4,1-0.4
					C272.8,132.2,273.1,132.2,273.2,132.3z M272.2,132.9c-0.1,0.1-0.2,0.2-0.2,0.4h1.2c0-0.2-0.1-0.3-0.2-0.4s-0.2-0.1-0.4-0.1
					C272.4,132.8,272.3,132.8,272.2,132.9z"/>
				<path class="st5" d="M277.9,134.6c-0.2,0.3-0.6,0.4-1,0.4c-0.5,0-0.8-0.1-1-0.4c-0.2-0.3-0.3-0.6-0.3-1c0-0.4,0.1-0.7,0.3-1
					c0.2-0.3,0.6-0.4,1-0.4c0.5,0,0.8,0.1,1,0.4c0.2,0.3,0.3,0.6,0.3,1C278.2,134,278.1,134.3,277.9,134.6z M277.3,134.2
					c0.1-0.1,0.2-0.4,0.2-0.6c0-0.3-0.1-0.5-0.2-0.6c-0.1-0.1-0.3-0.2-0.5-0.2c-0.2,0-0.4,0.1-0.5,0.2c-0.1,0.1-0.2,0.3-0.2,0.6
					c0,0.3,0.1,0.5,0.2,0.6c0.1,0.1,0.3,0.2,0.5,0.2C277.1,134.4,277.2,134.4,277.3,134.2z"/>
				<path class="st5" d="M280.9,132.4c0.2,0.1,0.3,0.4,0.3,0.7v1.8h-0.7v-1.6c0-0.1,0-0.2-0.1-0.3c-0.1-0.1-0.2-0.2-0.4-0.2
					c-0.2,0-0.4,0.1-0.5,0.3c0,0.1-0.1,0.2-0.1,0.4v1.4h-0.7v-2.7h0.7v0.4c0.1-0.1,0.2-0.2,0.3-0.3c0.1-0.1,0.3-0.2,0.5-0.2
					C280.5,132.2,280.7,132.3,280.9,132.4z"/>
				<path class="st5" d="M282.5,134.9h-0.7v-3.6h0.7V134.9z"/>
				<path class="st5" d="M283.3,135.4L283.3,135.4c0.2,0,0.2,0,0.3,0c0.1,0,0.1,0,0.2-0.1c0,0,0.1-0.1,0.1-0.2c0-0.1,0.1-0.1,0-0.2
					l-1-2.8h0.8l0.6,2l0.6-2h0.7l-0.9,2.6c-0.2,0.5-0.3,0.8-0.4,0.9c-0.1,0.1-0.3,0.2-0.6,0.2c-0.1,0-0.1,0-0.1,0c0,0-0.1,0-0.2,0
					V135.4z"/>
				<path class="st5" d="M258.4,138.2C258.4,138.2,258.4,138.2,258.4,138.2l0.1,0.7c0,0-0.1,0-0.1,0c0,0-0.1,0-0.1,0
					c-0.3,0-0.5,0.1-0.6,0.3c-0.1,0.1-0.1,0.3-0.1,0.5v1.3h-0.7v-2.7h0.7v0.5c0.1-0.2,0.2-0.3,0.3-0.4
					C258,138.3,258.1,138.2,258.4,138.2C258.4,138.2,258.4,138.2,258.4,138.2z"/>
				<path class="st5" d="M260.6,138.3c0.2,0.1,0.3,0.2,0.5,0.4c0.1,0.2,0.2,0.3,0.2,0.6c0,0.1,0,0.3,0,0.5h-1.9
					c0,0.3,0.1,0.5,0.3,0.6c0.1,0.1,0.2,0.1,0.4,0.1c0.2,0,0.3,0,0.4-0.1c0.1,0,0.1-0.1,0.1-0.2h0.7c0,0.2-0.1,0.3-0.3,0.5
					c-0.2,0.3-0.6,0.4-1,0.4c-0.4,0-0.7-0.1-0.9-0.3c-0.3-0.2-0.4-0.6-0.4-1.1c0-0.5,0.1-0.8,0.4-1.1c0.2-0.2,0.6-0.4,1-0.4
					C260.2,138.2,260.4,138.2,260.6,138.3z M259.5,138.9c-0.1,0.1-0.2,0.2-0.2,0.4h1.2c0-0.2-0.1-0.3-0.2-0.4s-0.2-0.1-0.4-0.1
					C259.8,138.8,259.6,138.8,259.5,138.9z"/>
				<path class="st5" d="M265,138.3c0.1,0,0.2,0.1,0.3,0.2c0.1,0.1,0.1,0.2,0.2,0.3c0,0.1,0,0.2,0,0.4l0,1.7h-0.7v-1.7
					c0-0.1,0-0.2,0-0.2c-0.1-0.1-0.2-0.2-0.3-0.2c-0.2,0-0.3,0.1-0.4,0.2c0,0.1-0.1,0.2-0.1,0.3v1.6h-0.7v-1.6c0-0.2,0-0.3,0-0.3
					c-0.1-0.1-0.2-0.2-0.3-0.2c-0.2,0-0.3,0.1-0.4,0.2c0,0.1-0.1,0.2-0.1,0.3v1.6h-0.7v-2.7h0.7v0.4c0.1-0.1,0.2-0.2,0.2-0.3
					c0.1-0.1,0.3-0.2,0.5-0.2c0.2,0,0.4,0,0.5,0.1c0.1,0.1,0.2,0.2,0.2,0.3c0.1-0.2,0.2-0.3,0.3-0.3c0.1-0.1,0.3-0.1,0.5-0.1
					C264.7,138.2,264.8,138.2,265,138.3z"/>
				<path class="st5" d="M267.8,138.3c0.2,0.1,0.3,0.2,0.5,0.4c0.1,0.2,0.2,0.3,0.2,0.6c0,0.1,0,0.3,0,0.5h-1.9
					c0,0.3,0.1,0.5,0.3,0.6c0.1,0.1,0.2,0.1,0.4,0.1c0.2,0,0.3,0,0.4-0.1c0.1,0,0.1-0.1,0.1-0.2h0.7c0,0.2-0.1,0.3-0.3,0.5
					c-0.2,0.3-0.6,0.4-1,0.4c-0.4,0-0.7-0.1-0.9-0.3c-0.3-0.2-0.4-0.6-0.4-1.1c0-0.5,0.1-0.8,0.4-1.1c0.2-0.2,0.6-0.4,1-0.4
					C267.4,138.2,267.6,138.2,267.8,138.3z M266.8,138.9c-0.1,0.1-0.2,0.2-0.2,0.4h1.2c0-0.2-0.1-0.3-0.2-0.4s-0.2-0.1-0.4-0.1
					C267,138.8,266.9,138.8,266.8,138.9z"/>
				<path class="st5" d="M272.2,138.3c0.1,0,0.2,0.1,0.3,0.2c0.1,0.1,0.1,0.2,0.2,0.3c0,0.1,0,0.2,0,0.4l0,1.7H272v-1.7
					c0-0.1,0-0.2,0-0.2c-0.1-0.1-0.2-0.2-0.3-0.2c-0.2,0-0.3,0.1-0.4,0.2c0,0.1-0.1,0.2-0.1,0.3v1.6h-0.7v-1.6c0-0.2,0-0.3,0-0.3
					c-0.1-0.1-0.2-0.2-0.3-0.2c-0.2,0-0.3,0.1-0.4,0.2c0,0.1-0.1,0.2-0.1,0.3v1.6h-0.7v-2.7h0.7v0.4c0.1-0.1,0.2-0.2,0.2-0.3
					c0.1-0.1,0.3-0.2,0.5-0.2c0.2,0,0.4,0,0.5,0.1c0.1,0.1,0.2,0.2,0.2,0.3c0.1-0.2,0.2-0.3,0.3-0.3c0.1-0.1,0.3-0.1,0.5-0.1
					C272,138.2,272.1,138.2,272.2,138.3z"/>
				<path class="st5" d="M275.6,138.6c0.2,0.3,0.3,0.6,0.3,1c0,0.4-0.1,0.8-0.3,1c-0.2,0.3-0.5,0.4-0.8,0.4c-0.2,0-0.4,0-0.5-0.1
					c-0.1-0.1-0.2-0.1-0.3-0.3v0.3h-0.7v-3.6h0.7v1.3c0.1-0.1,0.2-0.2,0.3-0.3c0.1-0.1,0.3-0.1,0.5-0.1
					C275.1,138.2,275.4,138.3,275.6,138.6z M275,140.2c0.1-0.1,0.2-0.3,0.2-0.6c0-0.2,0-0.3-0.1-0.5c-0.1-0.2-0.3-0.4-0.5-0.4
					c-0.3,0-0.4,0.1-0.5,0.3c0,0.1-0.1,0.3-0.1,0.5c0,0.2,0.1,0.4,0.2,0.6c0.1,0.2,0.3,0.2,0.5,0.2
					C274.8,140.4,274.9,140.3,275,140.2z"/>
				<path class="st5" d="M278.1,138.3c0.2,0.1,0.3,0.2,0.5,0.4c0.1,0.2,0.2,0.3,0.2,0.6c0,0.1,0,0.3,0,0.5h-1.9
					c0,0.3,0.1,0.5,0.3,0.6c0.1,0.1,0.2,0.1,0.4,0.1c0.2,0,0.3,0,0.4-0.1c0.1,0,0.1-0.1,0.1-0.2h0.7c0,0.2-0.1,0.3-0.3,0.5
					c-0.2,0.3-0.6,0.4-1,0.4c-0.4,0-0.7-0.1-0.9-0.3c-0.3-0.2-0.4-0.6-0.4-1.1c0-0.5,0.1-0.8,0.4-1.1c0.2-0.2,0.6-0.4,1-0.4
					C277.7,138.2,277.9,138.2,278.1,138.3z M277.1,138.9c-0.1,0.1-0.2,0.2-0.2,0.4h1.2c0-0.2-0.1-0.3-0.2-0.4s-0.2-0.1-0.4-0.1
					C277.3,138.8,277.2,138.8,277.1,138.9z"/>
				<path class="st5" d="M280.6,138.2C280.6,138.2,280.7,138.2,280.6,138.2l0.1,0.7c0,0-0.1,0-0.1,0c0,0-0.1,0-0.1,0
					c-0.3,0-0.5,0.1-0.6,0.3c-0.1,0.1-0.1,0.3-0.1,0.5v1.3h-0.7v-2.7h0.7v0.5c0.1-0.2,0.2-0.3,0.3-0.4
					C280.2,138.3,280.4,138.2,280.6,138.2C280.6,138.2,280.6,138.2,280.6,138.2z"/>
				<path class="st5" d="M281.6,140.1c0,0.1,0,0.2,0.1,0.3c0.1,0.1,0.2,0.1,0.5,0.1c0.1,0,0.2,0,0.3-0.1c0.1,0,0.1-0.1,0.1-0.2
					c0-0.1,0-0.1-0.1-0.2c-0.1,0-0.3-0.1-0.7-0.2c-0.3-0.1-0.5-0.2-0.6-0.3c-0.1-0.1-0.2-0.3-0.2-0.5c0-0.2,0.1-0.5,0.3-0.6
					c0.2-0.2,0.5-0.3,0.8-0.3c0.3,0,0.6,0.1,0.8,0.2c0.2,0.1,0.3,0.4,0.4,0.7h-0.7c0-0.1,0-0.2-0.1-0.2c-0.1-0.1-0.2-0.1-0.4-0.1
					c-0.2,0-0.3,0-0.3,0.1c-0.1,0-0.1,0.1-0.1,0.2c0,0.1,0,0.1,0.1,0.2c0.1,0,0.3,0.1,0.7,0.2c0.3,0.1,0.5,0.2,0.6,0.3
					c0.1,0.1,0.2,0.3,0.2,0.5c0,0.3-0.1,0.5-0.3,0.6c-0.2,0.2-0.5,0.3-0.9,0.3c-0.4,0-0.7-0.1-0.9-0.3c-0.2-0.2-0.3-0.4-0.3-0.7
					H281.6z"/>
				<path class="st5" d="M285,138.8v-0.5h0.4v-0.7h0.7v0.7h0.4v0.5h-0.4v1.4c0,0.1,0,0.2,0,0.2c0,0,0.1,0,0.3,0c0,0,0,0,0.1,0
					c0,0,0,0,0.1,0v0.5l-0.3,0c-0.3,0-0.6,0-0.7-0.2c-0.1-0.1-0.1-0.2-0.1-0.4v-1.6H285z"/>
				<path class="st5" d="M289.2,140.6c-0.2,0.3-0.6,0.4-1,0.4c-0.5,0-0.8-0.1-1-0.4c-0.2-0.3-0.3-0.6-0.3-1c0-0.4,0.1-0.7,0.3-1
					c0.2-0.3,0.6-0.4,1-0.4c0.5,0,0.8,0.1,1,0.4c0.2,0.3,0.3,0.6,0.3,1C289.5,140,289.4,140.3,289.2,140.6z M288.6,140.2
					c0.1-0.1,0.2-0.4,0.2-0.6c0-0.3-0.1-0.5-0.2-0.6c-0.1-0.1-0.3-0.2-0.5-0.2c-0.2,0-0.4,0.1-0.5,0.2c-0.1,0.1-0.2,0.3-0.2,0.6
					c0,0.3,0.1,0.5,0.2,0.6c0.1,0.1,0.3,0.2,0.5,0.2C288.3,140.4,288.5,140.4,288.6,140.2z"/>
				<path class="st5" d="M254.1,144.8v-0.5h0.4v-0.7h0.7v0.7h0.4v0.5h-0.4v1.4c0,0.1,0,0.2,0,0.2c0,0,0.1,0,0.3,0c0,0,0,0,0.1,0
					c0,0,0,0,0.1,0v0.5l-0.3,0c-0.3,0-0.6,0-0.7-0.2c-0.1-0.1-0.1-0.2-0.1-0.4v-1.6H254.1z"/>
				<path class="st5" d="M256.8,144.3v1.6c0,0.2,0,0.3,0.1,0.3c0.1,0.1,0.2,0.2,0.4,0.2c0.2,0,0.4-0.1,0.5-0.3
					c0-0.1,0.1-0.2,0.1-0.4v-1.4h0.7v2.7h-0.7v-0.4c0,0,0,0,0,0.1c0,0-0.1,0.1-0.1,0.1c-0.1,0.1-0.2,0.2-0.3,0.2
					c-0.1,0-0.2,0.1-0.4,0.1c-0.4,0-0.7-0.1-0.8-0.4c-0.1-0.2-0.1-0.4-0.1-0.7v-1.6H256.8z"/>
				<path class="st5" d="M260.6,144.2C260.6,144.2,260.6,144.2,260.6,144.2l0.1,0.7c0,0-0.1,0-0.1,0c0,0-0.1,0-0.1,0
					c-0.3,0-0.5,0.1-0.6,0.3c-0.1,0.1-0.1,0.3-0.1,0.5v1.3h-0.7v-2.7h0.7v0.5c0.1-0.2,0.2-0.3,0.3-0.4
					C260.2,144.3,260.4,144.2,260.6,144.2C260.6,144.2,260.6,144.2,260.6,144.2z"/>
				<path class="st5" d="M263.2,144.4c0.2,0.1,0.3,0.4,0.3,0.7v1.8h-0.7v-1.6c0-0.1,0-0.2-0.1-0.3c-0.1-0.1-0.2-0.2-0.4-0.2
					c-0.2,0-0.4,0.1-0.5,0.3c0,0.1-0.1,0.2-0.1,0.4v1.4h-0.7v-2.7h0.7v0.4c0.1-0.1,0.2-0.2,0.3-0.3c0.1-0.1,0.3-0.2,0.5-0.2
					C262.8,144.2,263.1,144.3,263.2,144.4z"/>
				<path class="st5" d="M267.7,146.6c-0.2,0.3-0.6,0.4-1,0.4c-0.5,0-0.8-0.1-1-0.4c-0.2-0.3-0.3-0.6-0.3-1c0-0.4,0.1-0.7,0.3-1
					c0.2-0.3,0.6-0.4,1-0.4c0.5,0,0.8,0.1,1,0.4c0.2,0.3,0.3,0.6,0.3,1C268.1,146,268,146.3,267.7,146.6z M267.2,146.2
					c0.1-0.1,0.2-0.4,0.2-0.6c0-0.3-0.1-0.5-0.2-0.6c-0.1-0.1-0.3-0.2-0.5-0.2c-0.2,0-0.4,0.1-0.5,0.2c-0.1,0.1-0.2,0.3-0.2,0.6
					c0,0.3,0.1,0.5,0.2,0.6c0.1,0.1,0.3,0.2,0.5,0.2C266.9,146.4,267.1,146.4,267.2,146.2z"/>
				<path class="st5" d="M270.7,144.4c0.2,0.1,0.3,0.4,0.3,0.7v1.8h-0.7v-1.6c0-0.1,0-0.2-0.1-0.3c-0.1-0.1-0.2-0.2-0.4-0.2
					c-0.2,0-0.4,0.1-0.5,0.3c0,0.1-0.1,0.2-0.1,0.4v1.4h-0.7v-2.7h0.7v0.4c0.1-0.1,0.2-0.2,0.3-0.3c0.1-0.1,0.3-0.2,0.5-0.2
					C270.3,144.2,270.6,144.3,270.7,144.4z"/>
				<path class="st5" d="M272.8,144.8v-0.5h0.4v-0.7h0.7v0.7h0.4v0.5h-0.4v1.4c0,0.1,0,0.2,0,0.2c0,0,0.1,0,0.3,0c0,0,0,0,0.1,0
					s0,0,0.1,0v0.5l-0.3,0c-0.3,0-0.6,0-0.7-0.2c-0.1-0.1-0.1-0.2-0.1-0.4v-1.6H272.8z"/>
				<path class="st5" d="M276.6,144.3c0.1,0.1,0.2,0.1,0.3,0.3c0.1,0.1,0.1,0.2,0.1,0.3c0,0.1,0,0.3,0,0.5v1.6h-0.7v-1.6
					c0-0.1,0-0.3-0.1-0.3c-0.1-0.1-0.2-0.2-0.4-0.2c-0.2,0-0.3,0.1-0.4,0.2c-0.1,0.1-0.1,0.3-0.1,0.5v1.4h-0.7v-3.6h0.7v1.3
					c0.1-0.2,0.2-0.3,0.3-0.3c0.1-0.1,0.3-0.1,0.4-0.1C276.3,144.2,276.5,144.2,276.6,144.3z"/>
				<path class="st5" d="M279.5,144.3c0.2,0.1,0.3,0.2,0.5,0.4c0.1,0.2,0.2,0.3,0.2,0.6c0,0.1,0,0.3,0,0.5h-1.9
					c0,0.3,0.1,0.5,0.3,0.6c0.1,0.1,0.2,0.1,0.4,0.1c0.2,0,0.3,0,0.4-0.1c0.1,0,0.1-0.1,0.1-0.2h0.7c0,0.2-0.1,0.3-0.3,0.5
					c-0.2,0.3-0.6,0.4-1,0.4c-0.4,0-0.7-0.1-0.9-0.3c-0.3-0.2-0.4-0.6-0.4-1.1c0-0.5,0.1-0.8,0.4-1.1c0.2-0.2,0.6-0.4,1-0.4
					C279.1,144.2,279.3,144.2,279.5,144.3z M278.5,144.9c-0.1,0.1-0.2,0.2-0.2,0.4h1.2c0-0.2-0.1-0.3-0.2-0.4
					c-0.1-0.1-0.2-0.1-0.4-0.1C278.7,144.8,278.6,144.8,278.5,144.9z"/>
				<path class="st5" d="M282.6,146.9H282v-3.6h0.7V146.9z"/>
				<path class="st5" d="M284,143.9h-0.7v-0.6h0.7V143.9z M283.3,144.3h0.7v2.7h-0.7V144.3z"/>
				<path class="st5" d="M286,144.3c0.2,0.1,0.3,0.2,0.4,0.4v-0.4h0.7v2.5c0,0.3-0.1,0.6-0.2,0.8c-0.2,0.3-0.6,0.4-1.1,0.4
					c-0.3,0-0.6-0.1-0.8-0.2c-0.2-0.1-0.3-0.3-0.4-0.6h0.8c0,0.1,0.1,0.1,0.1,0.2c0.1,0.1,0.2,0.1,0.4,0.1c0.3,0,0.4-0.1,0.5-0.3
					c0.1-0.1,0.1-0.3,0.1-0.5v-0.2c-0.1,0.1-0.1,0.2-0.2,0.3c-0.1,0.1-0.3,0.2-0.5,0.2c-0.3,0-0.6-0.1-0.8-0.4
					c-0.2-0.2-0.3-0.6-0.3-1c0-0.4,0.1-0.7,0.3-1c0.2-0.3,0.5-0.4,0.8-0.4C285.8,144.2,285.9,144.2,286,144.3z M286.3,146.2
					c0.1-0.1,0.2-0.3,0.2-0.6c0-0.3-0.1-0.4-0.2-0.6c-0.1-0.1-0.2-0.2-0.4-0.2c-0.2,0-0.4,0.1-0.5,0.3c0,0.1-0.1,0.3-0.1,0.5
					c0,0.2,0,0.3,0.1,0.4c0.1,0.2,0.3,0.3,0.5,0.3C286,146.4,286.2,146.3,286.3,146.2z"/>
				<path class="st5" d="M289.7,144.3c0.1,0.1,0.2,0.1,0.3,0.3c0.1,0.1,0.1,0.2,0.1,0.3c0,0.1,0,0.3,0,0.5v1.6h-0.7v-1.6
					c0-0.1,0-0.3-0.1-0.3c-0.1-0.1-0.2-0.2-0.4-0.2c-0.2,0-0.3,0.1-0.4,0.2c-0.1,0.1-0.1,0.3-0.1,0.5v1.4h-0.7v-3.6h0.7v1.3
					c0.1-0.2,0.2-0.3,0.3-0.3c0.1-0.1,0.3-0.1,0.4-0.1C289.4,144.2,289.6,144.2,289.7,144.3z"/>
				<path class="st5" d="M290.6,144.8v-0.5h0.4v-0.7h0.7v0.7h0.4v0.5h-0.4v1.4c0,0.1,0,0.2,0,0.2c0,0,0.1,0,0.3,0c0,0,0,0,0.1,0
					c0,0,0,0,0.1,0v0.5l-0.3,0c-0.3,0-0.6,0-0.7-0.2c-0.1-0.1-0.1-0.2-0.1-0.4v-1.6H290.6z"/>
				<path class="st5" d="M292.5,146.2h0.7v0.7h-0.7V146.2z"/>
			</g>
		</g>
	</g>
	<g>
		<g id="XMLID_50_">
			<path class="st6" d="M664.7,373.9h-69.8v-37.7c0-5.9,4.8-10.7,10.7-10.7h48.4c5.9,0,10.7,4.8,10.7,10.7V373.9z"/>
		</g>
		<g id="XMLID_49_">
			<path class="st6" d="M659.5,336.4c0.8,4.4-11.8,10-12.9,10.5c-11.6,5.1-22.7,1.9-25.7,1.1c-0.6-0.2-1.3-0.4-2.2-0.7
				c-8.3-3-17.9-9.4-17.4-12.5C602.8,327.5,657.9,327.5,659.5,336.4z"/>
		</g>
		<g id="XMLID_46_">
			<g id="XMLID_48_">
				<path class="st6" d="M589.5,309.7c0,0,0-32,0-35.9c0-5.5,6.6,2.4,17.7,13.7L589.5,309.7z"/>
			</g>
			<g id="XMLID_47_">
				<path class="st6" d="M670.9,309.7c0,0,0-32,0-35.9c0-5.5-6.6,2.4-17.7,13.7L670.9,309.7z"/>
			</g>
		</g>
		<g id="XMLID_45_">
			<path class="st6" d="M670.9,309.7c0,16-11.5,29.7-24.5,35c-13.1,5.3-24.9,1.4-28,0.4c-13.2-4.5-28.9-17.8-28.9-35.4
				c0-17.6,18.2-31.8,40.7-31.8S670.9,292.1,670.9,309.7z"/>
		</g>
		<g id="XMLID_44_">
			<path class="st7" d="M639,314.6c0,1-3.6,5.4-8.1,5.4s-8.1-4.4-8.1-5.4c0-1,3.6-1.8,8.1-1.8S639,313.6,639,314.6z"/>
		</g>
		<g id="XMLID_43_">
			<path class="st8" d="M637.9,327.6c-3.3,0-6.1-2.2-7.1-5.1c-1,3-3.8,5.1-7.1,5.1c-2.3,0-4.4-1-5.8-2.8c-0.1-0.2-0.1-0.4,0.1-0.5
				c0.2-0.1,0.4-0.1,0.5,0.1c1.3,1.6,3.2,2.5,5.3,2.5c3.7,0,6.8-3,6.8-6.8c0-0.2,0.2-0.4,0.4-0.4c0.2,0,0.4,0.2,0.4,0.4
				c0,3.7,3,6.8,6.8,6.8c2.1,0,4-0.9,5.3-2.5c0.1-0.2,0.4-0.2,0.5-0.1c0.2,0.1,0.2,0.4,0.1,0.5C642.4,326.6,640.2,327.6,637.9,327.6
				z"/>
		</g>
		<g id="XMLID_34_">
			<g id="XMLID_39_">
				<g id="XMLID_42_">
					<path class="st8" d="M586.3,326.5c-0.4,0-0.7-0.3-0.8-0.6c-0.1-0.4,0.2-0.8,0.6-0.9l31.9-5c0.4-0.1,0.8,0.2,0.9,0.6
						c0.1,0.4-0.2,0.8-0.6,0.9l-31.9,5C586.3,326.5,586.3,326.5,586.3,326.5z"/>
				</g>
				<g id="XMLID_41_">
					<path class="st8" d="M618.1,318.6c0,0-0.1,0-0.1,0l-31.9-5c-0.4-0.1-0.7-0.5-0.6-0.9c0.1-0.4,0.5-0.7,0.9-0.6l31.9,5
						c0.4,0.1,0.7,0.5,0.6,0.9C618.8,318.3,618.5,318.6,618.1,318.6z"/>
				</g>
				<g id="XMLID_40_">
					<path class="st8" d="M618.1,320h-33.9c-0.4,0-0.8-0.3-0.8-0.8s0.3-0.8,0.8-0.8h33.9c0.4,0,0.8,0.3,0.8,0.8S618.6,320,618.1,320
						z"/>
				</g>
			</g>
			<g id="XMLID_35_">
				<g id="XMLID_38_">
					<path class="st8" d="M673,326.5c0,0-0.1,0-0.1,0l-31.9-5c-0.4-0.1-0.7-0.5-0.6-0.9c0.1-0.4,0.5-0.7,0.9-0.6l31.9,5
						c0.4,0.1,0.7,0.5,0.6,0.9C673.7,326.2,673.4,326.5,673,326.5z"/>
				</g>
				<g id="XMLID_37_">
					<path class="st8" d="M641.1,318.6c-0.4,0-0.7-0.3-0.8-0.6c-0.1-0.4,0.2-0.8,0.6-0.9l31.9-5c0.4-0.1,0.8,0.2,0.9,0.6
						c0.1,0.4-0.2,0.8-0.6,0.9l-31.9,5C641.2,318.6,641.2,318.6,641.1,318.6z"/>
				</g>
				<g id="XMLID_36_">
					<path class="st8" d="M675.1,320h-33.9c-0.4,0-0.8-0.3-0.8-0.8s0.3-0.8,0.8-0.8h33.9c0.4,0,0.8,0.3,0.8,0.8S675.5,320,675.1,320
						z"/>
				</g>
			</g>
		</g>
		<g>
			<defs>
				<path id="SVGID_1_" d="M670.9,309.7c0,16-11.5,29.7-24.5,35c-13.1,5.3-24.9,1.4-28,0.4c-13.2-4.5-28.9-17.8-28.9-35.4
					c0-17.6,18.2-31.8,40.7-31.8S670.9,292.1,670.9,309.7z"/>
			</defs>
			<clipPath id="SVGID_2_">
				<use xlink:href="#SVGID_1_"  style="overflow:visible;"/>
			</clipPath>
			<g id="XMLID_30_" class="st9">
				<g id="XMLID_33_">
					<path class="st6" d="M619.9,294L619.9,294c1.2,0,2.2-1,2.2-2.2v-14.7h-4.5v14.7C617.7,293,618.7,294,619.9,294z"/>
				</g>
				<g id="XMLID_32_">
					<path class="st6" d="M641.9,294L641.9,294c1.2,0,2.2-1,2.2-2.2v-14.7h-4.5v14.7C639.7,293,640.7,294,641.9,294z"/>
				</g>
				<g id="XMLID_31_">
					<path class="st6" d="M631.1,290.8c1.2,0,2.2-1,2.2-2.2v-11.5h-4.5v11.5C628.9,289.8,629.9,290.8,631.1,290.8z"/>
				</g>
			</g>
		</g>
	</g>
	<g>
		<path class="st10" d="M467.5,271c0,31.7-24.4,57.4-54.5,57.4l0,0c-30.1,0-54.5-25.7-54.5-57.4v-97.6c0-31.7,24.4-57.4,54.5-57.4
			l0,0c30.1,0,54.5,25.7,54.5,57.4V271z"/>
	</g>
	<g>
		<path d="M412.2,215.8"/>
	</g>
	<g>
		<polygon class="st11" points="401.8,218.6 421.8,218.3 423.4,243.3 400.6,243.3 		"/>
	</g>
	<g>
		<path class="st12" d="M455,182.9c0,26.3-27.2,47.7-42.8,47.7c-16.5,0-42.8-21.3-42.8-47.7c0-26.3,19.1-57,42.8-57
			C435.9,125.9,455,156.6,455,182.9z"/>
	</g>
	<g>
		<path class="st13" d="M416,208.5c-1,0-3.4,2.1-3.4,2.1l-0.9-0.9c-0.7-0.6-1.5-1.3-2.6-1.3c-2.2,0-6.3,2.9-6.3,2.9
			c3.4,4.2,7,5.3,9.8,5.3c2.8,0,6.7-0.5,9.8-5.3C422.3,211.4,418.2,208.4,416,208.5z"/>
	</g>
	<g>
		<path class="st10" d="M369.8,189.5c0,0,43.3-25,47.1-56.4c0-19.9-21.6-8.2-21.6-8.2l-31.2,24.4L369.8,189.5z"/>
	</g>
	<g>
		<path class="st10" d="M456.4,189.5c0,0-42.2-25-45.9-56.4c0-19.9,21.1-8.2,21.1-8.2l30.4,24.4L456.4,189.5z"/>
	</g>
	<g>
		<g>
			<g>
				<path class="st14" d="M559.8,331.3h-31.3c-0.2,0-0.4,0.2-0.4,0.4v30.5c0,2.7,2.2,4.9,4.9,4.9h22.2c2.7,0,4.9-2.2,4.9-4.9v-30.5
					C560.2,331.5,560,331.3,559.8,331.3z"/>
			</g>
			<g>
				<path class="st14" d="M555.6,363.2c6.8-3.8,18.5-15.2,16.5-23.1c-0.5-2.1-1.8-3.7-3.8-4.6c-4.5-2.1-11,0.4-11.7,0.7l2.1,4.5
					c1.6-0.6,5.4-1.7,7.1-0.8c0.4,0.2,0.8,0.5,1,1.3c1.1,4.6-8,14.4-14.1,17.9L555.6,363.2z"/>
			</g>
		</g>
		<g>
			<path class="st15" d="M547.3,324.1c0.1,0.2,0.1-0.1,0.2-0.3l0.2-0.7c0.1-0.5,0.2-1,0.3-1.6c0.1-1.1,0.2-2.2,0.2-3.3
				c-0.1-2.3-0.6-4.6-1.5-6.8c-0.9-2.2-2.2-4-3.7-5.4c-0.7-0.7-1.5-1.3-2.3-1.9l-1.9-1.3c-2.2-1.6-4.2-3.5-5.6-5.5
				c-0.7-1-1.2-2.1-1.4-2.9c-0.2-0.9-0.2-1.4-0.1-1.8c0.1-0.2,0.1-0.4,0.2-0.6c0.2-0.3,0.3-0.8,0.6-1.2c0.4-0.9,1.2-1.6,1.8-2.3
				c1.4-1.4,3.1-2.3,4.8-2.5c1.7-0.3,3.5,0.1,5.3,1c0.9,0.5,1.8,1,2.7,1.7c0.4,0.4,0.9,0.7,1.3,1.1c0.4,0.4,0.9,0.8,1.5,0.9l1.8,0.3
				c3.9,0.7,7.5-2.9,8-8c0.3-2.8-0.4-5.5-1.7-7.5c-0.6-0.9-1.4-1.5-2.1-2.1c-0.7-0.6-1.6-1.1-2.4-1.6c-1.6-1-3.4-1.8-5.2-2.4
				c-3.7-1.2-7.7-1.4-11.6-0.1c-3.8,1.2-7.4,3.8-10.2,7.4c-1.4,1.9-2.7,3.9-3.6,6.3c-0.5,1.2-0.9,2.5-1.3,3.9
				c-0.4,1.5-0.6,3.2-0.6,4.9c-0.1,3.4,0.7,6.6,1.9,9c1.1,2.5,2.5,4.3,4,5.8c2.9,3,5.9,4.8,8.9,6.1l1.1,0.5l0.5,0.2l0.4,0.1
				c0.5,0.2,1.1,0.4,1.5,0.6c1,0.5,1.9,1.1,2.6,2c0.8,0.8,1.5,2,2.1,3.3c0.3,0.7,0.6,1.4,0.8,2.3c0.1,0.4,0.2,0.8,0.3,1.3l0.2,0.7
				c0.1,0.3,0.1,0.4,0.2,1.1c0.2,0.7,0.7,1,1.2,0.8C547.2,325.5,547.4,324.8,547.3,324.1z"/>
		</g>
	</g>
	<g>
		<path class="st16" d="M475.9,299.9l-124.1-2.1v-13.2c0-21.6,26.5-41.7,52.6-41.7h19.6c23.1,0,52,20.2,52,39.4V299.9z"/>
	</g>
	<g>
		<path class="st11" d="M398.5,242.7c0,0,1.1,8.1,13.7,8.1c12.6,0,13.7-8.1,13.7-8.1H398.5z"/>
	</g>
	<g>
		<path class="st14" d="M507.8,367.2h-190c-1.2,0-2.1-0.9-2.1-2.1v-9.5c0-1.2,0.9-2.1,2.1-2.1h190c1.2,0,2.1,0.9,2.1,2.1v9.5
			C510,366.2,509,367.2,507.8,367.2z"/>
	</g>
	<g>
		<path class="st17" d="M486.3,367.2H338.3c-5,0-9.1-4.1-9.1-9.1v-84.6c0-5,4.1-9.1,9.1-9.1h147.9c5,0,9.1,4.1,9.1,9.1v84.6
			C495.3,363.1,491.3,367.2,486.3,367.2z"/>
	</g>
	<g>
		<path class="st5" d="M410.2,326.5c-6.4,0-11.6-5.2-11.6-11.6s5.2-11.6,11.6-11.6s11.6,5.2,11.6,11.6S416.6,326.5,410.2,326.5z"/>
	</g>
	<g>
		<g>
			
				<ellipse transform="matrix(0.4004 -0.9163 0.9163 0.4004 -137.8044 282.259)" class="st4" cx="146.8" cy="246.4" rx="7.4" ry="7.4"/>
		</g>
		<g>
			<path class="st18" d="M136.4,272.4c-11.8-7.3-16.7-22.3-11-35.3c5.7-13.1,20.1-19.6,33.4-15.9L136.4,272.4z"/>
		</g>
		<g>
			
				<rect x="116.1" y="224.6" transform="matrix(0.4004 -0.9163 0.9163 0.4004 -142.4516 254.7592)" class="st18" width="14.7" height="23.4"/>
		</g>
		<g>
			<polygon class="st18" points="101.6,362.8 91.8,304.3 116.4,237.8 117.8,238.3 93.4,304.5 103.1,362.6 			"/>
		</g>
		<g>
			<polygon class="st18" points="105.9,362.8 96.2,304.3 120.7,237.8 122.2,238.3 97.7,304.5 107.4,362.6 			"/>
		</g>
		<g>
			<path class="st19" d="M85.6,367v-6.5c0-1.6,1.3-2.9,2.9-2.9h29.8c1.6,0,2.9,1.3,2.9,2.9v6.5H85.6z"/>
		</g>
		<g>
			
				<ellipse transform="matrix(0.4004 -0.9163 0.9163 0.4004 -221.013 271.0437)" class="st20" cx="96.6" cy="304.4" rx="7.4" ry="7.4"/>
		</g>
		<g>
			
				<ellipse transform="matrix(0.4005 -0.9163 0.9163 0.4005 -221.009 271.0041)" class="st21" cx="96.6" cy="304.4" rx="5.7" ry="5.7"/>
		</g>
	</g>
	<g>
		<g>
			<path class="st22" d="M719,389.7c0,2-2,3.7-4.5,3.7h-629c-2.5,0-4.5-1.6-4.5-3.7v-19.4c0-2,2-3.7,4.5-3.7h629
				c2.5,0,4.5,1.6,4.5,3.7V389.7z"/>
		</g>
	</g>
	<g>
		<g id="XMLID_28_">
			<path class="st23" d="M594.3,347.6L594.3,347.6c-6.2,0-11.2,5-11.2,11.2v7.5c0,2.1,1.7,3.7,3.7,3.7s3.7-1.7,3.7-3.7
				c0,2.1,1.7,3.7,3.7,3.7c2.1,0,3.7-1.7,3.7-3.7c0,2.1,1.7,3.7,3.7,3.7c2.1,0,3.7-1.7,3.7-3.7v-7.5
				C605.5,352.6,600.5,347.6,594.3,347.6z"/>
		</g>
		<g id="XMLID_27_">
			<path class="st23" d="M666.1,347.6L666.1,347.6c-6.2,0-11.2,5-11.2,11.2v7.5c0,2.1,1.7,3.7,3.7,3.7c2.1,0,3.7-1.7,3.7-3.7
				c0,2.1,1.7,3.7,3.7,3.7c2.1,0,3.7-1.7,3.7-3.7c0,2.1,1.7,3.7,3.7,3.7c2.1,0,3.7-1.7,3.7-3.7v-7.5
				C677.3,352.6,672.3,347.6,666.1,347.6z"/>
		</g>
	</g>
	<g>
		<g>
			<g>
				<g>
					<g>
						<g>
							<path class="st24" d="M201.8,365.4h-61.5c1.1-0.5,1.9-2,1.9-3.8c0-2.2-1.2-4-2.8-4h63.1c-1.5,0-2.8,1.8-2.8,4
								C199.9,363.4,200.7,364.9,201.8,365.4z"/>
						</g>
					</g>
				</g>
				<g>
					<g>
						<g>
							<path class="st18" d="M203.8,357.6c0,0.6-0.5,1.2-1.2,1.2h-63.1c-0.6,0-1.2-0.5-1.2-1.2l0,0c0-0.6,0.5-1.2,1.2-1.2h63.1
								C203.3,356.4,203.8,356.9,203.8,357.6L203.8,357.6z"/>
						</g>
					</g>
				</g>
				<g>
					<g>
						<g>
							<path class="st18" d="M203.8,365.4c0,0.7-0.5,1.2-1.2,1.2h-63.1c-0.6,0-1.2-0.5-1.2-1.2l0,0c0-0.6,0.5-1.2,1.2-1.2h63.1
								C203.3,364.2,203.8,364.7,203.8,365.4L203.8,365.4z"/>
						</g>
					</g>
				</g>
			</g>
			<g>
				<g>
					<g>
						<g>
							<path class="st24" d="M191.6,347.4h-53.9c1-0.4,1.7-1.8,1.7-3.3c0-1.9-1.1-3.5-2.4-3.5h55.4c-1.3,0-2.4,1.6-2.4,3.5
								C189.9,345.6,190.6,346.9,191.6,347.4z"/>
						</g>
					</g>
				</g>
				<g>
					<g>
						<g>
							<path class="st25" d="M193.4,340.6c0,0.6-0.5,1-1,1H137c-0.6,0-1-0.5-1-1l0,0c0-0.6,0.5-1,1-1h55.4
								C192.9,339.5,193.4,340,193.4,340.6L193.4,340.6z"/>
						</g>
					</g>
				</g>
				<g>
					<g>
						<g>
							<path class="st25" d="M193.4,347.4c0,0.6-0.5,1-1,1H137c-0.6,0-1-0.5-1-1l0,0c0-0.6,0.5-1,1-1h55.4
								C192.9,346.4,193.4,346.8,193.4,347.4L193.4,347.4z"/>
						</g>
					</g>
				</g>
			</g>
			<g>
				<g>
					<g>
						<path class="st22" d="M201.7,356.4h-69.6c-0.7,0-1.3-0.6-1.3-1.3v-5.9c0-0.7,0.6-1.3,1.3-1.3h69.6c0.7,0,1.3,0.6,1.3,1.3v5.9
							C203,355.8,202.4,356.4,201.7,356.4z"/>
					</g>
				</g>
			</g>
		</g>
		<g>
			<g>
				<path class="st25" d="M185.7,305.5h-4.1l-4.5-5.7h-14.3l-4.5,5.7h-14.8c-1.7,0-3.2,1.4-3.2,3.2v27.6c0,1.7,1.4,3.2,3.2,3.2h42.2
					c1.7,0,3.2-1.4,3.2-3.2v-27.6C188.8,306.9,187.4,305.5,185.7,305.5z"/>
			</g>
			<g>
				<circle class="st5" cx="169.9" cy="322.4" r="11.3"/>
			</g>
			<g>
				<circle class="st25" cx="169.9" cy="322.4" r="9.8"/>
			</g>
			<g>
				<circle class="st22" cx="169.9" cy="322.4" r="7.3"/>
			</g>
			<g>
				<path class="st22" d="M144.6,307.6c-1.2,0-2.3-0.7-2.8-1.7c-0.9,0.6-1.5,1.5-1.5,2.7v27.6c0,1.7,1.4,3.2,3.2,3.2h8.8v-31.8
					H144.6z"/>
			</g>
			<g>
				<path class="st14" d="M152,306.3h-7.3c-0.2,0-0.4-0.2-0.4-0.4v-1.6c0-0.2,0.2-0.4,0.4-0.4h7.3c0.2,0,0.4,0.2,0.4,0.4v1.6
					C152.3,306.2,152.1,306.3,152,306.3z"/>
			</g>
			<g>
				<path class="st5" d="M176.1,304.6h-12.6c-0.3,0-0.6-0.3-0.6-0.6v-2.6c0-0.3,0.3-0.6,0.6-0.6h12.6c0.3,0,0.6,0.3,0.6,0.6v2.6
					C176.7,304.4,176.4,304.6,176.1,304.6z"/>
			</g>
		</g>
	</g>
	<g>
		<g>
			<g>
				<g>
					<g>
						<path class="st26" d="M253,310.3h-2.8c-0.3,0-0.6-0.3-0.6-0.6v-2.8c0-0.3,0.3-0.6,0.6-0.6h2.8c0.3,0,0.6,0.3,0.6,0.6v2.8
							C253.6,310,253.3,310.3,253,310.3z"/>
					</g>
				</g>
			</g>
			<g>
				<g>
					<g>
						<polygon class="st27" points="253.6,342 252.5,344 251.6,345.7 250.7,344 249.5,342 						"/>
					</g>
				</g>
			</g>
			<g>
				<g>
					<g>
						<rect x="249.5" y="308.5" class="st28" width="4.1" height="33.5"/>
					</g>
				</g>
			</g>
			<g>
				<g>
					<g>
						<polygon class="st29" points="252.5,344 251.6,345.7 250.7,344 						"/>
					</g>
				</g>
			</g>
			<g>
				<g>
					<g>
						<rect x="249.5" y="308.5" class="st30" width="1.1" height="33.5"/>
					</g>
				</g>
			</g>
			<g>
				<g>
					<g>
						<rect x="252.5" y="308.5" class="st31" width="1.1" height="33.5"/>
					</g>
				</g>
			</g>
			<g>
				<g>
					<g>
						<path class="st32" d="M253.9,308.5c0,0.3-0.2,0.5-0.5,0.5h-3.6c-0.3,0-0.5-0.2-0.5-0.5l0,0c0-0.3,0.2-0.5,0.5-0.5h3.6
							C253.7,308,253.9,308.2,253.9,308.5L253.9,308.5z"/>
					</g>
				</g>
			</g>
		</g>
		<g>
			<g>
				<g>
					<g>
						<g>
							<path class="st33" d="M225,323.8l7,5.9c1.1,0.9,2.6,1,3.8,0.4c0.3-0.2,0.6-0.4,0.9-0.7l0.9-1.1l7.7,5l4.4,3.9l8.1,7.3
								c0.4,0.5,1.1,0.5,1.6,0.2c0.1-0.1,0.2-0.1,0.3-0.2c0.5-0.5,0.5-1.4,0-1.9l-11.1-11.1l0,0l-4.9-4.9l-4.6-4.6l0,0c0,0,0,0,0,0
								c0,0-0.1-0.1-0.1-0.1l-7-5.9c-1-0.9-2.6-1-3.7-0.4c-0.3,0.2-0.6,0.4-0.9,0.7l-2.5,2.9c-0.6,0.7-0.8,1.5-0.8,2.4
								C223.9,322.4,224.4,323.2,225,323.8z M226.1,321.4c0-0.3,0.1-0.6,0.3-0.8l2.5-2.9c0.4-0.5,1.1-0.5,1.6-0.1l6.3,5.4l0.6,0.6
								c0.2,0.2,0.4,0.5,0.4,0.7c0,0.3-0.1,0.6-0.2,0.8l-0.6,0.6l-1.9,2.3c-0.1,0.1-0.2,0.2-0.3,0.2c-0.4,0.2-0.9,0.2-1.2-0.1
								l-7-5.9C226.2,321.9,226.1,321.7,226.1,321.4z"/>
						</g>
					</g>
				</g>
			</g>
			<g>
				<g>
					<g>
						<g>
							<path class="st34" d="M248,351c0.1,0,0.2-0.1,0.4-0.1c0.5-0.3,0.8-0.9,0.6-1.5l-2.1-10.7l-1.1-5.8l-0.3-9.1l1.4-0.2
								c0.4-0.1,0.7-0.2,1.1-0.4c1.2-0.7,1.9-2,1.6-3.4l-1.5-9c-0.1-0.9-0.6-1.6-1.3-2.1c-0.7-0.5-1.6-0.7-2.4-0.6l-3.8,0.6
								c-0.4,0.1-0.8,0.2-1.1,0.4c-1.2,0.7-1.8,2-1.6,3.4l1.5,9c0,0.2,0.1,0.5,0.2,0.7l1.4,5.8l1.7,6.7l3.8,15.2
								C246.6,350.7,247.3,351.2,248,351z M240,312.2c-0.1-0.6,0.3-1.2,0.9-1.3l3.8-0.6c0.3-0.1,0.6,0,0.8,0.2
								c0.2,0.2,0.4,0.4,0.4,0.7l1.5,9c0.1,0.5-0.1,0.9-0.5,1.1c-0.1,0.1-0.2,0.1-0.4,0.1l-2.9,0.5l-0.9,0.2c-0.3,0-0.6,0-0.8-0.2
								c-0.2-0.2-0.4-0.4-0.4-0.7l-0.2-1L240,312.2z"/>
						</g>
					</g>
				</g>
			</g>
			<g>
				<g>
					<g>
						<g>
							
								<ellipse transform="matrix(0.8705 -0.4922 0.4922 0.8705 -130.6507 162.4761)" class="st35" cx="243.4" cy="329.5" rx="1.3" ry="1.3"/>
						</g>
					</g>
				</g>
			</g>
			<g>
				<g>
					<g>
						<g>
							
								<ellipse transform="matrix(0.8706 -0.4919 0.4919 0.8706 -130.5962 162.3603)" class="st36" cx="243.4" cy="329.5" rx="0.7" ry="0.7"/>
						</g>
					</g>
				</g>
			</g>
			<g>
				<g>
					<g>
						<g>
							<path class="st5" d="M246.1,345.8c-0.1-0.2,0.1-0.5,0.3-0.5l0,0c0.2-0.1,0.5,0.1,0.5,0.3l1,3.5c0.1,0.2-0.1,0.5-0.3,0.5l0,0
								c-0.2,0.1-0.5-0.1-0.5-0.3L246.1,345.8z"/>
						</g>
					</g>
				</g>
			</g>
		</g>
		<g>
			<g>
				<g>
					<g>
						<g>
							<g>
								<g>
									<g>
										<path class="st34" d="M262.4,330.8c-0.1,0-0.1,0-0.2-0.1c-0.1-0.1-2.6-1.5-2.1-4.9c0.1-0.9,0.7-2,1.4-3.1
											c0.8-1.4,1.7-2.9,1.7-4.1c0-1.8-1.2-2.1-1.3-2.1c-0.3-0.1-0.6-0.4-0.5-0.8c0.1-0.3,0.4-0.6,0.7-0.5c0.8,0.1,2.4,1,2.4,3.4
											c0,1.6-1,3.3-1.8,4.8c-0.6,1-1.2,2-1.2,2.7c-0.4,2.5,1.4,3.5,1.5,3.5c0.3,0.2,0.4,0.6,0.3,0.9
											C262.9,330.7,262.6,330.8,262.4,330.8z"/>
									</g>
								</g>
							</g>
						</g>
					</g>
				</g>
			</g>
			<g>
				<g>
					<g>
						<g>
							<g>
								<g>
									<path d="M261.1,315.8c-0.1,0.6-0.7,1-1.3,0.9l0,0c-0.6-0.1-1-0.7-0.9-1.3l0.3-1.8c0.1-0.6,0.7-1,1.3-0.9l0,0
										c0.6,0.1,1,0.7,0.9,1.3L261.1,315.8z"/>
								</g>
							</g>
						</g>
					</g>
				</g>
			</g>
			<g>
				<g>
					<g>
						<g>
							<g>
								<g>
									<path class="st37" d="M252.6,360.2c0,0.3-0.3,0.4-0.6,0.4l0,0c-0.3,0-0.4-0.3-0.4-0.6l0.6-3.2c0-0.3,0.3-0.4,0.6-0.4l0,0
										c0.3,0,0.4,0.3,0.4,0.6L252.6,360.2z"/>
								</g>
							</g>
						</g>
					</g>
				</g>
			</g>
			<g>
				<g>
					<g>
						<g>
							<g>
								<g>
									<path class="st38" d="M254.9,355.6c-0.1,0.7-1.1,3.1-1.9,3l-1.3-0.2c-0.7-0.1-0.8-2.7-0.7-3.4l4.3-24.3
										c0.1-0.7,0.8-1.2,1.5-1.1l1.3,0.2c0.7,0.1,1.2,0.8,1.1,1.5L254.9,355.6z"/>
								</g>
							</g>
						</g>
					</g>
				</g>
			</g>
			<g>
				<g>
					<g>
						<g>
							<g>
								<g>
									<path class="st39" d="M257.6,340.4c-0.1,0.7-0.8,1.2-1.5,1.1l-1.3-0.2c-0.7-0.1-1.2-0.8-1.1-1.5l4.3-24.3
										c0.1-0.7,0.8-1.2,1.5-1.1l1.3,0.2c0.7,0.1,1.2,0.8,1.1,1.5L257.6,340.4z"/>
								</g>
							</g>
						</g>
					</g>
				</g>
			</g>
		</g>
		<g>
			<g>
				<g>
					<path class="st25" d="M260.7,333.8v31.5c0,1-0.8,1.8-1.8,1.8h-21.7c-1,0-1.8-0.8-1.8-1.8v-31.5c0-1,0.8-1.8,1.8-1.8h21.7
						C259.9,332,260.7,332.8,260.7,333.8z"/>
				</g>
			</g>
		</g>
		<g>
			<g>
				<g>
					<path class="st14" d="M255.8,339.8V367h-18.6c-1,0-1.8-0.8-1.8-1.8v-29.9h15.9C253.8,335.3,255.8,337.3,255.8,339.8z"/>
				</g>
			</g>
		</g>
	</g>
	<g>
		<g>
			<g>
				<g>
					<path class="st22" d="M221.1,339.1l-2.9,24.6c0,1.6-1.3,2.9-2.9,2.9h-13.7c-1.6,0-3-1.3-3-2.9l-2.9-24.3l0-0.3c0-1.6,1.3-3,3-3
						h19.6C219.8,336.1,221.1,337.4,221.1,339.1z"/>
				</g>
			</g>
		</g>
		<g>
			<g>
				<path class="st17" d="M212.4,344.2v22.4h-10.8c-1.6,0-3-1.3-3-2.9l-2.9-24.3h11.9C210.2,339.3,212.4,341.5,212.4,344.2z"/>
			</g>
		</g>
		<g>
			<g>
				<g>
					<g>
						<g>
							<g>
								<path class="st16" d="M217.7,325.1c1.7,4,2.1,7.7,0.9,8.2c-1.2,0.5-3.5-2.4-5.2-6.4c-1.7-4-1.4-6-0.2-6.5
									C214.5,319.9,216.1,321.1,217.7,325.1z"/>
							</g>
						</g>
					</g>
				</g>
				<g>
					<g>
						<g>
							<g>
								<path class="st16" d="M219.6,341.5c-1.7-4-2.1-7.7-0.9-8.2c1.2-0.5,3.5,2.4,5.2,6.4c1.7,4,1.4,6,0.2,6.5
									C222.8,346.6,221.2,345.5,219.6,341.5z"/>
							</g>
						</g>
					</g>
				</g>
				<g>
					<g>
						<g>
							<g>
								<path class="st16" d="M210.5,334.2c4-1.7,7.7-2.1,8.2-0.9c0.5,1.2-2.4,3.5-6.4,5.2c-4,1.7-6,1.4-6.5,0.2
									C205.3,337.5,206.4,335.9,210.5,334.2z"/>
							</g>
						</g>
					</g>
				</g>
				<g>
					<g>
						<g>
							<g>
								<path class="st16" d="M226.8,332.4c-4,1.7-7.7,2.1-8.2,0.9c-0.5-1.2,2.4-3.5,6.4-5.2c4-1.7,6-1.4,6.5-0.2
									C232,329.1,230.9,330.7,226.8,332.4z"/>
							</g>
						</g>
					</g>
				</g>
				<g>
					<g>
						<g>
							<g>
								<path class="st16" d="M223.8,326.8c-1.7,4-4,6.9-5.2,6.4c-1.2-0.5-0.8-4.2,0.8-8.2c1.7-4,3.3-5.2,4.4-4.7
									C225.1,320.9,225.5,322.8,223.8,326.8z"/>
							</g>
						</g>
					</g>
				</g>
				<g>
					<g>
						<g>
							<g>
								<path class="st16" d="M213.5,339.7c1.7-4,4-6.9,5.2-6.4c1.2,0.5,0.8,4.2-0.8,8.2c-1.7,4-3.3,5.2-4.4,4.7
									C212.2,345.7,211.8,343.7,213.5,339.7z"/>
							</g>
						</g>
					</g>
				</g>
				<g>
					<g>
						<g>
							<g>
								<path class="st16" d="M212.2,328.1c4,1.7,6.9,4,6.4,5.2c-0.5,1.2-4.2,0.8-8.2-0.8c-4-1.7-5.2-3.3-4.7-4.4
									C206.2,326.8,208.2,326.5,212.2,328.1z"/>
							</g>
						</g>
					</g>
				</g>
				<g>
					<g>
						<g>
							<g>
								<path class="st16" d="M225.1,338.4c-4-1.7-6.9-4-6.4-5.2c0.5-1.2,4.2-0.8,8.2,0.8c4,1.7,5.2,3.3,4.7,4.4
									C231.1,339.7,229.1,340.1,225.1,338.4z"/>
							</g>
						</g>
					</g>
				</g>
			</g>
			<g>
				<g>
					<g>
						<g>
							<g>
								<path class="st16" d="M221,325.4c0,4.4-1,7.9-2.3,7.9s-2.3-3.5-2.3-7.9s1-6,2.3-6S221,321,221,325.4z"/>
							</g>
						</g>
					</g>
				</g>
				<g>
					<g>
						<g>
							<g>
								<path class="st16" d="M216.3,341.2c0-4.4,1-7.9,2.3-7.9s2.3,3.5,2.3,7.9c0,4.4-1,6-2.3,6S216.3,345.5,216.3,341.2z"/>
							</g>
						</g>
					</g>
				</g>
				<g>
					<g>
						<g>
							<g>
								<path class="st16" d="M210.8,330.9c4.4,0,7.9,1,7.9,2.3c0,1.3-3.5,2.3-7.9,2.3c-4.4,0-6-1-6-2.3
									C204.7,332,206.4,330.9,210.8,330.9z"/>
							</g>
						</g>
					</g>
				</g>
				<g>
					<g>
						<g>
							<g>
								<path class="st16" d="M226.5,335.6c-4.4,0-7.9-1-7.9-2.3c0-1.3,3.5-2.3,7.9-2.3c4.4,0,6,1,6,2.3
									C232.6,334.6,230.9,335.6,226.5,335.6z"/>
							</g>
						</g>
					</g>
				</g>
				<g>
					<g>
						<g>
							<g>
								<path class="st16" d="M225.9,329.3c-3.1,3.1-6.3,4.8-7.2,3.9c-0.9-0.9,0.9-4.1,3.9-7.2c3.1-3.1,5-3.5,5.9-2.6
									C229.4,324.3,229,326.2,225.9,329.3z"/>
							</g>
						</g>
					</g>
				</g>
				<g>
					<g>
						<g>
							<g>
								<path class="st16" d="M211.4,337.2c3.1-3.1,6.3-4.8,7.2-3.9c0.9,0.9-0.9,4.1-3.9,7.2c-3.1,3.1-5,3.5-5.9,2.6
									C207.9,342.2,208.3,340.3,211.4,337.2z"/>
							</g>
						</g>
					</g>
				</g>
				<g>
					<g>
						<g>
							<g>
								<path class="st16" d="M214.7,326c3.1,3.1,4.8,6.3,3.9,7.2c-0.9,0.9-4.1-0.9-7.2-3.9c-3.1-3.1-3.5-5-2.6-5.9
									C209.7,322.5,211.6,323,214.7,326z"/>
							</g>
						</g>
					</g>
				</g>
				<g>
					<g>
						<g>
							<g>
								<path class="st16" d="M222.6,340.5c-3.1-3.1-4.8-6.3-3.9-7.2c0.9-0.9,4.1,0.9,7.2,3.9c3.1,3.1,3.5,5,2.6,5.9
									C227.6,344,225.7,343.6,222.6,340.5z"/>
							</g>
						</g>
					</g>
				</g>
			</g>
			<g>
				<g>
					<g>
						<g>
							<circle class="st40" cx="218.7" cy="333.3" r="4"/>
						</g>
					</g>
				</g>
			</g>
		</g>
		<g>
			<g>
				<g>
					<g>
						<g>
							<g>
								<path class="st16" d="M201.5,311.2c1.7,4,2.1,7.7,0.9,8.2c-1.2,0.5-3.5-2.4-5.2-6.4c-1.7-4-1.4-6-0.2-6.5
									C198.2,306,199.9,307.1,201.5,311.2z"/>
							</g>
						</g>
					</g>
				</g>
				<g>
					<g>
						<g>
							<g>
								<path class="st16" d="M203.3,327.5c-1.7-4-2.1-7.7-0.9-8.2c1.2-0.5,3.5,2.4,5.2,6.4c1.7,4,1.4,6,0.2,6.5
									C206.6,332.7,205,331.6,203.3,327.5z"/>
							</g>
						</g>
					</g>
				</g>
				<g>
					<g>
						<g>
							<g>
								<path class="st16" d="M194.3,320.2c4-1.7,7.7-2.1,8.2-0.9c0.5,1.2-2.4,3.5-6.4,5.2c-4,1.7-6,1.4-6.5,0.2
									C189.1,323.5,190.2,321.9,194.3,320.2z"/>
							</g>
						</g>
					</g>
				</g>
				<g>
					<g>
						<g>
							<g>
								<path class="st16" d="M210.6,318.4c-4,1.7-7.7,2.1-8.2,0.9c-0.5-1.2,2.4-3.5,6.4-5.2c4-1.7,6-1.4,6.5-0.2
									C215.8,315.1,214.7,316.8,210.6,318.4z"/>
							</g>
						</g>
					</g>
				</g>
				<g>
					<g>
						<g>
							<g>
								<path class="st16" d="M207.6,312.9c-1.7,4-4,6.9-5.2,6.4c-1.2-0.5-0.8-4.2,0.8-8.2c1.7-4,3.3-5.2,4.4-4.7
									C208.9,306.9,209.2,308.9,207.6,312.9z"/>
							</g>
						</g>
					</g>
				</g>
				<g>
					<g>
						<g>
							<g>
								<path class="st16" d="M197.3,325.8c1.7-4,4-6.9,5.2-6.4c1.2,0.5,0.8,4.2-0.8,8.2c-1.7,4-3.3,5.2-4.4,4.7
									C196,331.7,195.6,329.8,197.3,325.8z"/>
							</g>
						</g>
					</g>
				</g>
				<g>
					<g>
						<g>
							<g>
								<path class="st16" d="M196,314.2c4,1.7,6.9,4,6.4,5.2c-0.5,1.2-4.2,0.8-8.2-0.8c-4-1.7-5.2-3.3-4.7-4.4
									C190,312.9,192,312.5,196,314.2z"/>
							</g>
						</g>
					</g>
				</g>
				<g>
					<g>
						<g>
							<g>
								<path class="st16" d="M208.9,324.5c-4-1.7-6.9-4-6.4-5.1c0.5-1.2,4.2-0.8,8.2,0.8c4,1.7,5.2,3.3,4.7,4.4
									C214.8,325.8,212.9,326.1,208.9,324.5z"/>
							</g>
						</g>
					</g>
				</g>
			</g>
			<g>
				<g>
					<g>
						<g>
							<g>
								<path class="st16" d="M204.8,311.4c0,4.4-1,7.9-2.3,7.9c-1.3,0-2.3-3.5-2.3-7.9c0-4.4,1-6,2.3-6
									C203.7,305.4,204.8,307.1,204.8,311.4z"/>
							</g>
						</g>
					</g>
				</g>
				<g>
					<g>
						<g>
							<g>
								<path class="st16" d="M200.1,327.2c0-4.4,1-7.9,2.3-7.9c1.3,0,2.3,3.5,2.3,7.9c0,4.4-1,6-2.3,6
									C201.2,333.3,200.1,331.6,200.1,327.2z"/>
							</g>
						</g>
					</g>
				</g>
				<g>
					<g>
						<g>
							<g>
								<path class="st16" d="M194.5,317c4.4,0,7.9,1,7.9,2.3c0,1.3-3.5,2.3-7.9,2.3c-4.4,0-6-1-6-2.3
									C188.5,318.1,190.2,317,194.5,317z"/>
							</g>
						</g>
					</g>
				</g>
				<g>
					<g>
						<g>
							<g>
								<path class="st16" d="M210.3,321.7c-4.4,0-7.9-1-7.9-2.3c0-1.3,3.5-2.3,7.9-2.3s6,1,6,2.3
									C216.4,320.6,214.7,321.7,210.3,321.7z"/>
							</g>
						</g>
					</g>
				</g>
				<g>
					<g>
						<g>
							<g>
								<path class="st16" d="M209.7,315.4c-3.1,3.1-6.3,4.8-7.2,3.9c-0.9-0.9,0.9-4.1,3.9-7.2c3.1-3.1,5-3.5,5.9-2.6
									C213.2,310.4,212.8,312.3,209.7,315.4z"/>
							</g>
						</g>
					</g>
				</g>
				<g>
					<g>
						<g>
							<g>
								<path class="st16" d="M195.2,323.3c3.1-3.1,6.3-4.8,7.2-3.9c0.9,0.9-0.9,4.1-3.9,7.2c-3.1,3.1-5,3.5-5.9,2.6
									C191.7,328.3,192.1,326.4,195.2,323.3z"/>
							</g>
						</g>
					</g>
				</g>
				<g>
					<g>
						<g>
							<g>
								<path class="st16" d="M198.5,312.1c3.1,3.1,4.8,6.3,3.9,7.2c-0.9,0.9-4.1-0.9-7.2-3.9c-3.1-3.1-3.5-5-2.6-5.9
									C193.5,308.6,195.4,309,198.5,312.1z"/>
							</g>
						</g>
					</g>
				</g>
				<g>
					<g>
						<g>
							<g>
								<path class="st16" d="M206.4,326.6c-3.1-3.1-4.8-6.3-3.9-7.2c0.9-0.9,4.1,0.9,7.2,3.9c3.1,3.1,3.5,5,2.6,5.9
									C211.4,330.1,209.5,329.7,206.4,326.6z"/>
							</g>
						</g>
					</g>
				</g>
			</g>
			<g>
				<g>
					<g>
						<g>
							<circle class="st40" cx="202.4" cy="319.4" r="4"/>
						</g>
					</g>
				</g>
			</g>
		</g>
		<g>
			<g>
				<g>
					<g>
						<g>
							<g>
								<path class="st16" d="M199,330.9c1.1,2.6,1.3,4.9,0.6,5.3c-0.8,0.3-2.3-1.5-3.3-4.1c-1.1-2.6-0.9-3.8-0.1-4.1
									C196.9,327.5,197.9,328.3,199,330.9z"/>
							</g>
						</g>
					</g>
				</g>
				<g>
					<g>
						<g>
							<g>
								<path class="st16" d="M200.2,341.4c-1.1-2.6-1.3-4.9-0.6-5.3c0.8-0.3,2.3,1.5,3.3,4.1c1.1,2.6,0.9,3.8,0.1,4.1
									C202.3,344.7,201.3,344,200.2,341.4z"/>
							</g>
						</g>
					</g>
				</g>
				<g>
					<g>
						<g>
							<g>
								<path class="st16" d="M194.3,336.7c2.6-1.1,4.9-1.3,5.3-0.6c0.3,0.8-1.5,2.3-4.1,3.3c-2.6,1.1-3.8,0.9-4.1,0.1
									C191,338.8,191.8,337.8,194.3,336.7z"/>
							</g>
						</g>
					</g>
				</g>
				<g>
					<g>
						<g>
							<g>
								<path class="st16" d="M204.9,335.5c-2.6,1.1-4.9,1.3-5.3,0.6c-0.3-0.8,1.5-2.3,4.1-3.3c2.6-1.1,3.8-0.9,4.1-0.1
									C208.2,333.4,207.4,334.5,204.9,335.5z"/>
							</g>
						</g>
					</g>
				</g>
				<g>
					<g>
						<g>
							<g>
								<path class="st16" d="M202.9,332c-1.1,2.6-2.5,4.4-3.3,4.1c-0.8-0.3-0.5-2.7,0.5-5.3c1.1-2.6,2.1-3.3,2.8-3
									C203.8,328.2,204,329.4,202.9,332z"/>
							</g>
						</g>
					</g>
				</g>
				<g>
					<g>
						<g>
							<g>
								<path class="st16" d="M196.3,340.2c1.1-2.6,2.5-4.4,3.3-4.1c0.8,0.3,0.5,2.7-0.5,5.3c-1.1,2.6-2.1,3.3-2.9,3
									C195.4,344.1,195.2,342.8,196.3,340.2z"/>
							</g>
						</g>
					</g>
				</g>
				<g>
					<g>
						<g>
							<g>
								<path class="st16" d="M195.5,332.8c2.6,1.1,4.4,2.5,4.1,3.3c-0.3,0.8-2.7,0.5-5.3-0.5c-2.6-1.1-3.3-2.1-3-2.9
									C191.6,332,192.9,331.7,195.5,332.8z"/>
							</g>
						</g>
					</g>
				</g>
				<g>
					<g>
						<g>
							<g>
								<path class="st16" d="M203.7,339.4c-2.6-1.1-4.4-2.5-4.1-3.3c0.3-0.8,2.7-0.5,5.3,0.5c2.6,1.1,3.3,2.1,3,2.9
									C207.6,340.3,206.3,340.5,203.7,339.4z"/>
							</g>
						</g>
					</g>
				</g>
			</g>
			<g>
				<g>
					<g>
						<g>
							<g>
								<path class="st16" d="M201.1,331c0,2.8-0.7,5.1-1.5,5.1s-1.5-2.3-1.5-5.1c0-2.8,0.7-3.9,1.5-3.9S201.1,328.2,201.1,331z"/>
							</g>
						</g>
					</g>
				</g>
				<g>
					<g>
						<g>
							<g>
								<path class="st16" d="M198.1,341.2c0-2.8,0.7-5.1,1.5-5.1s1.5,2.3,1.5,5.1c0,2.8-0.7,3.9-1.5,3.9S198.1,344,198.1,341.2z"/>
							</g>
						</g>
					</g>
				</g>
				<g>
					<g>
						<g>
							<g>
								<path class="st16" d="M194.5,334.6c2.8,0,5.1,0.7,5.1,1.5c0,0.8-2.3,1.5-5.1,1.5c-2.8,0-3.9-0.7-3.9-1.5
									C190.7,335.3,191.7,334.6,194.5,334.6z"/>
							</g>
						</g>
					</g>
				</g>
				<g>
					<g>
						<g>
							<g>
								<path class="st16" d="M204.7,337.6c-2.8,0-5.1-0.7-5.1-1.5c0-0.8,2.3-1.5,5.1-1.5c2.8,0,3.9,0.7,3.9,1.5
									C208.5,336.9,207.5,337.6,204.7,337.6z"/>
							</g>
						</g>
					</g>
				</g>
				<g>
					<g>
						<g>
							<g>
								<path class="st16" d="M204.2,333.6c-2,2-4.1,3.1-4.6,2.5c-0.6-0.6,0.5-2.7,2.5-4.6c2-2,3.2-2.3,3.8-1.7
									C206.5,330.4,206.2,331.6,204.2,333.6z"/>
							</g>
						</g>
					</g>
				</g>
				<g>
					<g>
						<g>
							<g>
								<path class="st16" d="M195,338.6c2-2,4.1-3.1,4.6-2.5c0.6,0.6-0.5,2.7-2.5,4.6c-2,2-3.2,2.3-3.8,1.7
									C192.7,341.9,193,340.6,195,338.6z"/>
							</g>
						</g>
					</g>
				</g>
				<g>
					<g>
						<g>
							<g>
								<path class="st16" d="M197.1,331.5c2,2,3.1,4.1,2.5,4.6c-0.6,0.6-2.7-0.5-4.6-2.5c-2-2-2.3-3.2-1.7-3.8
									C193.9,329.2,195.1,329.5,197.1,331.5z"/>
							</g>
						</g>
					</g>
				</g>
				<g>
					<g>
						<g>
							<g>
								<path class="st16" d="M202.1,340.8c-2-2-3.1-4.1-2.5-4.6c0.6-0.6,2.7,0.5,4.6,2.5c2,2,2.3,3.2,1.7,3.8
									C205.3,343,204.1,342.7,202.1,340.8z"/>
							</g>
						</g>
					</g>
				</g>
			</g>
			<g>
				<g>
					<g>
						<g>
							<circle class="st40" cx="199.6" cy="336.1" r="2.6"/>
						</g>
					</g>
				</g>
			</g>
		</g>
	</g>
</g>
</svg>
