<?xml version="1.0" encoding="utf-8"?>
<!-- Generator: Adobe Illustrator 21.0.0, SVG Export Plug-In . SVG Version: 6.00 Build 0)  -->
<svg version="1.1" id="Layer_1" xmlns="http://www.w3.org/2000/svg" xmlns:xlink="http://www.w3.org/1999/xlink" x="0px" y="0px"
	 viewBox="0 0 551 400" style="enable-background:new 0 0 551 400;" xml:space="preserve">
<style type="text/css">
	.st0{fill:url(#SVGID_1_);}
	.st1{fill:#F2F2F2;}
	.st2{fill:#E1DDDA;}
	.st3{fill:#F1EDEB;}
	.st4{fill:#D1CBC7;}
	.st5{fill:#F6EA33;}
	.st6{fill:#FFFFFF;}
	.st7{fill:#FDA045;}
	.st8{fill:#F1BBBB;}
	.st9{fill:#F0F0F0;}
	.st10{opacity:0.5;clip-path:url(#SVGID_3_);}
	.st11{fill:#F1BB78;}
	.st12{fill:#E5C9B1;}
	.st13{fill:#F2D7BD;}
	.st14{fill:#D17459;}
	.st15{fill:#BFBFBF;}
	.st16{fill:#E4E4E4;}
	.st17{fill:#AA8995;}
	.st18{fill:#D0D1D3;}
	.st19{fill:#CDD0D1;}
	.st20{fill:#EFF0F0;}
	.st21{fill:#DBD8DB;}
	.st22{fill:#A4A6A9;}
	.st23{fill:#E7E2DE;}
	.st24{fill:#E0802C;}
	.st25{fill:#EDF3F3;}
	.st26{fill:#A8A8A8;}
	.st27{fill:#FBE0A8;}
	.st28{fill:#C0B9A9;}
	.st29{fill:#DCAB8C;}
	.st30{fill:#505050;}
	.st31{fill:#BB8A6D;}
	.st32{fill:#AA7C5E;}
	.st33{fill:#E17E30;}
	.st34{fill:#CECECE;}
	.st35{fill:#BEBEBE;}
	.st36{fill:#666666;}
	.st37{fill:#333333;}
	.st38{fill:#142D3D;}
	.st39{fill:#34495D;}
	.st40{fill:#D33D34;}
	.st41{fill:#FCCC57;}
</style>
<linearGradient id="SVGID_1_" gradientUnits="userSpaceOnUse" x1="8.88" y1="201.7572" x2="476.4142" y2="201.7572">
	<stop  offset="0" style="stop-color:#9494EE"/>
	<stop  offset="1" style="stop-color:#F9C5D2"/>
</linearGradient>
<path class="st0" d="M332.3,153.7C249.5,103.7,210.4-50,82.6,41.8c-127.8,91.9-74.8,280.6,47.7,326.2
	c122.5,45.6,280.1,19.9,324.4-64.9C530.5,158.2,387.9,187.3,332.3,153.7z"/>
<g>
	<g>
		<g>
			<circle class="st1" cx="263" cy="48.8" r="26.8"/>
		</g>
		<g>
			<path class="st1" d="M263,24.5c-13.2,0-24,10.8-24,24c0,13.2,10.8,24,24,24c13.2,0,24-10.8,24-24C287,35.2,276.2,24.5,263,24.5z"
				/>
		</g>
		<g>
			<path class="st2" d="M263,76.3c-15.3,0-27.8-12.5-27.8-27.8c0-15.3,12.5-27.8,27.8-27.8c15.3,0,27.8,12.5,27.8,27.8
				C290.8,63.8,278.3,76.3,263,76.3z M263,24.5c-13.2,0-24,10.8-24,24c0,13.2,10.8,24,24,24c13.2,0,24-10.8,24-24
				C287,35.2,276.2,24.5,263,24.5z"/>
			<path class="st2" d="M263,76.8c-15.6,0-28.4-12.7-28.4-28.4s12.7-28.4,28.4-28.4s28.4,12.7,28.4,28.4S278.6,76.8,263,76.8z
				 M263,21.1c-15.1,0-27.3,12.3-27.3,27.3s12.3,27.3,27.3,27.3c15.1,0,27.3-12.3,27.3-27.3S278,21.1,263,21.1z M263,73
				c-13.5,0-24.5-11-24.5-24.5S249.5,24,263,24c13.5,0,24.5,11,24.5,24.5S276.5,73,263,73z M263,25c-12.9,0-23.5,10.5-23.5,23.5
				s10.5,23.5,23.5,23.5c12.9,0,23.5-10.5,23.5-23.5S275.9,25,263,25z"/>
		</g>
		<g>
			<path class="st2" d="M263.1,53.7c-0.5,0-1-0.3-1.3-0.8l-6.3-12.4c-0.4-0.7-0.1-1.6,0.6-2c0.7-0.4,1.6-0.1,2,0.6l6.3,12.4
				c0.4,0.7,0.1,1.6-0.6,2C263.5,53.7,263.3,53.7,263.1,53.7z"/>
		</g>
		<g>
			<path class="st2" d="M257.9,52c-0.3,0-0.7-0.2-0.7-0.6c-0.1-0.4,0.2-0.8,0.6-0.8l23.7-4.1c0.4-0.1,0.8,0.2,0.8,0.6
				c0.1,0.4-0.2,0.8-0.6,0.8L258,52C258,52,257.9,52,257.9,52z"/>
		</g>
	</g>
	<g>
		<g>
			<rect x="402.3" y="30.7" class="st1" width="77.4" height="93.4"/>
		</g>
		<g>
			<path class="st2" d="M481,125.3h-80V29.4h80V125.3z M403.6,122.7h74.9V31.9h-74.9V122.7z"/>
		</g>
		<g>
			<rect x="414.4" y="44.7" class="st2" width="51.8" height="65.5"/>
		</g>
		<g>
			<path class="st3" d="M423.7,78.5c-0.6-0.7-0.6-1.7,0-2.4l8.3-8.3c0.6-0.7,1.7-0.7,2.4-0.1c0.7,0.6,0.7,1.7,0.1,2.4
				c0,0-0.1,0.1-0.1,0.1l-7.1,7.1l7.1,7.1c0.6,0.7,0.6,1.7,0,2.4c-0.3,0.3-0.7,0.5-1.2,0.5c-0.4,0-0.9-0.2-1.2-0.5L423.7,78.5z
				 M446.3,84.4l7.1-7.1l-7.1-7.1c-0.7-0.7-0.6-1.7,0-2.4c0.7-0.7,1.7-0.6,2.4,0l8.3,8.3c0.6,0.7,0.6,1.7,0,2.4l-8.3,8.3
				c-0.3,0.3-0.7,0.5-1.2,0.5c-0.4,0-0.9-0.2-1.2-0.5C445.6,86.1,445.6,85.1,446.3,84.4L446.3,84.4z M436.1,86.5l4.3-19
				c0.2-0.9,1.1-1.5,2-1.3c0.9,0.2,1.5,1.1,1.3,2l-4.3,19c-0.2,0.8-0.8,1.3-1.6,1.3c-0.1,0-0.3,0-0.4,0
				C436.5,88.3,435.9,87.4,436.1,86.5C436.1,86.5,436.1,86.5,436.1,86.5z"/>
		</g>
	</g>
	<g>
		<g>
			
				<rect x="148.3" y="99.4" transform="matrix(1 4.145334e-03 -4.145334e-03 1 0.4891 -0.6293)" class="st2" width="7.5" height="36.6"/>
		</g>
		<g>
			
				<rect x="138.4" y="99.4" transform="matrix(1 4.145334e-03 -4.145334e-03 1 0.4891 -0.5882)" class="st2" width="7.5" height="36.6"/>
		</g>
		<g>
			
				<rect x="128.7" y="99.4" transform="matrix(1 4.145334e-03 -4.145334e-03 1 0.489 -0.548)" class="st2" width="7.5" height="36.6"/>
		</g>
		<g>
			
				<rect x="157.6" y="110.6" transform="matrix(1 4.145941e-03 -4.145941e-03 1 0.5127 -0.6674)" class="st4" width="7.4" height="25.4"/>
		</g>
		<g>
			
				<rect x="173.6" y="111.1" transform="matrix(0.7603 -0.6496 0.6496 0.7603 -37.9694 144.8152)" class="st2" width="7.4" height="25.4"/>
		</g>
		<g>
			<path class="st2" d="M234.9,147.9l-111.2-0.5l0-11l111.2,0.5L234.9,147.9z M125.4,145.7l107.8,0.5l0-7.6l-107.8-0.5L125.4,145.7z
				"/>
		</g>
		<g>
			<g>
				<g>
					<g>
						<path class="st2" d="M229.6,136.5h-35V89.6h35V136.5z M195.1,135.9h33.9V90.1h-33.9V135.9z"/>
					</g>
				</g>
				<g>
					<g>
						<path class="st2" d="M230.3,137.2h-36.5V88.8h36.5V137.2z M194.4,136.6h35.3V89.4h-35.3V136.6z M228.9,135.8h-33.6V90.3h33.6
							V135.8z M195.9,135.2h32.5V90.8h-32.5V135.2z"/>
					</g>
				</g>
			</g>
			<g>
				<g>
					<rect x="205" y="129" class="st5" width="15.2" height="1.9"/>
				</g>
			</g>
			<g>
				<path class="st6" d="M203,97v-2.7h0.6v1h1v-1h0.6V97h-0.6v-1.2h-1V97H203z"/>
				<path class="st6" d="M206.4,95.8c0.1,0,0.2,0,0.2,0c0.1,0,0.1-0.1,0.1-0.1c0-0.1,0-0.1-0.1-0.2c-0.1,0-0.1,0-0.2,0
					c-0.1,0-0.2,0-0.3,0.1c0,0-0.1,0.1-0.1,0.2h-0.5c0-0.2,0.1-0.3,0.1-0.4c0.1-0.2,0.4-0.3,0.7-0.3c0.2,0,0.4,0,0.6,0.1
					c0.2,0.1,0.3,0.2,0.3,0.5v0.9c0,0.1,0,0.1,0,0.2c0,0.1,0,0.1,0,0.1c0,0,0,0,0.1,0.1V97h-0.6c0,0,0-0.1,0-0.1c0,0,0-0.1,0-0.1
					c-0.1,0.1-0.2,0.1-0.2,0.2c-0.1,0.1-0.2,0.1-0.4,0.1c-0.2,0-0.3-0.1-0.4-0.2c-0.1-0.1-0.2-0.2-0.2-0.4c0-0.2,0.1-0.4,0.3-0.5
					c0.1-0.1,0.3-0.1,0.5-0.1L206.4,95.8z M206.7,96.1C206.7,96.1,206.7,96.1,206.7,96.1c-0.1,0.1-0.2,0.1-0.2,0.1l-0.1,0
					c-0.1,0-0.2,0-0.2,0.1c-0.1,0-0.1,0.1-0.1,0.2c0,0.1,0,0.2,0.1,0.2c0,0,0.1,0.1,0.2,0.1c0.1,0,0.2,0,0.3-0.1
					c0.1-0.1,0.1-0.2,0.1-0.4V96.1z"/>
				<path class="st6" d="M209.3,95.3c0.2,0.2,0.2,0.4,0.2,0.7c0,0.3-0.1,0.6-0.2,0.8c-0.2,0.2-0.4,0.3-0.6,0.3c-0.2,0-0.3,0-0.4-0.1
					c-0.1,0-0.1-0.1-0.2-0.2v1h-0.5V95h0.5v0.3c0.1-0.1,0.1-0.2,0.2-0.2c0.1-0.1,0.3-0.1,0.4-0.1C209,95,209.2,95.1,209.3,95.3z
					 M209,95.6c-0.1-0.1-0.2-0.2-0.3-0.2c-0.2,0-0.3,0.1-0.4,0.3c0,0.1-0.1,0.2-0.1,0.4c0,0.2,0.1,0.4,0.2,0.5
					c0.1,0.1,0.2,0.1,0.3,0.1c0.1,0,0.3-0.1,0.3-0.2c0.1-0.1,0.1-0.3,0.1-0.4C209.1,95.9,209,95.7,209,95.6z"/>
				<path class="st6" d="M211.6,95.3c0.2,0.2,0.2,0.4,0.2,0.7c0,0.3-0.1,0.6-0.2,0.8c-0.2,0.2-0.4,0.3-0.6,0.3c-0.2,0-0.3,0-0.4-0.1
					c-0.1,0-0.1-0.1-0.2-0.2v1h-0.5V95h0.5v0.3c0.1-0.1,0.1-0.2,0.2-0.2c0.1-0.1,0.3-0.1,0.4-0.1C211.2,95,211.4,95.1,211.6,95.3z
					 M211.2,95.6c-0.1-0.1-0.2-0.2-0.3-0.2c-0.2,0-0.3,0.1-0.4,0.3c0,0.1-0.1,0.2-0.1,0.4c0,0.2,0.1,0.4,0.2,0.5
					c0.1,0.1,0.2,0.1,0.3,0.1c0.1,0,0.3-0.1,0.3-0.2c0.1-0.1,0.1-0.3,0.1-0.4C211.3,95.9,211.3,95.7,211.2,95.6z"/>
				<path class="st6" d="M212.7,94.8h-0.5v-0.5h0.5V94.8z M212.2,95h0.5v2h-0.5V95z"/>
				<path class="st6" d="M214.8,95.2c0.1,0.1,0.2,0.3,0.2,0.5V97h-0.5v-1.2c0-0.1,0-0.2,0-0.2c-0.1-0.1-0.1-0.2-0.3-0.2
					c-0.2,0-0.3,0.1-0.4,0.2c0,0.1-0.1,0.2-0.1,0.3V97h-0.5v-2h0.5v0.3c0.1-0.1,0.1-0.2,0.2-0.2c0.1-0.1,0.2-0.1,0.4-0.1
					C214.5,95,214.7,95.1,214.8,95.2z"/>
				<path class="st6" d="M216.8,95.1c0.1,0.1,0.3,0.2,0.3,0.3c0.1,0.1,0.1,0.3,0.2,0.4c0,0.1,0,0.2,0,0.4h-1.4
					c0,0.2,0.1,0.3,0.2,0.4c0.1,0,0.2,0.1,0.3,0.1c0.1,0,0.2,0,0.3-0.1c0,0,0.1-0.1,0.1-0.1h0.5c0,0.1-0.1,0.2-0.2,0.4
					c-0.2,0.2-0.4,0.3-0.7,0.3c-0.3,0-0.5-0.1-0.7-0.2c-0.2-0.2-0.3-0.4-0.3-0.8c0-0.3,0.1-0.6,0.3-0.8c0.2-0.2,0.4-0.3,0.7-0.3
					C216.5,95,216.6,95,216.8,95.1z M216,95.5c-0.1,0.1-0.1,0.2-0.1,0.3h0.9c0-0.1-0.1-0.2-0.1-0.3s-0.2-0.1-0.3-0.1
					C216.2,95.4,216.1,95.5,216,95.5z"/>
				<path class="st6" d="M217.9,96.4c0,0.1,0,0.2,0.1,0.2c0.1,0.1,0.2,0.1,0.4,0.1c0.1,0,0.2,0,0.2,0c0.1,0,0.1-0.1,0.1-0.1
					c0-0.1,0-0.1-0.1-0.1c0,0-0.2-0.1-0.5-0.2c-0.2-0.1-0.4-0.1-0.5-0.2c-0.1-0.1-0.1-0.2-0.1-0.4c0-0.2,0.1-0.3,0.2-0.5
					c0.1-0.1,0.3-0.2,0.6-0.2c0.2,0,0.4,0,0.6,0.1c0.2,0.1,0.2,0.3,0.3,0.5h-0.5c0-0.1,0-0.1-0.1-0.2c-0.1-0.1-0.2-0.1-0.3-0.1
					c-0.1,0-0.2,0-0.2,0.1c0,0-0.1,0.1-0.1,0.1c0,0.1,0,0.1,0.1,0.1c0.1,0,0.2,0.1,0.5,0.1c0.2,0,0.4,0.1,0.5,0.2
					c0.1,0.1,0.2,0.2,0.2,0.4c0,0.2-0.1,0.4-0.2,0.5c-0.1,0.1-0.4,0.2-0.7,0.2c-0.3,0-0.5-0.1-0.7-0.2c-0.1-0.1-0.2-0.3-0.2-0.5
					H217.9z"/>
				<path class="st6" d="M220,96.4c0,0.1,0,0.2,0.1,0.2c0.1,0.1,0.2,0.1,0.4,0.1c0.1,0,0.2,0,0.2,0c0.1,0,0.1-0.1,0.1-0.1
					c0-0.1,0-0.1-0.1-0.1c0,0-0.2-0.1-0.5-0.2c-0.2-0.1-0.4-0.1-0.5-0.2c-0.1-0.1-0.1-0.2-0.1-0.4c0-0.2,0.1-0.3,0.2-0.5
					c0.1-0.1,0.3-0.2,0.6-0.2c0.2,0,0.4,0,0.6,0.1c0.2,0.1,0.2,0.3,0.3,0.5h-0.5c0-0.1,0-0.1-0.1-0.2c-0.1-0.1-0.2-0.1-0.3-0.1
					c-0.1,0-0.2,0-0.2,0.1c0,0-0.1,0.1-0.1,0.1c0,0.1,0,0.1,0.1,0.1c0.1,0,0.2,0.1,0.5,0.1c0.2,0,0.4,0.1,0.5,0.2
					c0.1,0.1,0.2,0.2,0.2,0.4c0,0.2-0.1,0.4-0.2,0.5c-0.1,0.1-0.4,0.2-0.7,0.2c-0.3,0-0.5-0.1-0.7-0.2c-0.1-0.1-0.2-0.3-0.2-0.5H220
					z"/>
				<path class="st6" d="M201.5,100.2c0-0.1,0-0.1-0.1-0.2c-0.1-0.1-0.1-0.1-0.3-0.1c-0.2,0-0.3,0.1-0.4,0.3c0,0.1-0.1,0.2-0.1,0.4
					c0,0.1,0,0.3,0.1,0.3c0.1,0.2,0.2,0.2,0.3,0.2c0.1,0,0.2,0,0.3-0.1c0.1-0.1,0.1-0.1,0.1-0.3h0.5c0,0.2-0.1,0.3-0.2,0.4
					c-0.2,0.2-0.4,0.3-0.7,0.3c-0.3,0-0.5-0.1-0.7-0.3c-0.1-0.2-0.2-0.4-0.2-0.7c0-0.3,0.1-0.6,0.2-0.8c0.2-0.2,0.4-0.3,0.7-0.3
					c0.2,0,0.4,0.1,0.6,0.2c0.2,0.1,0.2,0.3,0.3,0.6H201.5z"/>
				<path class="st6" d="M203.1,100.2c0.1,0,0.2,0,0.2,0c0.1,0,0.1-0.1,0.1-0.1c0-0.1,0-0.1-0.1-0.2c-0.1,0-0.1,0-0.2,0
					c-0.1,0-0.2,0-0.3,0.1c0,0-0.1,0.1-0.1,0.2h-0.5c0-0.2,0.1-0.3,0.1-0.4c0.1-0.2,0.4-0.3,0.7-0.3c0.2,0,0.4,0,0.6,0.1
					c0.2,0.1,0.3,0.2,0.3,0.5v0.9c0,0.1,0,0.1,0,0.2c0,0.1,0,0.1,0,0.1c0,0,0,0,0.1,0.1v0.1h-0.6c0,0,0-0.1,0-0.1c0,0,0-0.1,0-0.1
					c-0.1,0.1-0.2,0.1-0.2,0.2c-0.1,0.1-0.2,0.1-0.4,0.1c-0.2,0-0.3-0.1-0.4-0.2c-0.1-0.1-0.2-0.2-0.2-0.4c0-0.2,0.1-0.4,0.3-0.5
					c0.1-0.1,0.3-0.1,0.5-0.1L203.1,100.2z M203.5,100.5C203.4,100.5,203.4,100.5,203.5,100.5c-0.1,0.1-0.2,0.1-0.2,0.1l-0.1,0
					c-0.1,0-0.2,0-0.2,0.1c-0.1,0-0.1,0.1-0.1,0.2c0,0.1,0,0.2,0.1,0.2c0,0,0.1,0.1,0.2,0.1c0.1,0,0.2,0,0.3-0.1
					c0.1-0.1,0.1-0.2,0.1-0.4V100.5z"/>
				<path class="st6" d="M206,99.6c0.1,0.1,0.2,0.3,0.2,0.5v1.3h-0.5v-1.2c0-0.1,0-0.2,0-0.2c-0.1-0.1-0.1-0.2-0.3-0.2
					c-0.2,0-0.3,0.1-0.4,0.2c0,0.1-0.1,0.2-0.1,0.3v1.1h-0.5v-2h0.5v0.3c0.1-0.1,0.1-0.2,0.2-0.2c0.1-0.1,0.2-0.1,0.4-0.1
					C205.7,99.4,205.9,99.5,206,99.6z"/>
				<path class="st6" d="M209.4,99.7c0.1,0.2,0.2,0.4,0.2,0.7c0,0.3-0.1,0.6-0.2,0.8c-0.1,0.2-0.3,0.3-0.6,0.3c-0.2,0-0.3,0-0.4-0.1
					c-0.1,0-0.1-0.1-0.2-0.2v0.2h-0.5v-2.7h0.5v0.9c0.1-0.1,0.1-0.2,0.2-0.2c0.1-0.1,0.2-0.1,0.4-0.1
					C209,99.4,209.2,99.5,209.4,99.7z M208.9,100.9c0.1-0.1,0.1-0.2,0.1-0.4c0-0.1,0-0.3-0.1-0.3c-0.1-0.2-0.2-0.3-0.4-0.3
					c-0.2,0-0.3,0.1-0.4,0.3c0,0.1-0.1,0.2-0.1,0.3c0,0.2,0,0.3,0.1,0.4c0.1,0.1,0.2,0.2,0.3,0.2C208.8,101.1,208.9,101,208.9,100.9
					z"/>
				<path class="st6" d="M211.2,99.5c0.1,0.1,0.3,0.2,0.3,0.3c0.1,0.1,0.1,0.3,0.2,0.4c0,0.1,0,0.2,0,0.4h-1.4
					c0,0.2,0.1,0.3,0.2,0.4c0.1,0,0.2,0.1,0.3,0.1c0.1,0,0.2,0,0.3-0.1c0,0,0.1-0.1,0.1-0.1h0.5c0,0.1-0.1,0.2-0.2,0.4
					c-0.2,0.2-0.4,0.3-0.7,0.3c-0.3,0-0.5-0.1-0.7-0.2c-0.2-0.2-0.3-0.4-0.3-0.8c0-0.3,0.1-0.6,0.3-0.8c0.2-0.2,0.4-0.3,0.7-0.3
					C210.9,99.4,211.1,99.5,211.2,99.5z M210.5,100c-0.1,0.1-0.1,0.2-0.1,0.3h0.9c0-0.1-0.1-0.2-0.1-0.3c-0.1-0.1-0.2-0.1-0.3-0.1
					C210.6,99.8,210.5,99.9,210.5,100z"/>
				<path class="st6" d="M213.8,98.8c0,0,0.1,0,0.1,0v0.4c0,0-0.1,0-0.1,0c-0.1,0-0.1,0-0.1,0c0,0,0,0.1,0,0.1c0,0,0,0.1,0,0.2h0.3
					v0.4h-0.3v1.6h-0.5v-1.6h-0.3v-0.4h0.3v-0.1c0-0.2,0-0.4,0.1-0.4C213.3,98.8,213.5,98.8,213.8,98.8
					C213.8,98.8,213.8,98.8,213.8,98.8z"/>
				<path class="st6" d="M215.9,101.2c-0.2,0.2-0.4,0.3-0.8,0.3c-0.3,0-0.6-0.1-0.8-0.3c-0.2-0.2-0.2-0.5-0.2-0.7
					c0-0.3,0.1-0.5,0.2-0.7c0.2-0.2,0.4-0.3,0.8-0.3c0.3,0,0.6,0.1,0.8,0.3c0.2,0.2,0.2,0.5,0.2,0.7
					C216.2,100.8,216.1,101,215.9,101.2z M215.5,100.9c0.1-0.1,0.1-0.3,0.1-0.5c0-0.2,0-0.3-0.1-0.5c-0.1-0.1-0.2-0.2-0.3-0.2
					c-0.2,0-0.3,0.1-0.3,0.2c-0.1,0.1-0.1,0.3-0.1,0.5c0,0.2,0,0.3,0.1,0.5c0.1,0.1,0.2,0.2,0.3,0.2
					C215.3,101.1,215.4,101,215.5,100.9z"/>
				<path class="st6" d="M217,99.5v1.2c0,0.1,0,0.2,0,0.3c0,0.1,0.1,0.1,0.3,0.1c0.2,0,0.3-0.1,0.4-0.2c0-0.1,0.1-0.2,0.1-0.3v-1.1
					h0.5v2h-0.5v-0.3c0,0,0,0,0,0.1c0,0,0,0.1-0.1,0.1c-0.1,0.1-0.2,0.1-0.2,0.1c-0.1,0-0.2,0-0.3,0c-0.3,0-0.5-0.1-0.6-0.3
					c-0.1-0.1-0.1-0.3-0.1-0.5v-1.2H217z"/>
				<path class="st6" d="M220.4,99.6c0.1,0.1,0.2,0.3,0.2,0.5v1.3H220v-1.2c0-0.1,0-0.2,0-0.2c-0.1-0.1-0.1-0.2-0.3-0.2
					c-0.2,0-0.3,0.1-0.4,0.2c0,0.1-0.1,0.2-0.1,0.3v1.1h-0.5v-2h0.5v0.3c0.1-0.1,0.1-0.2,0.2-0.2c0.1-0.1,0.2-0.1,0.4-0.1
					C220.1,99.4,220.2,99.5,220.4,99.6z"/>
				<path class="st6" d="M222.1,99.5c0.1,0.1,0.2,0.1,0.2,0.2v-0.9h0.5v2.7h-0.5v-0.3c-0.1,0.1-0.2,0.2-0.3,0.3
					c-0.1,0.1-0.2,0.1-0.3,0.1c-0.2,0-0.4-0.1-0.6-0.3c-0.2-0.2-0.2-0.4-0.2-0.7c0-0.3,0.1-0.6,0.2-0.8c0.2-0.2,0.4-0.3,0.6-0.3
					C221.9,99.4,222,99.5,222.1,99.5z M222.2,100.9c0.1-0.1,0.1-0.2,0.1-0.4c0-0.2-0.1-0.4-0.2-0.5c-0.1-0.1-0.2-0.1-0.3-0.1
					c-0.2,0-0.3,0.1-0.3,0.2c-0.1,0.1-0.1,0.3-0.1,0.4c0,0.2,0,0.3,0.1,0.4c0.1,0.1,0.2,0.2,0.3,0.2
					C222,101.1,222.1,101,222.2,100.9z"/>
				<path class="st6" d="M223.3,101.9c0.1,0,0.2-0.1,0.2-0.1c0-0.1,0.1-0.2,0.1-0.3h-0.3v-0.5h0.6v0.5c0,0.1,0,0.2,0,0.3
					c0,0.1-0.1,0.2-0.1,0.2c-0.1,0.1-0.1,0.1-0.2,0.2c-0.1,0-0.1,0.1-0.2,0.1V101.9z"/>
				<path class="st6" d="M203.9,103.9c0.1,0.1,0.3,0.2,0.3,0.3c0.1,0.1,0.1,0.3,0.2,0.4c0,0.1,0,0.2,0,0.4H203
					c0,0.2,0.1,0.3,0.2,0.4c0.1,0,0.2,0.1,0.3,0.1c0.1,0,0.2,0,0.3-0.1c0,0,0.1-0.1,0.1-0.1h0.5c0,0.1-0.1,0.2-0.2,0.4
					c-0.2,0.2-0.4,0.3-0.7,0.3c-0.3,0-0.5-0.1-0.7-0.2c-0.2-0.2-0.3-0.4-0.3-0.8c0-0.3,0.1-0.6,0.3-0.8c0.2-0.2,0.4-0.3,0.7-0.3
					C203.7,103.9,203.8,103.9,203.9,103.9z M203.2,104.4c-0.1,0.1-0.1,0.2-0.1,0.3h0.9c0-0.1-0.1-0.2-0.1-0.3s-0.2-0.1-0.3-0.1
					C203.4,104.3,203.2,104.3,203.2,104.4z"/>
				<path class="st6" d="M205.9,103.9h0.6l-0.7,2h-0.5l-0.7-2h0.6l0.4,1.5L205.9,103.9z"/>
				<path class="st6" d="M208.1,103.9c0.1,0.1,0.3,0.2,0.3,0.3c0.1,0.1,0.1,0.3,0.2,0.4c0,0.1,0,0.2,0,0.4h-1.4
					c0,0.2,0.1,0.3,0.2,0.4c0.1,0,0.2,0.1,0.3,0.1c0.1,0,0.2,0,0.3-0.1c0,0,0.1-0.1,0.1-0.1h0.5c0,0.1-0.1,0.2-0.2,0.4
					c-0.2,0.2-0.4,0.3-0.7,0.3c-0.3,0-0.5-0.1-0.7-0.2c-0.2-0.2-0.3-0.4-0.3-0.8c0-0.3,0.1-0.6,0.3-0.8c0.2-0.2,0.4-0.3,0.7-0.3
					C207.8,103.9,207.9,103.9,208.1,103.9z M207.3,104.4c-0.1,0.1-0.1,0.2-0.1,0.3h0.9c0-0.1-0.1-0.2-0.1-0.3
					c-0.1-0.1-0.2-0.1-0.3-0.1C207.5,104.3,207.4,104.3,207.3,104.4z"/>
				<path class="st6" d="M210.4,104c0.1,0.1,0.2,0.3,0.2,0.5v1.3h-0.5v-1.2c0-0.1,0-0.2,0-0.2c-0.1-0.1-0.1-0.2-0.3-0.2
					c-0.2,0-0.3,0.1-0.4,0.2c0,0.1-0.1,0.2-0.1,0.3v1.1h-0.5v-2h0.5v0.3c0.1-0.1,0.1-0.2,0.2-0.2c0.1-0.1,0.2-0.1,0.4-0.1
					C210.1,103.9,210.3,103.9,210.4,104z"/>
				<path class="st6" d="M212.6,103.7h-0.5v-0.5h0.5V103.7z M212.1,103.9h0.5v2h-0.5V103.9z"/>
				<path class="st6" d="M214.7,104c0.1,0.1,0.2,0.3,0.2,0.5v1.3h-0.5v-1.2c0-0.1,0-0.2,0-0.2c-0.1-0.1-0.1-0.2-0.3-0.2
					c-0.2,0-0.3,0.1-0.4,0.2c0,0.1-0.1,0.2-0.1,0.3v1.1h-0.5v-2h0.5v0.3c0.1-0.1,0.1-0.2,0.2-0.2c0.1-0.1,0.2-0.1,0.4-0.1
					C214.4,103.9,214.6,103.9,214.7,104z"/>
				<path class="st6" d="M216.2,104.3v-0.4h0.3v-0.5h0.5v0.5h0.3v0.4H217v1c0,0.1,0,0.1,0,0.2c0,0,0.1,0,0.2,0c0,0,0,0,0,0
					s0,0,0.1,0v0.4l-0.2,0c-0.2,0-0.4,0-0.5-0.1c-0.1-0.1-0.1-0.1-0.1-0.3v-1.2H216.2z"/>
				<path class="st6" d="M219.1,103.9c0.1,0,0.2,0.1,0.2,0.2c0.1,0.1,0.1,0.1,0.1,0.2c0,0.1,0,0.2,0,0.4v1.2h-0.5v-1.2
					c0-0.1,0-0.2-0.1-0.3c0-0.1-0.1-0.1-0.3-0.1c-0.1,0-0.2,0-0.3,0.1c-0.1,0.1-0.1,0.2-0.1,0.4v1.1h-0.5v-2.6h0.5v0.9
					c0.1-0.1,0.2-0.2,0.3-0.2c0.1,0,0.2-0.1,0.3-0.1C218.9,103.9,219,103.9,219.1,103.9z"/>
				<path class="st6" d="M221.2,103.9c0.1,0.1,0.3,0.2,0.3,0.3c0.1,0.1,0.1,0.3,0.2,0.4c0,0.1,0,0.2,0,0.4h-1.4
					c0,0.2,0.1,0.3,0.2,0.4c0.1,0,0.2,0.1,0.3,0.1c0.1,0,0.2,0,0.3-0.1c0,0,0.1-0.1,0.1-0.1h0.5c0,0.1-0.1,0.2-0.2,0.4
					c-0.2,0.2-0.4,0.3-0.7,0.3c-0.3,0-0.5-0.1-0.7-0.2c-0.2-0.2-0.3-0.4-0.3-0.8c0-0.3,0.1-0.6,0.3-0.8c0.2-0.2,0.4-0.3,0.7-0.3
					C220.9,103.9,221,103.9,221.2,103.9z M220.4,104.4c-0.1,0.1-0.1,0.2-0.1,0.3h0.9c0-0.1-0.1-0.2-0.1-0.3s-0.2-0.1-0.3-0.1
					C220.6,104.3,220.5,104.3,220.4,104.4z"/>
				<path class="st6" d="M198.7,108.4c0.1,0.1,0.2,0.1,0.2,0.2v-0.9h0.5v2.7h-0.5V110c-0.1,0.1-0.2,0.2-0.3,0.3
					c-0.1,0.1-0.2,0.1-0.3,0.1c-0.2,0-0.4-0.1-0.6-0.3c-0.2-0.2-0.2-0.4-0.2-0.7c0-0.3,0.1-0.6,0.2-0.8c0.2-0.2,0.4-0.3,0.6-0.3
					C198.5,108.3,198.6,108.3,198.7,108.4z M198.8,109.8c0.1-0.1,0.1-0.2,0.1-0.4c0-0.2-0.1-0.4-0.2-0.5c-0.1-0.1-0.2-0.1-0.3-0.1
					c-0.2,0-0.3,0.1-0.3,0.2c-0.1,0.1-0.1,0.3-0.1,0.4c0,0.2,0,0.3,0.1,0.4c0.1,0.1,0.2,0.2,0.3,0.2
					C198.6,109.9,198.7,109.9,198.8,109.8z"/>
				<path class="st6" d="M200.7,109.1c0.1,0,0.2,0,0.2,0c0.1,0,0.1-0.1,0.1-0.1c0-0.1,0-0.1-0.1-0.2c-0.1,0-0.1,0-0.2,0
					c-0.1,0-0.2,0-0.3,0.1c0,0-0.1,0.1-0.1,0.2h-0.5c0-0.2,0.1-0.3,0.1-0.4c0.1-0.2,0.4-0.3,0.7-0.3c0.2,0,0.4,0,0.6,0.1
					c0.2,0.1,0.3,0.2,0.3,0.5v0.9c0,0.1,0,0.1,0,0.2c0,0.1,0,0.1,0,0.1c0,0,0,0,0.1,0.1v0.1H201c0,0,0-0.1,0-0.1c0,0,0-0.1,0-0.1
					c-0.1,0.1-0.2,0.1-0.2,0.2c-0.1,0.1-0.2,0.1-0.4,0.1c-0.2,0-0.3-0.1-0.4-0.2c-0.1-0.1-0.2-0.2-0.2-0.4c0-0.2,0.1-0.4,0.3-0.5
					c0.1-0.1,0.3-0.1,0.5-0.1L200.7,109.1z M201,109.4C201,109.4,200.9,109.4,201,109.4c-0.1,0.1-0.2,0.1-0.2,0.1l-0.1,0
					c-0.1,0-0.2,0-0.2,0.1c-0.1,0-0.1,0.1-0.1,0.2c0,0.1,0,0.2,0.1,0.2c0,0,0.1,0.1,0.2,0.1c0.1,0,0.2,0,0.3-0.1
					c0.1-0.1,0.1-0.2,0.1-0.4V109.4z"/>
				<path class="st6" d="M203,108.3C203,108.3,203.1,108.3,203,108.3l0,0.5c0,0-0.1,0-0.1,0c0,0,0,0-0.1,0c-0.2,0-0.3,0.1-0.4,0.2
					c0,0.1-0.1,0.2-0.1,0.3v0.9h-0.5v-2h0.5v0.3c0.1-0.1,0.1-0.2,0.2-0.3C202.7,108.3,202.9,108.3,203,108.3
					C203,108.3,203,108.3,203,108.3z"/>
				<path class="st6" d="M203.4,107.7h0.5v1.4l0.6-0.7h0.6l-0.7,0.7l0.7,1.2h-0.6l-0.5-0.8l-0.2,0.2v0.6h-0.5V107.7z"/>
				<path class="st6" d="M206.7,108.4c0.1,0.1,0.3,0.2,0.3,0.3c0.1,0.1,0.1,0.3,0.2,0.4c0,0.1,0,0.2,0,0.4h-1.4
					c0,0.2,0.1,0.3,0.2,0.4c0.1,0,0.2,0.1,0.3,0.1c0.1,0,0.2,0,0.3-0.1c0,0,0.1-0.1,0.1-0.1h0.5c0,0.1-0.1,0.2-0.2,0.4
					c-0.2,0.2-0.4,0.3-0.7,0.3c-0.3,0-0.5-0.1-0.7-0.2c-0.2-0.2-0.3-0.4-0.3-0.8c0-0.3,0.1-0.6,0.3-0.8c0.2-0.2,0.4-0.3,0.7-0.3
					C206.4,108.3,206.6,108.3,206.7,108.4z M205.9,108.8c-0.1,0.1-0.1,0.2-0.1,0.3h0.9c0-0.1-0.1-0.2-0.1-0.3s-0.2-0.1-0.3-0.1
					C206.1,108.7,206,108.7,205.9,108.8z"/>
				<path class="st6" d="M207.9,109.7c0,0.1,0,0.2,0.1,0.2c0.1,0.1,0.2,0.1,0.4,0.1c0.1,0,0.2,0,0.2,0c0.1,0,0.1-0.1,0.1-0.1
					c0-0.1,0-0.1-0.1-0.1c0,0-0.2-0.1-0.5-0.2c-0.2-0.1-0.4-0.1-0.5-0.2c-0.1-0.1-0.1-0.2-0.1-0.4c0-0.2,0.1-0.3,0.2-0.5
					c0.1-0.1,0.3-0.2,0.6-0.2c0.2,0,0.4,0,0.6,0.1c0.2,0.1,0.2,0.3,0.3,0.5h-0.5c0-0.1,0-0.1-0.1-0.2c-0.1-0.1-0.2-0.1-0.3-0.1
					c-0.1,0-0.2,0-0.2,0.1c0,0-0.1,0.1-0.1,0.1c0,0.1,0,0.1,0.1,0.1c0.1,0,0.2,0.1,0.5,0.1c0.2,0,0.4,0.1,0.5,0.2
					c0.1,0.1,0.2,0.2,0.2,0.4c0,0.2-0.1,0.4-0.2,0.5c-0.1,0.1-0.4,0.2-0.7,0.2c-0.3,0-0.5-0.1-0.7-0.2c-0.1-0.1-0.2-0.3-0.2-0.5
					H207.9z"/>
				<path class="st6" d="M209.3,108.7v-0.4h0.3v-0.5h0.5v0.5h0.3v0.4h-0.3v1c0,0.1,0,0.1,0,0.2c0,0,0.1,0,0.2,0c0,0,0,0,0,0
					s0,0,0.1,0v0.4l-0.2,0c-0.2,0-0.4,0-0.5-0.1c-0.1-0.1-0.1-0.1-0.1-0.3v-1.2H209.3z"/>
				<path class="st6" d="M213.4,110.1c-0.2,0.2-0.4,0.3-0.8,0.3s-0.6-0.1-0.8-0.3c-0.2-0.2-0.2-0.5-0.2-0.7c0-0.3,0.1-0.5,0.2-0.7
					c0.2-0.2,0.4-0.3,0.8-0.3s0.6,0.1,0.8,0.3c0.2,0.2,0.2,0.5,0.2,0.7C213.7,109.6,213.6,109.9,213.4,110.1z M213,109.8
					c0.1-0.1,0.1-0.3,0.1-0.5c0-0.2,0-0.3-0.1-0.5c-0.1-0.1-0.2-0.2-0.3-0.2c-0.2,0-0.3,0.1-0.3,0.2c-0.1,0.1-0.1,0.3-0.1,0.5
					c0,0.2,0,0.3,0.1,0.5c0.1,0.1,0.2,0.2,0.3,0.2C212.8,109.9,212.9,109.9,213,109.8z"/>
				<path class="st6" d="M214.9,107.6c0,0,0.1,0,0.1,0v0.4c0,0-0.1,0-0.1,0c-0.1,0-0.1,0-0.1,0c0,0,0,0.1,0,0.1s0,0.1,0,0.2h0.3v0.4
					h-0.3v1.6h-0.5v-1.6h-0.3v-0.4h0.3v-0.1c0-0.2,0-0.4,0.1-0.4C214.3,107.7,214.5,107.6,214.9,107.6
					C214.8,107.6,214.8,107.6,214.9,107.6z"/>
				<path class="st6" d="M216.1,108.7v-0.4h0.3v-0.5h0.5v0.5h0.3v0.4h-0.3v1c0,0.1,0,0.1,0,0.2c0,0,0.1,0,0.2,0c0,0,0,0,0,0
					s0,0,0.1,0v0.4l-0.2,0c-0.2,0-0.4,0-0.5-0.1c-0.1-0.1-0.1-0.1-0.1-0.3v-1.2H216.1z"/>
				<path class="st6" d="M218.1,108.1h-0.5v-0.5h0.5V108.1z M217.6,108.3h0.5v2h-0.5V108.3z"/>
				<path class="st6" d="M221,108.3c0.1,0,0.2,0.1,0.2,0.2c0.1,0.1,0.1,0.2,0.1,0.3c0,0.1,0,0.2,0,0.3l0,1.2h-0.5v-1.3
					c0-0.1,0-0.1,0-0.2c0-0.1-0.1-0.1-0.3-0.1c-0.1,0-0.2,0.1-0.3,0.2c0,0.1,0,0.1,0,0.2v1.2h-0.5v-1.2c0-0.1,0-0.2,0-0.3
					c0-0.1-0.1-0.1-0.3-0.1c-0.1,0-0.2,0-0.3,0.1c0,0.1,0,0.1,0,0.2v1.2h-0.5v-2h0.5v0.3c0.1-0.1,0.1-0.2,0.2-0.2
					c0.1-0.1,0.2-0.1,0.4-0.1c0.2,0,0.3,0,0.4,0.1c0.1,0.1,0.1,0.1,0.2,0.2c0.1-0.1,0.2-0.2,0.3-0.3c0.1-0.1,0.2-0.1,0.4-0.1
					C220.9,108.3,220.9,108.3,221,108.3z"/>
				<path class="st6" d="M223.1,108.4c0.1,0.1,0.3,0.2,0.3,0.3c0.1,0.1,0.1,0.3,0.2,0.4c0,0.1,0,0.2,0,0.4h-1.4
					c0,0.2,0.1,0.3,0.2,0.4c0.1,0,0.2,0.1,0.3,0.1c0.1,0,0.2,0,0.3-0.1c0,0,0.1-0.1,0.1-0.1h0.5c0,0.1-0.1,0.2-0.2,0.4
					c-0.2,0.2-0.4,0.3-0.7,0.3c-0.3,0-0.5-0.1-0.7-0.2c-0.2-0.2-0.3-0.4-0.3-0.8c0-0.3,0.1-0.6,0.3-0.8c0.2-0.2,0.4-0.3,0.7-0.3
					C222.8,108.3,223,108.3,223.1,108.4z M222.4,108.8c-0.1,0.1-0.1,0.2-0.1,0.3h0.9c0-0.1-0.1-0.2-0.1-0.3s-0.2-0.1-0.3-0.1
					C222.5,108.7,222.4,108.7,222.4,108.8z"/>
				<path class="st6" d="M224.3,109.7c0,0.1,0,0.2,0.1,0.2c0.1,0.1,0.2,0.1,0.4,0.1c0.1,0,0.2,0,0.2,0c0.1,0,0.1-0.1,0.1-0.1
					c0-0.1,0-0.1-0.1-0.1c0,0-0.2-0.1-0.5-0.2c-0.2-0.1-0.4-0.1-0.5-0.2c-0.1-0.1-0.1-0.2-0.1-0.4c0-0.2,0.1-0.3,0.2-0.5
					c0.1-0.1,0.3-0.2,0.6-0.2c0.2,0,0.4,0,0.6,0.1c0.2,0.1,0.2,0.3,0.3,0.5H225c0-0.1,0-0.1-0.1-0.2c-0.1-0.1-0.2-0.1-0.3-0.1
					c-0.1,0-0.2,0-0.2,0.1c0,0-0.1,0.1-0.1,0.1c0,0.1,0,0.1,0.1,0.1c0.1,0,0.2,0.1,0.5,0.1c0.2,0,0.4,0.1,0.5,0.2
					c0.1,0.1,0.2,0.2,0.2,0.4c0,0.2-0.1,0.4-0.2,0.5c-0.1,0.1-0.4,0.2-0.7,0.2c-0.3,0-0.5-0.1-0.7-0.2c-0.1-0.1-0.2-0.3-0.2-0.5
					H224.3z"/>
				<path class="st6" d="M225.9,110.7c0.1,0,0.2-0.1,0.2-0.1s0.1-0.2,0.1-0.3h-0.3v-0.5h0.6v0.5c0,0.1,0,0.2,0,0.3
					c0,0.1-0.1,0.2-0.1,0.2c-0.1,0.1-0.1,0.1-0.2,0.2c-0.1,0-0.1,0.1-0.2,0.1V110.7z"/>
				<path class="st6" d="M203.6,112.5h-0.5v-0.5h0.5V112.5z M203.1,112.8h0.5v2h-0.5V112.8z"/>
				<path class="st6" d="M204.9,112.1c0,0,0.1,0,0.1,0v0.4c0,0-0.1,0-0.1,0c-0.1,0-0.1,0-0.1,0c0,0,0,0.1,0,0.1c0,0,0,0.1,0,0.2h0.3
					v0.4h-0.3v1.6h-0.5v-1.6h-0.3v-0.4h0.3v-0.1c0-0.2,0-0.4,0.1-0.4C204.4,112.1,204.5,112.1,204.9,112.1
					C204.9,112.1,204.9,112.1,204.9,112.1z"/>
				<path class="st6" d="M208,114.5c-0.2,0.2-0.4,0.3-0.8,0.3c-0.3,0-0.6-0.1-0.8-0.3c-0.2-0.2-0.2-0.5-0.2-0.7
					c0-0.3,0.1-0.5,0.2-0.7c0.2-0.2,0.4-0.3,0.8-0.3c0.3,0,0.6,0.1,0.8,0.3c0.2,0.2,0.2,0.5,0.2,0.7
					C208.2,114,208.2,114.3,208,114.5z M207.6,114.2c0.1-0.1,0.1-0.3,0.1-0.5c0-0.2,0-0.3-0.1-0.5c-0.1-0.1-0.2-0.2-0.3-0.2
					c-0.2,0-0.3,0.1-0.3,0.2c-0.1,0.1-0.1,0.3-0.1,0.5c0,0.2,0,0.3,0.1,0.5c0.1,0.1,0.2,0.2,0.3,0.2
					C207.4,114.4,207.5,114.3,207.6,114.2z"/>
				<path class="st6" d="M210.2,112.9c0.1,0.1,0.2,0.3,0.2,0.5v1.3h-0.5v-1.2c0-0.1,0-0.2,0-0.2c-0.1-0.1-0.1-0.2-0.3-0.2
					c-0.2,0-0.3,0.1-0.4,0.2c0,0.1-0.1,0.2-0.1,0.3v1.1h-0.5v-2h0.5v0.3c0.1-0.1,0.1-0.2,0.2-0.2c0.1-0.1,0.2-0.1,0.4-0.1
					C209.9,112.7,210.1,112.8,210.2,112.9z"/>
				<path class="st6" d="M212.2,112.8c0.1,0.1,0.3,0.2,0.3,0.3c0.1,0.1,0.1,0.3,0.2,0.4c0,0.1,0,0.2,0,0.4h-1.4
					c0,0.2,0.1,0.3,0.2,0.4c0.1,0,0.2,0.1,0.3,0.1c0.1,0,0.2,0,0.3-0.1c0,0,0.1-0.1,0.1-0.1h0.5c0,0.1-0.1,0.2-0.2,0.4
					c-0.2,0.2-0.4,0.3-0.7,0.3c-0.3,0-0.5-0.1-0.7-0.2c-0.2-0.2-0.3-0.4-0.3-0.8c0-0.3,0.1-0.6,0.3-0.8c0.2-0.2,0.4-0.3,0.7-0.3
					C211.9,112.7,212,112.8,212.2,112.8z M211.4,113.3c-0.1,0.1-0.1,0.2-0.1,0.3h0.9c0-0.1-0.1-0.2-0.1-0.3
					c-0.1-0.1-0.2-0.1-0.3-0.1C211.6,113.1,211.5,113.2,211.4,113.3z"/>
				<path class="st6" d="M215.6,114.5c-0.2,0.2-0.4,0.3-0.8,0.3c-0.3,0-0.6-0.1-0.8-0.3c-0.2-0.2-0.2-0.5-0.2-0.7
					c0-0.3,0.1-0.5,0.2-0.7c0.2-0.2,0.4-0.3,0.8-0.3c0.3,0,0.6,0.1,0.8,0.3c0.2,0.2,0.2,0.5,0.2,0.7
					C215.8,114,215.8,114.3,215.6,114.5z M215.2,114.2c0.1-0.1,0.1-0.3,0.1-0.5c0-0.2,0-0.3-0.1-0.5c-0.1-0.1-0.2-0.2-0.3-0.2
					c-0.2,0-0.3,0.1-0.3,0.2c-0.1,0.1-0.1,0.3-0.1,0.5c0,0.2,0,0.3,0.1,0.5c0.1,0.1,0.2,0.2,0.3,0.2
					C215,114.4,215.1,114.3,215.2,114.2z"/>
				<path class="st6" d="M217.8,112.9c0.1,0.1,0.2,0.3,0.2,0.5v1.3h-0.5v-1.2c0-0.1,0-0.2,0-0.2c-0.1-0.1-0.1-0.2-0.3-0.2
					c-0.2,0-0.3,0.1-0.4,0.2c0,0.1-0.1,0.2-0.1,0.3v1.1h-0.5v-2h0.5v0.3c0.1-0.1,0.1-0.2,0.2-0.2c0.1-0.1,0.2-0.1,0.4-0.1
					C217.5,112.7,217.7,112.8,217.8,112.9z"/>
				<path class="st6" d="M219,114.7h-0.5v-2.7h0.5V114.7z"/>
				<path class="st6" d="M219.6,115.1L219.6,115.1c0.1,0,0.2,0,0.2,0c0,0,0.1,0,0.1,0c0,0,0.1-0.1,0.1-0.1c0-0.1,0-0.1,0-0.1
					l-0.7-2.1h0.6l0.4,1.5l0.4-1.5h0.5l-0.7,1.9c-0.1,0.4-0.2,0.6-0.3,0.7c-0.1,0.1-0.2,0.1-0.5,0.1c0,0-0.1,0-0.1,0
					c0,0-0.1,0-0.1,0V115.1z"/>
				<path class="st6" d="M201.2,117.2C201.2,117.2,201.2,117.2,201.2,117.2l0,0.5c0,0-0.1,0-0.1,0c0,0,0,0-0.1,0
					c-0.2,0-0.3,0.1-0.4,0.2c0,0.1-0.1,0.2-0.1,0.3v0.9h-0.5v-2h0.5v0.3c0.1-0.1,0.1-0.2,0.2-0.3C200.9,117.2,201,117.2,201.2,117.2
					C201.2,117.2,201.2,117.2,201.2,117.2z"/>
				<path class="st6" d="M202.8,117.2c0.1,0.1,0.3,0.2,0.3,0.3c0.1,0.1,0.1,0.3,0.2,0.4c0,0.1,0,0.2,0,0.4h-1.4
					c0,0.2,0.1,0.3,0.2,0.4c0.1,0,0.2,0.1,0.3,0.1c0.1,0,0.2,0,0.3-0.1c0,0,0.1-0.1,0.1-0.1h0.5c0,0.1-0.1,0.2-0.2,0.4
					c-0.2,0.2-0.4,0.3-0.7,0.3c-0.3,0-0.5-0.1-0.7-0.2c-0.2-0.2-0.3-0.4-0.3-0.8c0-0.3,0.1-0.6,0.3-0.8c0.2-0.2,0.4-0.3,0.7-0.3
					C202.5,117.2,202.7,117.2,202.8,117.2z M202,117.7c-0.1,0.1-0.1,0.2-0.1,0.3h0.9c0-0.1-0.1-0.2-0.1-0.3
					c-0.1-0.1-0.2-0.1-0.3-0.1C202.2,117.6,202.1,117.6,202,117.7z"/>
				<path class="st6" d="M206,117.2c0.1,0,0.2,0.1,0.2,0.2c0.1,0.1,0.1,0.2,0.1,0.3c0,0.1,0,0.2,0,0.3l0,1.2h-0.5v-1.3
					c0-0.1,0-0.1,0-0.2c0-0.1-0.1-0.1-0.3-0.1c-0.1,0-0.2,0.1-0.3,0.2c0,0.1,0,0.1,0,0.2v1.2h-0.5V118c0-0.1,0-0.2,0-0.3
					c0-0.1-0.1-0.1-0.3-0.1c-0.1,0-0.2,0-0.3,0.1c0,0.1,0,0.1,0,0.2v1.2h-0.5v-2h0.5v0.3c0.1-0.1,0.1-0.2,0.2-0.2
					c0.1-0.1,0.2-0.1,0.4-0.1c0.2,0,0.3,0,0.4,0.1c0.1,0.1,0.1,0.1,0.2,0.2c0.1-0.1,0.2-0.2,0.3-0.3c0.1-0.1,0.2-0.1,0.4-0.1
					C205.9,117.2,206,117.2,206,117.2z"/>
				<path class="st6" d="M208.2,117.2c0.1,0.1,0.3,0.2,0.3,0.3c0.1,0.1,0.1,0.3,0.2,0.4c0,0.1,0,0.2,0,0.4h-1.4
					c0,0.2,0.1,0.3,0.2,0.4c0.1,0,0.2,0.1,0.3,0.1c0.1,0,0.2,0,0.3-0.1c0,0,0.1-0.1,0.1-0.1h0.5c0,0.1-0.1,0.2-0.2,0.4
					c-0.2,0.2-0.4,0.3-0.7,0.3c-0.3,0-0.5-0.1-0.7-0.2c-0.2-0.2-0.3-0.4-0.3-0.8c0-0.3,0.1-0.6,0.3-0.8c0.2-0.2,0.4-0.3,0.7-0.3
					C207.9,117.2,208,117.2,208.2,117.2z M207.4,117.7c-0.1,0.1-0.1,0.2-0.1,0.3h0.9c0-0.1-0.1-0.2-0.1-0.3s-0.2-0.1-0.3-0.1
					C207.6,117.6,207.5,117.6,207.4,117.7z"/>
				<path class="st6" d="M211.4,117.2c0.1,0,0.2,0.1,0.2,0.2c0.1,0.1,0.1,0.2,0.1,0.3c0,0.1,0,0.2,0,0.3l0,1.2h-0.5v-1.3
					c0-0.1,0-0.1,0-0.2c0-0.1-0.1-0.1-0.3-0.1c-0.1,0-0.2,0.1-0.3,0.2c0,0.1,0,0.1,0,0.2v1.2h-0.5V118c0-0.1,0-0.2,0-0.3
					c0-0.1-0.1-0.1-0.3-0.1c-0.1,0-0.2,0-0.3,0.1c0,0.1,0,0.1,0,0.2v1.2h-0.5v-2h0.5v0.3c0.1-0.1,0.1-0.2,0.2-0.2
					c0.1-0.1,0.2-0.1,0.4-0.1c0.2,0,0.3,0,0.4,0.1c0.1,0.1,0.1,0.1,0.2,0.2c0.1-0.1,0.2-0.2,0.3-0.3c0.1-0.1,0.2-0.1,0.4-0.1
					C211.2,117.2,211.3,117.2,211.4,117.2z"/>
				<path class="st6" d="M213.9,117.4c0.1,0.2,0.2,0.4,0.2,0.7c0,0.3-0.1,0.6-0.2,0.8c-0.1,0.2-0.3,0.3-0.6,0.3
					c-0.2,0-0.3,0-0.4-0.1c-0.1,0-0.1-0.1-0.2-0.2v0.2h-0.5v-2.7h0.5v0.9c0.1-0.1,0.1-0.2,0.2-0.2c0.1-0.1,0.2-0.1,0.4-0.1
					C213.5,117.2,213.7,117.3,213.9,117.4z M213.5,118.6c0.1-0.1,0.1-0.2,0.1-0.4c0-0.1,0-0.3-0.1-0.3c-0.1-0.2-0.2-0.3-0.4-0.3
					c-0.2,0-0.3,0.1-0.4,0.3c0,0.1-0.1,0.2-0.1,0.3c0,0.2,0,0.3,0.1,0.4c0.1,0.1,0.2,0.2,0.3,0.2
					C213.3,118.8,213.4,118.7,213.5,118.6z"/>
				<path class="st6" d="M215.7,117.2c0.1,0.1,0.3,0.2,0.3,0.3c0.1,0.1,0.1,0.3,0.2,0.4c0,0.1,0,0.2,0,0.4h-1.4
					c0,0.2,0.1,0.3,0.2,0.4c0.1,0,0.2,0.1,0.3,0.1c0.1,0,0.2,0,0.3-0.1c0,0,0.1-0.1,0.1-0.1h0.5c0,0.1-0.1,0.2-0.2,0.4
					c-0.2,0.2-0.4,0.3-0.7,0.3c-0.3,0-0.5-0.1-0.7-0.2c-0.2-0.2-0.3-0.4-0.3-0.8c0-0.3,0.1-0.6,0.3-0.8c0.2-0.2,0.4-0.3,0.7-0.3
					C215.5,117.2,215.6,117.2,215.7,117.2z M215,117.7c-0.1,0.1-0.1,0.2-0.1,0.3h0.9c0-0.1-0.1-0.2-0.1-0.3s-0.2-0.1-0.3-0.1
					C215.2,117.6,215.1,117.6,215,117.7z"/>
				<path class="st6" d="M217.6,117.2C217.6,117.2,217.6,117.2,217.6,117.2l0,0.5c0,0-0.1,0-0.1,0c0,0,0,0-0.1,0
					c-0.2,0-0.3,0.1-0.4,0.2c0,0.1-0.1,0.2-0.1,0.3v0.9h-0.5v-2h0.5v0.3c0.1-0.1,0.1-0.2,0.2-0.3
					C217.3,117.2,217.4,117.2,217.6,117.2C217.6,117.2,217.6,117.2,217.6,117.2z"/>
				<path class="st6" d="M218.4,118.5c0,0.1,0,0.2,0.1,0.2c0.1,0.1,0.2,0.1,0.4,0.1c0.1,0,0.2,0,0.2,0c0.1,0,0.1-0.1,0.1-0.1
					c0-0.1,0-0.1-0.1-0.1c0,0-0.2-0.1-0.5-0.2c-0.2-0.1-0.4-0.1-0.5-0.2c-0.1-0.1-0.1-0.2-0.1-0.4c0-0.2,0.1-0.3,0.2-0.5
					c0.1-0.1,0.3-0.2,0.6-0.2c0.2,0,0.4,0,0.6,0.1c0.2,0.1,0.2,0.3,0.3,0.5h-0.5c0-0.1,0-0.1-0.1-0.2c-0.1-0.1-0.2-0.1-0.3-0.1
					c-0.1,0-0.2,0-0.2,0.1c0,0-0.1,0.1-0.1,0.1c0,0.1,0,0.1,0.1,0.1c0.1,0,0.2,0.1,0.5,0.1c0.2,0,0.4,0.1,0.5,0.2
					c0.1,0.1,0.2,0.2,0.2,0.4c0,0.2-0.1,0.4-0.2,0.5c-0.1,0.1-0.4,0.2-0.7,0.2c-0.3,0-0.5-0.1-0.7-0.2c-0.1-0.1-0.2-0.3-0.2-0.5
					H218.4z"/>
				<path class="st6" d="M220.8,117.6v-0.4h0.3v-0.5h0.5v0.5h0.3v0.4h-0.3v1c0,0.1,0,0.1,0,0.2c0,0,0.1,0,0.2,0c0,0,0,0,0,0
					s0,0,0.1,0v0.4l-0.2,0c-0.2,0-0.4,0-0.5-0.1c-0.1-0.1-0.1-0.1-0.1-0.3v-1.2H220.8z"/>
				<path class="st6" d="M223.9,118.9c-0.2,0.2-0.4,0.3-0.8,0.3c-0.3,0-0.6-0.1-0.8-0.3c-0.2-0.2-0.2-0.5-0.2-0.7
					c0-0.3,0.1-0.5,0.2-0.7c0.2-0.2,0.4-0.3,0.8-0.3c0.3,0,0.6,0.1,0.8,0.3c0.2,0.2,0.2,0.5,0.2,0.7
					C224.2,118.5,224.1,118.7,223.9,118.9z M223.5,118.6c0.1-0.1,0.1-0.3,0.1-0.5c0-0.2,0-0.3-0.1-0.5c-0.1-0.1-0.2-0.2-0.3-0.2
					c-0.2,0-0.3,0.1-0.3,0.2c-0.1,0.1-0.1,0.3-0.1,0.5c0,0.2,0,0.3,0.1,0.5c0.1,0.1,0.2,0.2,0.3,0.2
					C223.3,118.8,223.4,118.8,223.5,118.6z"/>
				<path class="st6" d="M198.1,122v-0.4h0.3v-0.5h0.5v0.5h0.3v0.4h-0.3v1c0,0.1,0,0.1,0,0.2c0,0,0.1,0,0.2,0c0,0,0,0,0,0s0,0,0.1,0
					v0.4l-0.2,0c-0.2,0-0.4,0-0.5-0.1c-0.1-0.1-0.1-0.1-0.1-0.3V122H198.1z"/>
				<path class="st6" d="M200,121.6v1.2c0,0.1,0,0.2,0,0.3c0,0.1,0.1,0.1,0.3,0.1c0.2,0,0.3-0.1,0.4-0.2c0-0.1,0.1-0.2,0.1-0.3v-1.1
					h0.5v2h-0.5v-0.3c0,0,0,0,0,0.1c0,0,0,0.1-0.1,0.1c-0.1,0.1-0.2,0.1-0.2,0.1c-0.1,0-0.2,0-0.3,0c-0.3,0-0.5-0.1-0.6-0.3
					c-0.1-0.1-0.1-0.3-0.1-0.5v-1.2H200z"/>
				<path class="st6" d="M202.8,121.6C202.8,121.6,202.9,121.6,202.8,121.6l0,0.5c0,0-0.1,0-0.1,0c0,0,0,0-0.1,0
					c-0.2,0-0.3,0.1-0.4,0.2c0,0.1-0.1,0.2-0.1,0.3v0.9h-0.5v-2h0.5v0.3c0.1-0.1,0.1-0.2,0.2-0.3
					C202.5,121.6,202.7,121.6,202.8,121.6C202.8,121.6,202.8,121.6,202.8,121.6z"/>
				<path class="st6" d="M204.8,121.7c0.1,0.1,0.2,0.3,0.2,0.5v1.3h-0.5v-1.2c0-0.1,0-0.2,0-0.2c-0.1-0.1-0.1-0.2-0.3-0.2
					c-0.2,0-0.3,0.1-0.4,0.2c0,0.1-0.1,0.2-0.1,0.3v1.1h-0.5v-2h0.5v0.3c0.1-0.1,0.1-0.2,0.2-0.2c0.1-0.1,0.2-0.1,0.4-0.1
					C204.5,121.6,204.6,121.6,204.8,121.7z"/>
				<path class="st6" d="M208.1,123.4c-0.2,0.2-0.4,0.3-0.8,0.3c-0.3,0-0.6-0.1-0.8-0.3c-0.2-0.2-0.2-0.5-0.2-0.7
					c0-0.3,0.1-0.5,0.2-0.7c0.2-0.2,0.4-0.3,0.8-0.3c0.3,0,0.6,0.1,0.8,0.3c0.2,0.2,0.2,0.5,0.2,0.7
					C208.4,122.9,208.3,123.2,208.1,123.4z M207.7,123.1c0.1-0.1,0.1-0.3,0.1-0.5c0-0.2,0-0.3-0.1-0.5c-0.1-0.1-0.2-0.2-0.3-0.2
					c-0.2,0-0.3,0.1-0.3,0.2c-0.1,0.1-0.1,0.3-0.1,0.5c0,0.2,0,0.3,0.1,0.5c0.1,0.1,0.2,0.2,0.3,0.2
					C207.5,123.2,207.6,123.2,207.7,123.1z"/>
				<path class="st6" d="M210.3,121.7c0.1,0.1,0.2,0.3,0.2,0.5v1.3H210v-1.2c0-0.1,0-0.2,0-0.2c-0.1-0.1-0.1-0.2-0.3-0.2
					c-0.2,0-0.3,0.1-0.4,0.2c0,0.1-0.1,0.2-0.1,0.3v1.1h-0.5v-2h0.5v0.3c0.1-0.1,0.1-0.2,0.2-0.2c0.1-0.1,0.2-0.1,0.4-0.1
					C210,121.6,210.2,121.6,210.3,121.7z"/>
				<path class="st6" d="M211.8,122v-0.4h0.3v-0.5h0.5v0.5h0.3v0.4h-0.3v1c0,0.1,0,0.1,0,0.2c0,0,0.1,0,0.2,0c0,0,0,0,0,0s0,0,0.1,0
					v0.4l-0.2,0c-0.2,0-0.4,0-0.5-0.1c-0.1-0.1-0.1-0.1-0.1-0.3V122H211.8z"/>
				<path class="st6" d="M214.6,121.6c0.1,0,0.2,0.1,0.2,0.2c0.1,0.1,0.1,0.1,0.1,0.2c0,0.1,0,0.2,0,0.4v1.2h-0.5v-1.2
					c0-0.1,0-0.2-0.1-0.3c0-0.1-0.1-0.1-0.3-0.1c-0.1,0-0.2,0-0.3,0.1c-0.1,0.1-0.1,0.2-0.1,0.4v1.1h-0.5V121h0.5v0.9
					c0.1-0.1,0.2-0.2,0.3-0.2c0.1,0,0.2-0.1,0.3-0.1C214.4,121.6,214.5,121.6,214.6,121.6z"/>
				<path class="st6" d="M216.8,121.7c0.1,0.1,0.3,0.2,0.3,0.3c0.1,0.1,0.1,0.3,0.2,0.4c0,0.1,0,0.2,0,0.4h-1.4
					c0,0.2,0.1,0.3,0.2,0.4c0.1,0,0.2,0.1,0.3,0.1c0.1,0,0.2,0,0.3-0.1c0,0,0.1-0.1,0.1-0.1h0.5c0,0.1-0.1,0.2-0.2,0.4
					c-0.2,0.2-0.4,0.3-0.7,0.3c-0.3,0-0.5-0.1-0.7-0.2c-0.2-0.2-0.3-0.4-0.3-0.8c0-0.3,0.1-0.6,0.3-0.8c0.2-0.2,0.4-0.3,0.7-0.3
					C216.5,121.6,216.6,121.6,216.8,121.7z M216,122.1c-0.1,0.1-0.1,0.2-0.1,0.3h0.9c0-0.1-0.1-0.2-0.1-0.3s-0.2-0.1-0.3-0.1
					C216.2,122,216.1,122,216,122.1z"/>
				<path class="st6" d="M219.1,123.6h-0.5v-2.7h0.5V123.6z"/>
				<path class="st6" d="M220.1,121.4h-0.5v-0.5h0.5V121.4z M219.6,121.6h0.5v2h-0.5V121.6z"/>
				<path class="st6" d="M221.6,121.6c0.1,0.1,0.2,0.1,0.3,0.3v-0.3h0.5v1.9c0,0.3,0,0.4-0.1,0.6c-0.1,0.2-0.4,0.3-0.8,0.3
					c-0.3,0-0.5,0-0.6-0.1c-0.2-0.1-0.2-0.2-0.3-0.4h0.6c0,0.1,0,0.1,0.1,0.1c0.1,0,0.1,0.1,0.3,0.1c0.2,0,0.3-0.1,0.4-0.2
					c0-0.1,0.1-0.2,0.1-0.4v-0.1c0,0.1-0.1,0.1-0.2,0.2c-0.1,0.1-0.2,0.1-0.4,0.1c-0.3,0-0.5-0.1-0.6-0.3c-0.2-0.2-0.2-0.4-0.2-0.7
					c0-0.3,0.1-0.5,0.2-0.7c0.1-0.2,0.4-0.3,0.6-0.3C221.4,121.6,221.5,121.6,221.6,121.6z M221.8,123c0.1-0.1,0.1-0.2,0.1-0.4
					c0-0.2,0-0.3-0.1-0.4c-0.1-0.1-0.2-0.1-0.3-0.1c-0.2,0-0.3,0.1-0.4,0.3c0,0.1-0.1,0.2-0.1,0.3c0,0.1,0,0.2,0.1,0.3
					c0.1,0.2,0.2,0.2,0.4,0.2C221.6,123.2,221.7,123.1,221.8,123z"/>
				<path class="st6" d="M224.3,121.6c0.1,0,0.2,0.1,0.2,0.2c0.1,0.1,0.1,0.1,0.1,0.2c0,0.1,0,0.2,0,0.4v1.2h-0.5v-1.2
					c0-0.1,0-0.2-0.1-0.3c0-0.1-0.1-0.1-0.3-0.1c-0.1,0-0.2,0-0.3,0.1c-0.1,0.1-0.1,0.2-0.1,0.4v1.1h-0.5V121h0.5v0.9
					c0.1-0.1,0.2-0.2,0.3-0.2c0.1,0,0.2-0.1,0.3-0.1C224.1,121.6,224.2,121.6,224.3,121.6z"/>
				<path class="st6" d="M224.9,122v-0.4h0.3v-0.5h0.5v0.5h0.3v0.4h-0.3v1c0,0.1,0,0.1,0,0.2c0,0,0.1,0,0.2,0c0,0,0,0,0,0s0,0,0.1,0
					v0.4l-0.2,0c-0.2,0-0.4,0-0.5-0.1c-0.1-0.1-0.1-0.1-0.1-0.3V122H224.9z"/>
				<path class="st6" d="M226.4,123.1h0.5v0.5h-0.5V123.1z"/>
			</g>
		</g>
	</g>
	<g>
		<g id="XMLID_648_">
			<path class="st7" d="M500.9,291.1h-51.5v-25c0-5.9,4.8-10.7,10.7-10.7h30.1c5.9,0,10.7,4.8,10.7,10.7V291.1z"/>
		</g>
		<g id="XMLID_1_">
			<path class="st7" d="M497.1,263.4c0.6,3.3-8.7,7.4-9.5,7.8c-8.6,3.8-16.7,1.4-18.9,0.8c-0.5-0.1-1-0.3-1.6-0.5
				c-6.2-2.2-13.2-6.9-12.8-9.3C455.2,256.8,495.9,256.8,497.1,263.4z"/>
		</g>
		<g id="XMLID_645_">
			<g id="XMLID_647_">
				<path class="st7" d="M445.5,243.7c0,0,0-23.6,0-26.5c0-4.1,4.9,1.8,13.1,10.1L445.5,243.7z"/>
			</g>
			<g id="XMLID_646_">
				<path class="st7" d="M505.5,243.7c0,0,0-23.6,0-26.5c0-4.1-4.9,1.8-13.1,10.1L505.5,243.7z"/>
			</g>
		</g>
		<g id="XMLID_644_">
			<path class="st7" d="M505.5,243.7c0,11.8-8.5,21.9-18,25.8c-9.6,3.9-18.4,1.1-20.7,0.3c-9.8-3.4-21.3-13.2-21.3-26.1
				c0-13,13.4-23.5,30-23.5C492.1,220.2,505.5,230.7,505.5,243.7z"/>
		</g>
		<g id="XMLID_640_">
			<path class="st8" d="M482,247.3c0,0.7-2.7,4-5.9,4s-5.9-3.2-5.9-4c0-0.7,2.7-1.3,5.9-1.3S482,246.6,482,247.3z"/>
		</g>
		<g id="XMLID_639_">
			<path class="st9" d="M481.2,256.9c-2.4,0-4.5-1.6-5.3-3.8c-0.7,2.2-2.8,3.8-5.3,3.8c-1.7,0-3.3-0.8-4.3-2.1
				c-0.1-0.1-0.1-0.3,0-0.4c0.1-0.1,0.3-0.1,0.4,0c1,1.2,2.4,1.9,3.9,1.9c2.7,0,5-2.2,5-5c0-0.2,0.1-0.3,0.3-0.3
				c0.2,0,0.3,0.1,0.3,0.3c0,2.7,2.2,5,5,5c1.5,0,2.9-0.7,3.9-1.9c0.1-0.1,0.3-0.1,0.4,0c0.1,0.1,0.1,0.3,0,0.4
				C484.5,256.2,482.9,256.9,481.2,256.9z"/>
		</g>
		<g id="XMLID_630_">
			<g id="XMLID_635_">
				<g id="XMLID_638_">
					<path class="st9" d="M443.1,256.1c-0.3,0-0.5-0.2-0.6-0.5c0-0.3,0.2-0.6,0.5-0.6l23.5-3.7c0.3,0,0.6,0.2,0.6,0.5
						c0,0.3-0.2,0.6-0.5,0.6L443.1,256.1C443.1,256.1,443.1,256.1,443.1,256.1z"/>
				</g>
				<g id="XMLID_637_">
					<path class="st9" d="M466.6,250.2C466.6,250.2,466.5,250.2,466.6,250.2l-23.6-3.7c-0.3,0-0.5-0.3-0.5-0.6
						c0-0.3,0.3-0.5,0.6-0.5l23.5,3.7c0.3,0,0.5,0.3,0.5,0.6C467.1,250,466.9,250.2,466.6,250.2z"/>
				</g>
				<g id="XMLID_636_">
					<path class="st9" d="M466.6,251.3h-25c-0.3,0-0.6-0.3-0.6-0.6s0.3-0.6,0.6-0.6h25c0.3,0,0.6,0.3,0.6,0.6
						S466.9,251.3,466.6,251.3z"/>
				</g>
			</g>
			<g id="XMLID_631_">
				<g id="XMLID_634_">
					<path class="st9" d="M507.1,256.1C507,256.1,507,256.1,507.1,256.1l-23.6-3.7c-0.3,0-0.5-0.3-0.5-0.6c0-0.3,0.3-0.5,0.6-0.5
						l23.5,3.7c0.3,0,0.5,0.3,0.5,0.6C507.6,255.9,507.3,256.1,507.1,256.1z"/>
				</g>
				<g id="XMLID_633_">
					<path class="st9" d="M483.6,250.2c-0.3,0-0.5-0.2-0.6-0.5c0-0.3,0.2-0.6,0.5-0.6l23.5-3.7c0.3,0,0.6,0.2,0.6,0.5
						c0,0.3-0.2,0.6-0.5,0.6L483.6,250.2C483.6,250.2,483.6,250.2,483.6,250.2z"/>
				</g>
				<g id="XMLID_632_">
					<path class="st9" d="M508.6,251.3h-25c-0.3,0-0.6-0.3-0.6-0.6s0.3-0.6,0.6-0.6h25c0.3,0,0.6,0.3,0.6,0.6
						S508.9,251.3,508.6,251.3z"/>
				</g>
			</g>
		</g>
		<g>
			<defs>
				<path id="SVGID_2_" d="M505.5,243.7c0,11.8-8.5,21.9-18,25.8c-9.6,3.9-18.4,1.1-20.7,0.3c-9.8-3.4-21.3-13.2-21.3-26.1
					c0-13,13.4-23.5,30-23.5C492.1,220.2,505.5,230.7,505.5,243.7z"/>
			</defs>
			<clipPath id="SVGID_3_">
				<use xlink:href="#SVGID_2_"  style="overflow:visible;"/>
			</clipPath>
			<g id="XMLID_188_" class="st10">
				<g id="XMLID_404_">
					<path class="st7" d="M467.9,232.1L467.9,232.1c0.9,0,1.6-0.7,1.6-1.6v-10.8h-3.3v10.8C466.3,231.3,467,232.1,467.9,232.1z"/>
				</g>
				<g id="XMLID_618_">
					<path class="st7" d="M484.1,232.1L484.1,232.1c0.9,0,1.6-0.7,1.6-1.6v-10.8h-3.3v10.8C482.5,231.3,483.2,232.1,484.1,232.1z"/>
				</g>
				<g id="XMLID_620_">
					<path class="st7" d="M476.2,229.7c0.9,0,1.6-0.7,1.6-1.6v-8.5h-3.3v8.5C474.5,229,475.3,229.7,476.2,229.7z"/>
				</g>
			</g>
		</g>
	</g>
	<g>
		<path class="st11" d="M355.5,215.1c0,23.4-18,42.4-40.2,42.4l0,0c-22.2,0-40.2-19-40.2-42.4v-72c0-23.4,18-42.4,40.2-42.4l0,0
			c22.2,0,40.2,19,40.2,42.4V215.1z"/>
	</g>
	<g>
		<path d="M314.7,174.4"/>
	</g>
	<g>
		<polygon class="st12" points="307,176.5 321.7,176.2 322.9,194.7 306.1,194.7 		"/>
	</g>
	<g>
		<path class="st13" d="M346.2,150.1c0,19.4-20.1,35.2-31.5,35.2c-12.2,0-31.5-15.7-31.5-35.2c0-19.4,14.1-42.1,31.5-42.1
			S346.2,130.7,346.2,150.1z"/>
	</g>
	<g>
		<path class="st14" d="M317.5,169c-0.7,0-2.5,1.6-2.5,1.6l-0.6-0.7c-0.5-0.4-1.1-0.9-1.9-0.9c-1.6,0-4.7,2.1-4.7,2.1
			c2.5,3.1,5.2,3.9,7.2,3.9c2,0,5-0.4,7.2-3.9C322.1,171.2,319.1,169,317.5,169z"/>
	</g>
	<g>
		<path class="st11" d="M283.4,155c0,0,32-18.5,34.8-41.6c0-14.7-15.9-6.1-15.9-6.1l-23,18L283.4,155z"/>
	</g>
	<g>
		<path class="st11" d="M347.3,155c0,0-31.1-18.5-33.9-41.6c0-14.7,15.5-6.1,15.5-6.1l22.4,18L347.3,155z"/>
	</g>
	<g>
		<g>
			<g>
				<path class="st15" d="M423.5,259.6h-22.9c-0.2,0-0.4,0.2-0.4,0.4v21.1c0,2.7,2.2,4.9,4.9,4.9h13.8c2.7,0,4.9-2.2,4.9-4.9V260
					C423.9,259.8,423.7,259.6,423.5,259.6z"/>
			</g>
			<g>
				<path class="st15" d="M420.5,283.2c5-2.8,13.6-11.2,12.2-17.1c-0.4-1.6-1.3-2.8-2.8-3.4c-3.3-1.5-8.1,0.3-8.6,0.5l1.6,3.3
					c1.1-0.5,4-1.2,5.3-0.6c0.3,0.1,0.6,0.3,0.7,1c0.8,3.4-5.9,10.6-10.4,13.2L420.5,283.2z"/>
			</g>
		</g>
		<g>
			<path class="st16" d="M414.3,254.3c0.1,0.2,0.1-0.1,0.2-0.2l0.1-0.5c0.1-0.4,0.1-0.8,0.2-1.1c0.1-0.8,0.2-1.6,0.1-2.4
				c0-1.7-0.4-3.4-1.1-5c-0.7-1.6-1.7-3-2.7-4c-0.5-0.5-1.1-1-1.7-1.4l-1.4-0.9c-1.6-1.2-3.1-2.6-4.1-4.1c-0.5-0.7-0.9-1.5-1-2.1
				c-0.2-0.6-0.1-1-0.1-1.3c0-0.1,0.1-0.3,0.2-0.5c0.1-0.2,0.2-0.6,0.4-0.9c0.3-0.6,0.9-1.2,1.3-1.7c1.1-1,2.3-1.7,3.6-1.9
				c1.3-0.2,2.6,0,3.9,0.7c0.7,0.4,1.3,0.7,2,1.3c0.3,0.3,0.7,0.5,1,0.8c0.3,0.3,0.6,0.6,1.1,0.7l1.3,0.2c2.9,0.5,5.5-2.1,5.9-5.9
				c0.2-2.1-0.3-4.1-1.3-5.5c-0.4-0.7-1-1.1-1.6-1.5c-0.5-0.4-1.2-0.8-1.8-1.2c-1.2-0.8-2.5-1.3-3.9-1.8c-2.7-0.9-5.7-1-8.5-0.1
				c-2.8,0.9-5.5,2.8-7.5,5.5c-1,1.4-2,2.9-2.7,4.7c-0.4,0.9-0.7,1.8-0.9,2.9c-0.3,1.1-0.4,2.4-0.5,3.6c0,2.5,0.5,4.9,1.4,6.7
				c0.8,1.8,1.9,3.2,2.9,4.3c2.1,2.2,4.3,3.5,6.6,4.5l0.8,0.3l0.4,0.2l0.3,0.1c0.4,0.1,0.8,0.3,1.1,0.5c0.7,0.4,1.4,0.8,1.9,1.4
				c0.6,0.6,1.1,1.4,1.5,2.5c0.2,0.5,0.4,1.1,0.6,1.7c0.1,0.3,0.2,0.6,0.3,0.9l0.1,0.5c0.1,0.2,0.1,0.3,0.2,0.8
				c0.1,0.5,0.5,0.7,0.9,0.6C414.2,255.3,414.4,254.8,414.3,254.3z"/>
		</g>
	</g>
	<g>
		<path class="st17" d="M361.7,236.4l-91.5-1.5v-9.7c0-15.9,19.5-30.7,38.8-30.7h14.4c17.1,0,38.3,14.9,38.3,29.1V236.4z"/>
	</g>
	<g>
		<path class="st12" d="M304.6,194.3c0,0,0.8,5.9,10.1,5.9c9.3,0,10.1-5.9,10.1-5.9H304.6z"/>
	</g>
	<g>
		<path class="st15" d="M384.7,286.1H245.6c-1.2,0-2.1-0.9-2.1-2.1V278c0-1.2,0.9-2.1,2.1-2.1h139.1c1.2,0,2.1,0.9,2.1,2.1v5.9
			C386.8,285.1,385.8,286.1,384.7,286.1z"/>
	</g>
	<g>
		<path class="st18" d="M366.9,286.1H262.5c-5,0-9.1-4.1-9.1-9.1v-57.6c0-5,4.1-9.1,9.1-9.1h104.4c5,0,9.1,4.1,9.1,9.1V277
			C376,282,371.9,286.1,366.9,286.1z"/>
	</g>
	<g>
		<path class="st6" d="M313.2,256.1c-4.7,0-8.6-3.8-8.6-8.6s3.8-8.6,8.6-8.6s8.6,3.8,8.6,8.6S317.9,256.1,313.2,256.1z"/>
	</g>
	<g>
		<g>
			
				<ellipse transform="matrix(0.4004 -0.9163 0.9163 0.4004 -109.2533 227.0405)" class="st5" cx="118.9" cy="197" rx="5.4" ry="5.4"/>
		</g>
		<g>
			<path class="st19" d="M111.2,216.2c-8.7-5.4-12.4-16.4-8.1-26.1c4.2-9.6,14.8-14.5,24.7-11.7L111.2,216.2z"/>
		</g>
		<g>
			
				<rect x="96.2" y="180.9" transform="matrix(0.4004 -0.9163 0.9163 0.4004 -112.6817 206.7533)" class="st19" width="10.9" height="17.2"/>
		</g>
		<g>
			<polygon class="st19" points="85.5,282.9 78.3,239.7 96.5,190.6 97.5,191 79.5,239.8 86.6,282.7 			"/>
		</g>
		<g>
			<polygon class="st19" points="88.7,282.9 81.5,239.7 99.7,190.6 100.7,191 82.7,239.8 89.8,282.7 			"/>
		</g>
		<g>
			<path class="st20" d="M73.7,286v-4.1c0-1.6,1.3-2.9,2.9-2.9h20.5c1.6,0,2.9,1.3,2.9,2.9v4.1H73.7z"/>
		</g>
		<g>
			
				<ellipse transform="matrix(0.4004 -0.9163 0.9163 0.4004 -170.6378 218.7674)" class="st21" cx="81.8" cy="239.8" rx="5.4" ry="5.4"/>
		</g>
		<g>
			
				<ellipse transform="matrix(0.4005 -0.9163 0.9163 0.4005 -170.6353 218.7359)" class="st22" cx="81.8" cy="239.8" rx="4.2" ry="4.2"/>
		</g>
	</g>
	<g>
		<g>
			<path class="st23" d="M541,302.7c0,1.5-1.5,2.7-3.3,2.7h-464c-1.8,0-3.3-1.2-3.3-2.7v-14.3c0-1.5,1.5-2.7,3.3-2.7h464
				c1.8,0,3.3,1.2,3.3,2.7V302.7z"/>
		</g>
	</g>
	<g>
		<g id="XMLID_626_">
			<path class="st24" d="M449,271.7L449,271.7c-4.6,0-8.3,3.7-8.3,8.3v5.5c0,1.5,1.2,2.8,2.8,2.8c1.5,0,2.8-1.2,2.8-2.8
				c0,1.5,1.2,2.8,2.8,2.8s2.8-1.2,2.8-2.8c0,1.5,1.2,2.8,2.8,2.8s2.8-1.2,2.8-2.8v-5.5C457.2,275.4,453.5,271.7,449,271.7z"/>
		</g>
		<g id="XMLID_625_">
			<path class="st24" d="M502,271.7L502,271.7c-4.6,0-8.3,3.7-8.3,8.3v5.5c0,1.5,1.2,2.8,2.8,2.8c1.5,0,2.8-1.2,2.8-2.8
				c0,1.5,1.2,2.8,2.8,2.8s2.8-1.2,2.8-2.8c0,1.5,1.2,2.8,2.8,2.8s2.8-1.2,2.8-2.8v-5.5C510.3,275.4,506.6,271.7,502,271.7z"/>
		</g>
	</g>
	<g>
		<g>
			<g>
				<g>
					<g>
						<g>
							<path class="st25" d="M159.4,284.8h-45.3c0.8-0.4,1.4-1.5,1.4-2.8c0-1.6-0.9-2.9-2-2.9H160c-1.1,0-2,1.3-2,2.9
								C158,283.3,158.6,284.4,159.4,284.8z"/>
						</g>
					</g>
				</g>
				<g>
					<g>
						<g>
							<path class="st19" d="M160.9,279c0,0.5-0.4,0.9-0.9,0.9h-46.6c-0.5,0-0.9-0.4-0.9-0.9l0,0c0-0.5,0.4-0.9,0.9-0.9H160
								C160.5,278.1,160.9,278.5,160.9,279L160.9,279z"/>
						</g>
					</g>
				</g>
				<g>
					<g>
						<g>
							<path class="st19" d="M160.9,284.7c0,0.5-0.4,0.9-0.9,0.9h-46.6c-0.5,0-0.9-0.4-0.9-0.9l0,0c0-0.5,0.4-0.9,0.9-0.9H160
								C160.5,283.9,160.9,284.3,160.9,284.7L160.9,284.7z"/>
						</g>
					</g>
				</g>
			</g>
			<g>
				<g>
					<g>
						<g>
							<path class="st25" d="M151.9,271.5h-39.8c0.7-0.3,1.2-1.3,1.2-2.5c0-1.4-0.8-2.6-1.8-2.6h40.8c-1,0-1.8,1.2-1.8,2.6
								C150.7,270.2,151.2,271.2,151.9,271.5z"/>
						</g>
					</g>
				</g>
				<g>
					<g>
						<g>
							<path class="st26" d="M153.2,266.4c0,0.4-0.3,0.8-0.8,0.8h-40.8c-0.4,0-0.8-0.3-0.8-0.8l0,0c0-0.4,0.3-0.8,0.8-0.8h40.8
								C152.9,265.7,153.2,266,153.2,266.4L153.2,266.4z"/>
						</g>
					</g>
				</g>
				<g>
					<g>
						<g>
							<path class="st26" d="M153.2,271.5c0,0.4-0.3,0.8-0.8,0.8h-40.8c-0.4,0-0.8-0.3-0.8-0.8l0,0c0-0.4,0.3-0.8,0.8-0.8h40.8
								C152.9,270.7,153.2,271.1,153.2,271.5L153.2,271.5z"/>
						</g>
					</g>
				</g>
			</g>
			<g>
				<g>
					<g>
						<path class="st23" d="M159,278.2h-50.6c-0.7,0-1.3-0.6-1.3-1.3v-3.7c0-0.7,0.6-1.3,1.3-1.3H159c0.7,0,1.3,0.6,1.3,1.3v3.7
							C160.3,277.6,159.8,278.2,159,278.2z"/>
					</g>
				</g>
			</g>
		</g>
		<g>
			<g>
				<path class="st26" d="M147.6,240.6h-3l-3.3-4.2h-10.5l-3.3,4.2h-10.9c-1.3,0-2.3,1-2.3,2.3v20.4c0,1.3,1,2.3,2.3,2.3h31.1
					c1.3,0,2.3-1,2.3-2.3v-20.4C149.9,241.6,148.8,240.6,147.6,240.6z"/>
			</g>
			<g>
				<circle class="st6" cx="135.9" cy="253.1" r="8.3"/>
			</g>
			<g>
				<circle class="st26" cx="135.9" cy="253.1" r="7.2"/>
			</g>
			<g>
				<circle class="st23" cx="135.9" cy="253.1" r="5.4"/>
			</g>
			<g>
				<path class="st23" d="M117.3,242.2c-0.9,0-1.7-0.5-2.1-1.2c-0.7,0.4-1.1,1.1-1.1,2v20.4c0,1.3,1,2.3,2.3,2.3h6.5v-23.4H117.3z"
					/>
			</g>
			<g>
				<path class="st15" d="M122.6,241.2h-5.2c-0.2,0-0.4-0.2-0.4-0.4v-1c0-0.2,0.2-0.4,0.4-0.4h5.2c0.2,0,0.4,0.2,0.4,0.4v1
					C122.9,241,122.8,241.2,122.6,241.2z"/>
			</g>
			<g>
				<path class="st6" d="M140.3,239.9h-9c-0.3,0-0.6-0.3-0.6-0.6v-1.6c0-0.3,0.3-0.6,0.6-0.6h9c0.3,0,0.6,0.3,0.6,0.6v1.6
					C140.9,239.7,140.7,239.9,140.3,239.9z"/>
			</g>
		</g>
	</g>
	<g>
		<g>
			<g>
				<g>
					<g>
						<path class="st27" d="M197,244.1h-1.7c-0.3,0-0.6-0.3-0.6-0.6v-1.8c0-0.3,0.3-0.6,0.6-0.6h1.7c0.3,0,0.6,0.3,0.6,0.6v1.8
							C197.7,243.8,197.4,244.1,197,244.1z"/>
					</g>
				</g>
			</g>
			<g>
				<g>
					<g>
						<polygon class="st28" points="197.7,267.5 196.9,269 196.2,270.2 195.5,269 194.7,267.5 						"/>
					</g>
				</g>
			</g>
			<g>
				<g>
					<g>
						<rect x="194.7" y="242.8" class="st29" width="3" height="24.7"/>
					</g>
				</g>
			</g>
			<g>
				<g>
					<g>
						<polygon class="st30" points="196.9,269 196.2,270.2 195.5,269 						"/>
					</g>
				</g>
			</g>
			<g>
				<g>
					<g>
						<rect x="194.7" y="242.8" class="st31" width="0.8" height="24.7"/>
					</g>
				</g>
			</g>
			<g>
				<g>
					<g>
						<rect x="196.9" y="242.8" class="st32" width="0.8" height="24.7"/>
					</g>
				</g>
			</g>
			<g>
				<g>
					<g>
						<path class="st33" d="M197.9,242.8c0,0.2-0.2,0.4-0.4,0.4h-2.7c-0.2,0-0.4-0.2-0.4-0.4l0,0c0-0.2,0.2-0.4,0.4-0.4h2.7
							C197.7,242.4,197.9,242.6,197.9,242.8L197.9,242.8z"/>
					</g>
				</g>
			</g>
		</g>
		<g>
			<g>
				<g>
					<g>
						<g>
							<path class="st34" d="M176.6,254.1l5.1,4.4c0.8,0.7,1.9,0.8,2.8,0.3c0.2-0.1,0.5-0.3,0.7-0.5l0.7-0.8l5.7,3.7l3.2,2.9l6,5.4
								c0.3,0.3,0.8,0.4,1.2,0.2c0.1,0,0.2-0.1,0.2-0.2c0.4-0.4,0.4-1,0-1.4l-8.2-8.2l0,0l-3.6-3.6l-3.4-3.4l0,0c0,0,0,0,0,0
								c0,0-0.1-0.1-0.1-0.1l-5.1-4.4c-0.8-0.7-1.9-0.8-2.8-0.3c-0.3,0.1-0.5,0.3-0.7,0.5l-1.8,2.2c-0.4,0.5-0.6,1.1-0.6,1.8
								C175.8,253.1,176.1,253.6,176.6,254.1z M177.3,252.3c0-0.2,0.1-0.4,0.2-0.6l1.8-2.2c0.3-0.3,0.8-0.4,1.1-0.1l4.7,4l0.5,0.4
								c0.2,0.1,0.3,0.3,0.3,0.5c0,0.2,0,0.4-0.2,0.6l-0.4,0.5l-1.4,1.7c-0.1,0.1-0.1,0.1-0.2,0.2c-0.3,0.2-0.7,0.1-0.9-0.1
								l-5.1-4.4C177.5,252.7,177.4,252.5,177.3,252.3z"/>
						</g>
					</g>
				</g>
			</g>
			<g>
				<g>
					<g>
						<g>
							<path class="st35" d="M193.6,274.1c0.1,0,0.2-0.1,0.3-0.1c0.4-0.2,0.6-0.7,0.5-1.1l-1.5-7.9l-0.8-4.2l-0.3-6.7l1-0.2
								c0.3,0,0.6-0.1,0.8-0.3c0.9-0.5,1.4-1.5,1.2-2.5l-1.1-6.7c-0.1-0.6-0.5-1.2-1-1.6c-0.5-0.4-1.2-0.5-1.8-0.4L188,243
								c-0.3,0-0.6,0.1-0.8,0.3c-0.9,0.5-1.4,1.5-1.2,2.5l1.1,6.7c0,0.2,0.1,0.3,0.1,0.5l1.1,4.3l1.2,5l2.8,11.2
								C192.5,273.9,193,274.3,193.6,274.1z M187.6,245.5c-0.1-0.4,0.2-0.9,0.7-0.9l2.8-0.5c0.2,0,0.4,0,0.6,0.1
								c0.2,0.1,0.3,0.3,0.3,0.5l1.1,6.7c0.1,0.3-0.1,0.7-0.4,0.8c-0.1,0-0.2,0.1-0.3,0.1l-2.1,0.3l-0.7,0.1c-0.2,0-0.4,0-0.6-0.1
								c-0.2-0.1-0.3-0.3-0.3-0.5l-0.1-0.7L187.6,245.5z"/>
						</g>
					</g>
				</g>
			</g>
			<g>
				<g>
					<g>
						<g>
							
								<ellipse transform="matrix(0.8705 -0.4922 0.4922 0.8705 -102.4986 127.0386)" class="st36" cx="190.1" cy="258.3" rx="0.9" ry="0.9"/>
						</g>
					</g>
				</g>
			</g>
			<g>
				<g>
					<g>
						<g>
							
								<ellipse transform="matrix(0.8706 -0.4919 0.4919 0.8706 -102.456 126.9482)" class="st37" cx="190.1" cy="258.3" rx="0.5" ry="0.5"/>
						</g>
					</g>
				</g>
			</g>
			<g>
				<g>
					<g>
						<g>
							<path class="st6" d="M192.1,270.3c0-0.2,0.1-0.4,0.2-0.4l0,0c0.2,0,0.4,0.1,0.4,0.2l0.7,2.6c0,0.2-0.1,0.4-0.2,0.4l0,0
								c-0.2,0-0.4-0.1-0.4-0.2L192.1,270.3z"/>
						</g>
					</g>
				</g>
			</g>
		</g>
		<g>
			<g>
				<g>
					<g>
						<g>
							<g>
								<g>
									<g>
										<path class="st35" d="M204.1,259.2c0,0-0.1,0-0.1-0.1c-0.1,0-1.9-1.1-1.6-3.6c0.1-0.7,0.6-1.5,1-2.3c0.6-1,1.2-2.1,1.2-3
											c0-1.3-0.9-1.5-1-1.6c-0.3-0.1-0.4-0.3-0.4-0.6c0-0.3,0.3-0.4,0.6-0.4c0.6,0.1,1.7,0.8,1.7,2.5c0,1.1-0.7,2.4-1.3,3.5
											c-0.4,0.8-0.8,1.5-0.9,2c-0.3,1.9,1.1,2.6,1.1,2.6c0.2,0.1,0.3,0.4,0.2,0.7C204.5,259.2,204.3,259.3,204.1,259.2z"/>
									</g>
								</g>
							</g>
						</g>
					</g>
				</g>
			</g>
			<g>
				<g>
					<g>
						<g>
							<g>
								<g>
									<path d="M203.2,248.2c-0.1,0.5-0.5,0.8-1,0.7l0,0c-0.5-0.1-0.8-0.5-0.7-1l0.2-1.3c0.1-0.5,0.5-0.8,1-0.7l0,0
										c0.5,0.1,0.8,0.5,0.7,1L203.2,248.2z"/>
								</g>
							</g>
						</g>
					</g>
				</g>
			</g>
			<g>
				<g>
					<g>
						<g>
							<g>
								<g>
									<path class="st38" d="M196.9,280.9c0,0.2-0.2,0.3-0.4,0.3l0,0c-0.2,0-0.3-0.2-0.3-0.4l0.4-2.4c0-0.2,0.2-0.3,0.4-0.3l0,0
										c0.2,0,0.3,0.2,0.3,0.4L196.9,280.9z"/>
								</g>
							</g>
						</g>
					</g>
				</g>
			</g>
			<g>
				<g>
					<g>
						<g>
							<g>
								<g>
									<path class="st39" d="M198.6,277.5c-0.1,0.5-0.8,2.3-1.4,2.2l-0.9-0.2c-0.5-0.1-0.6-2-0.5-2.5l3.2-17.9
										c0.1-0.5,0.6-0.9,1.1-0.8l0.9,0.2c0.5,0.1,0.9,0.6,0.8,1.1L198.6,277.5z"/>
								</g>
							</g>
						</g>
					</g>
				</g>
			</g>
			<g>
				<g>
					<g>
						<g>
							<g>
								<g>
									<path class="st40" d="M200.6,266.4c-0.1,0.5-0.6,0.9-1.1,0.8l-0.9-0.2c-0.5-0.1-0.9-0.6-0.8-1.1l3.2-17.9
										c0.1-0.5,0.6-0.9,1.1-0.8l0.9,0.2c0.5,0.1,0.9,0.6,0.8,1.1L200.6,266.4z"/>
								</g>
							</g>
						</g>
					</g>
				</g>
			</g>
		</g>
		<g>
			<g>
				<g>
					<path class="st26" d="M202.9,261.9v22.3c0,1-0.8,1.8-1.8,1.8H186c-1,0-1.8-0.8-1.8-1.8v-22.3c0-1,0.8-1.8,1.8-1.8h15.1
						C202.1,260.1,202.9,260.9,202.9,261.9z"/>
				</g>
			</g>
		</g>
		<g>
			<g>
				<g>
					<path class="st15" d="M199.3,267.1V286H186c-1,0-1.8-0.8-1.8-1.8v-21.6h10.5C197.3,262.6,199.3,264.6,199.3,267.1z"/>
				</g>
			</g>
		</g>
	</g>
	<g>
		<g>
			<g>
				<g>
					<path class="st23" d="M173.7,265.3l-2.2,18.1c0,1.2-1,2.2-2.2,2.2h-10.1c-1.2,0-2.2-1-2.2-2.2l-2.2-17.9l0-0.2
						c0-1.2,1-2.2,2.2-2.2h14.5C172.7,263.2,173.7,264.1,173.7,265.3z"/>
				</g>
			</g>
		</g>
		<g>
			<g>
				<path class="st18" d="M167.2,269.1v16.5h-8c-1.2,0-2.2-1-2.2-2.2l-2.2-17.9h8.8C165.7,265.5,167.2,267.1,167.2,269.1z"/>
			</g>
		</g>
		<g>
			<g>
				<g>
					<g>
						<g>
							<g>
								<path class="st17" d="M171.2,255c1.2,3,1.5,5.7,0.7,6c-0.9,0.4-2.6-1.7-3.8-4.7c-1.2-3-1-4.4-0.1-4.8
									C168.8,251.2,170,252.1,171.2,255z"/>
							</g>
						</g>
					</g>
				</g>
				<g>
					<g>
						<g>
							<g>
								<path class="st17" d="M172.5,267.1c-1.2-3-1.5-5.7-0.7-6c0.9-0.4,2.6,1.7,3.8,4.7c1.2,3,1,4.4,0.1,4.8
									C175,270.9,173.8,270.1,172.5,267.1z"/>
							</g>
						</g>
					</g>
				</g>
				<g>
					<g>
						<g>
							<g>
								<path class="st17" d="M165.8,261.7c3-1.2,5.7-1.5,6-0.7c0.4,0.9-1.7,2.6-4.7,3.8c-3,1.2-4.4,1-4.8,0.1
									C162,264.2,162.9,263,165.8,261.7z"/>
							</g>
						</g>
					</g>
				</g>
				<g>
					<g>
						<g>
							<g>
								<path class="st17" d="M177.9,260.4c-3,1.2-5.7,1.5-6,0.7c-0.4-0.9,1.7-2.6,4.7-3.8c3-1.2,4.4-1,4.8-0.1
									C181.7,258,180.9,259.2,177.9,260.4z"/>
							</g>
						</g>
					</g>
				</g>
				<g>
					<g>
						<g>
							<g>
								<path class="st17" d="M175.7,256.3c-1.2,3-2.9,5.1-3.8,4.7c-0.9-0.4-0.6-3.1,0.6-6c1.2-3,2.4-3.8,3.3-3.5
									S176.9,253.3,175.7,256.3z"/>
							</g>
						</g>
					</g>
				</g>
				<g>
					<g>
						<g>
							<g>
								<path class="st17" d="M168.1,265.8c1.2-3,2.9-5.1,3.8-4.7c0.9,0.4,0.6,3.1-0.6,6c-1.2,3-2.4,3.8-3.3,3.5
									C167.1,270.2,166.9,268.8,168.1,265.8z"/>
							</g>
						</g>
					</g>
				</g>
				<g>
					<g>
						<g>
							<g>
								<path class="st17" d="M167.1,257.3c3,1.2,5.1,2.9,4.7,3.8c-0.4,0.9-3.1,0.6-6-0.6c-3-1.2-3.8-2.4-3.5-3.3
									C162.7,256.3,164.2,256,167.1,257.3z"/>
							</g>
						</g>
					</g>
				</g>
				<g>
					<g>
						<g>
							<g>
								<path class="st17" d="M176.6,264.9c-3-1.2-5.1-2.9-4.7-3.8c0.4-0.9,3.1-0.6,6,0.6c3,1.2,3.8,2.4,3.5,3.3
									C181,265.8,179.6,266.1,176.6,264.9z"/>
							</g>
						</g>
					</g>
				</g>
			</g>
			<g>
				<g>
					<g>
						<g>
							<g>
								<path class="st17" d="M173.6,255.2c0,3.2-0.8,5.8-1.7,5.8c-0.9,0-1.7-2.6-1.7-5.8s0.8-4.5,1.7-4.5
									C172.8,250.8,173.6,252,173.6,255.2z"/>
							</g>
						</g>
					</g>
				</g>
				<g>
					<g>
						<g>
							<g>
								<path class="st17" d="M170.2,266.9c0-3.2,0.8-5.8,1.7-5.8c0.9,0,1.7,2.6,1.7,5.8c0,3.2-0.8,4.4-1.7,4.4
									C170.9,271.3,170.2,270.1,170.2,266.9z"/>
							</g>
						</g>
					</g>
				</g>
				<g>
					<g>
						<g>
							<g>
								<path class="st17" d="M166.1,259.4c3.2,0,5.8,0.8,5.8,1.7c0,0.9-2.6,1.7-5.8,1.7c-3.2,0-4.5-0.8-4.5-1.7
									C161.6,260.1,162.8,259.4,166.1,259.4z"/>
							</g>
						</g>
					</g>
				</g>
				<g>
					<g>
						<g>
							<g>
								<path class="st17" d="M177.7,262.8c-3.2,0-5.8-0.8-5.8-1.7c0-0.9,2.6-1.7,5.8-1.7c3.2,0,4.5,0.8,4.5,1.7
									C182.2,262,180.9,262.8,177.7,262.8z"/>
							</g>
						</g>
					</g>
				</g>
				<g>
					<g>
						<g>
							<g>
								<path class="st17" d="M177.2,258.2c-2.3,2.3-4.7,3.6-5.3,2.9c-0.7-0.7,0.6-3.1,2.9-5.3c2.3-2.3,3.7-2.6,4.4-1.9
									C179.8,254.5,179.5,255.9,177.2,258.2z"/>
							</g>
						</g>
					</g>
				</g>
				<g>
					<g>
						<g>
							<g>
								<path class="st17" d="M166.5,264c2.3-2.3,4.7-3.6,5.3-2.9c0.7,0.7-0.6,3.1-2.9,5.3c-2.3,2.3-3.7,2.6-4.4,1.9
									C163.9,267.7,164.3,266.3,166.5,264z"/>
							</g>
						</g>
					</g>
				</g>
				<g>
					<g>
						<g>
							<g>
								<path class="st17" d="M169,255.7c2.3,2.3,3.6,4.7,2.9,5.3c-0.7,0.7-3.1-0.6-5.3-2.9c-2.3-2.3-2.6-3.7-1.9-4.4
									C165.3,253.1,166.7,253.5,169,255.7z"/>
							</g>
						</g>
					</g>
				</g>
				<g>
					<g>
						<g>
							<g>
								<path class="st17" d="M174.8,266.4c-2.3-2.3-3.6-4.7-2.9-5.3c0.7-0.7,3.1,0.6,5.3,2.9c2.3,2.3,2.6,3.7,1.9,4.4
									C178.5,269,177.1,268.7,174.8,266.4z"/>
							</g>
						</g>
					</g>
				</g>
			</g>
			<g>
				<g>
					<g>
						<g>
							<circle class="st41" cx="171.9" cy="261.1" r="2.9"/>
						</g>
					</g>
				</g>
			</g>
		</g>
		<g>
			<g>
				<g>
					<g>
						<g>
							<g>
								<path class="st17" d="M159.3,244.8c1.2,3,1.5,5.7,0.7,6c-0.9,0.4-2.6-1.7-3.8-4.7c-1.2-3-1-4.4-0.1-4.8
									C156.8,240.9,158,241.8,159.3,244.8z"/>
							</g>
						</g>
					</g>
				</g>
				<g>
					<g>
						<g>
							<g>
								<path class="st17" d="M160.6,256.8c-1.2-3-1.5-5.7-0.7-6c0.9-0.4,2.6,1.7,3.8,4.7c1.2,3,1,4.4,0.1,4.8
									C163,260.6,161.8,259.8,160.6,256.8z"/>
							</g>
						</g>
					</g>
				</g>
				<g>
					<g>
						<g>
							<g>
								<path class="st17" d="M153.9,251.5c3-1.2,5.7-1.5,6-0.7c0.4,0.9-1.7,2.6-4.7,3.8c-3,1.2-4.4,1-4.8,0.1
									C150.1,253.9,150.9,252.7,153.9,251.5z"/>
							</g>
						</g>
					</g>
				</g>
				<g>
					<g>
						<g>
							<g>
								<path class="st17" d="M166,250.1c-3,1.2-5.7,1.5-6,0.7c-0.4-0.9,1.7-2.6,4.7-3.8c3-1.2,4.4-1,4.8-0.1
									C169.8,247.7,168.9,248.9,166,250.1z"/>
							</g>
						</g>
					</g>
				</g>
				<g>
					<g>
						<g>
							<g>
								<path class="st17" d="M163.7,246c-1.2,3-2.9,5.1-3.8,4.7c-0.9-0.4-0.6-3.1,0.6-6c1.2-3,2.4-3.8,3.3-3.5
									C164.7,241.6,164.9,243.1,163.7,246z"/>
							</g>
						</g>
					</g>
				</g>
				<g>
					<g>
						<g>
							<g>
								<path class="st17" d="M156.1,255.5c1.2-3,2.9-5.1,3.8-4.7c0.9,0.4,0.6,3.1-0.6,6c-1.2,3-2.4,3.8-3.3,3.5
									C155.1,259.9,154.9,258.5,156.1,255.5z"/>
							</g>
						</g>
					</g>
				</g>
				<g>
					<g>
						<g>
							<g>
								<path class="st17" d="M155.2,247c3,1.2,5.1,2.9,4.7,3.8c-0.4,0.9-3.1,0.6-6-0.6c-3-1.2-3.8-2.4-3.5-3.3
									C150.8,246,152.2,245.8,155.2,247z"/>
							</g>
						</g>
					</g>
				</g>
				<g>
					<g>
						<g>
							<g>
								<path class="st17" d="M164.7,254.6c-3-1.2-5.1-2.9-4.7-3.8c0.4-0.9,3.1-0.6,6,0.6c3,1.2,3.8,2.4,3.5,3.3
									C169.1,255.6,167.6,255.8,164.7,254.6z"/>
							</g>
						</g>
					</g>
				</g>
			</g>
			<g>
				<g>
					<g>
						<g>
							<g>
								<path class="st17" d="M161.6,245c0,3.2-0.8,5.8-1.7,5.8c-0.9,0-1.7-2.6-1.7-5.8c0-3.2,0.8-4.4,1.7-4.4
									C160.9,240.5,161.6,241.7,161.6,245z"/>
							</g>
						</g>
					</g>
				</g>
				<g>
					<g>
						<g>
							<g>
								<path class="st17" d="M158.2,256.6c0-3.2,0.8-5.8,1.7-5.8c0.9,0,1.7,2.6,1.7,5.8c0,3.2-0.8,4.5-1.7,4.5
									C159,261.1,158.2,259.8,158.2,256.6z"/>
							</g>
						</g>
					</g>
				</g>
				<g>
					<g>
						<g>
							<g>
								<path class="st17" d="M154.1,249.1c3.2,0,5.8,0.8,5.8,1.7c0,0.9-2.6,1.7-5.8,1.7c-3.2,0-4.4-0.8-4.4-1.7
									C149.6,249.8,150.9,249.1,154.1,249.1z"/>
							</g>
						</g>
					</g>
				</g>
				<g>
					<g>
						<g>
							<g>
								<path class="st17" d="M165.8,252.5c-3.2,0-5.8-0.8-5.8-1.7c0-0.9,2.6-1.7,5.8-1.7c3.2,0,4.5,0.8,4.5,1.7
									C170.2,251.7,169,252.5,165.8,252.5z"/>
							</g>
						</g>
					</g>
				</g>
				<g>
					<g>
						<g>
							<g>
								<path class="st17" d="M165.3,247.9c-2.3,2.3-4.7,3.6-5.3,2.9c-0.7-0.7,0.6-3.1,2.9-5.3c2.3-2.3,3.7-2.6,4.4-1.9
									C167.9,244.2,167.5,245.6,165.3,247.9z"/>
							</g>
						</g>
					</g>
				</g>
				<g>
					<g>
						<g>
							<g>
								<path class="st17" d="M154.6,253.7c2.3-2.3,4.7-3.6,5.3-2.9c0.7,0.7-0.6,3.1-2.9,5.3c-2.3,2.3-3.7,2.6-4.4,1.9
									C152,257.4,152.3,256,154.6,253.7z"/>
							</g>
						</g>
					</g>
				</g>
				<g>
					<g>
						<g>
							<g>
								<path class="st17" d="M157,245.5c2.3,2.3,3.6,4.7,2.9,5.3c-0.7,0.7-3.1-0.6-5.3-2.9c-2.3-2.3-2.6-3.7-1.9-4.4
									C153.3,242.9,154.7,243.2,157,245.5z"/>
							</g>
						</g>
					</g>
				</g>
				<g>
					<g>
						<g>
							<g>
								<path class="st17" d="M162.8,256.1c-2.3-2.3-3.6-4.7-2.9-5.3c0.7-0.7,3.1,0.6,5.3,2.9c2.3,2.3,2.6,3.7,1.9,4.4
									C166.5,258.7,165.1,258.4,162.8,256.1z"/>
							</g>
						</g>
					</g>
				</g>
			</g>
			<g>
				<g>
					<g>
						<g>
							<circle class="st41" cx="159.9" cy="250.8" r="2.9"/>
						</g>
					</g>
				</g>
			</g>
		</g>
		<g>
			<g>
				<g>
					<g>
						<g>
							<g>
								<path class="st17" d="M157.4,259.3c0.8,1.9,1,3.6,0.4,3.9c-0.6,0.2-1.7-1.1-2.5-3c-0.8-1.9-0.6-2.8-0.1-3.1
									C155.8,256.8,156.6,257.4,157.4,259.3z"/>
							</g>
						</g>
					</g>
				</g>
				<g>
					<g>
						<g>
							<g>
								<path class="st17" d="M158.3,267c-0.8-1.9-1-3.6-0.4-3.9c0.6-0.2,1.7,1.1,2.5,3c0.8,1.9,0.6,2.8,0.1,3.1
									C159.8,269.5,159.1,268.9,158.3,267z"/>
							</g>
						</g>
					</g>
				</g>
				<g>
					<g>
						<g>
							<g>
								<path class="st17" d="M154,263.6c1.9-0.8,3.6-1,3.9-0.4c0.2,0.6-1.1,1.7-3,2.5c-1.9,0.8-2.8,0.6-3.1,0.1
									C151.5,265.2,152,264.4,154,263.6z"/>
							</g>
						</g>
					</g>
				</g>
				<g>
					<g>
						<g>
							<g>
								<path class="st17" d="M161.7,262.7c-1.9,0.8-3.6,1-3.9,0.4c-0.2-0.6,1.1-1.7,3-2.5c1.9-0.8,2.8-0.6,3.1-0.1
									C164.1,261.2,163.6,261.9,161.7,262.7z"/>
							</g>
						</g>
					</g>
				</g>
				<g>
					<g>
						<g>
							<g>
								<path class="st17" d="M160.3,260.1c-0.8,1.9-1.9,3.3-2.4,3c-0.6-0.2-0.4-2,0.4-3.9c0.8-1.9,1.5-2.5,2.1-2.2
									C160.9,257.3,161,258.2,160.3,260.1z"/>
							</g>
						</g>
					</g>
				</g>
				<g>
					<g>
						<g>
							<g>
								<path class="st17" d="M155.4,266.2c0.8-1.9,1.9-3.3,2.4-3c0.6,0.2,0.4,2-0.4,3.9c-0.8,1.9-1.5,2.5-2.1,2.2
									C154.8,269,154.6,268.1,155.4,266.2z"/>
							</g>
						</g>
					</g>
				</g>
				<g>
					<g>
						<g>
							<g>
								<path class="st17" d="M154.8,260.7c1.9,0.8,3.3,1.9,3,2.4c-0.2,0.6-2,0.4-3.9-0.4c-1.9-0.8-2.5-1.5-2.2-2.1
									C152,260.1,152.9,259.9,154.8,260.7z"/>
							</g>
						</g>
					</g>
				</g>
				<g>
					<g>
						<g>
							<g>
								<path class="st17" d="M160.9,265.6c-1.9-0.8-3.3-1.9-3-2.4c0.2-0.6,2-0.4,3.9,0.4c1.9,0.8,2.5,1.5,2.2,2.1
									C163.7,266.2,162.8,266.4,160.9,265.6z"/>
							</g>
						</g>
					</g>
				</g>
			</g>
			<g>
				<g>
					<g>
						<g>
							<g>
								<path class="st17" d="M158.9,259.4c0,2.1-0.5,3.7-1.1,3.7s-1.1-1.7-1.1-3.7c0-2.1,0.5-2.9,1.1-2.9S158.9,257.4,158.9,259.4z
									"/>
							</g>
						</g>
					</g>
				</g>
				<g>
					<g>
						<g>
							<g>
								<path class="st17" d="M156.7,266.9c0-2.1,0.5-3.7,1.1-3.7s1.1,1.7,1.1,3.7c0,2.1-0.5,2.9-1.1,2.9S156.7,269,156.7,266.9z"/>
							</g>
						</g>
					</g>
				</g>
				<g>
					<g>
						<g>
							<g>
								<path class="st17" d="M154.1,262.1c2.1,0,3.7,0.5,3.7,1.1c0,0.6-1.7,1.1-3.7,1.1c-2.1,0-2.9-0.5-2.9-1.1
									C151.2,262.6,152,262.1,154.1,262.1z"/>
							</g>
						</g>
					</g>
				</g>
				<g>
					<g>
						<g>
							<g>
								<path class="st17" d="M161.6,264.3c-2.1,0-3.7-0.5-3.7-1.1c0-0.6,1.7-1.1,3.7-1.1c2.1,0,2.9,0.5,2.9,1.1
									C164.4,263.8,163.6,264.3,161.6,264.3z"/>
							</g>
						</g>
					</g>
				</g>
				<g>
					<g>
						<g>
							<g>
								<path class="st17" d="M161.3,261.3c-1.5,1.5-3,2.3-3.4,1.9c-0.4-0.4,0.4-2,1.9-3.4c1.5-1.5,2.4-1.7,2.8-1.2
									C162.9,258.9,162.7,259.8,161.3,261.3z"/>
							</g>
						</g>
					</g>
				</g>
				<g>
					<g>
						<g>
							<g>
								<path class="st17" d="M154.4,265c1.5-1.5,3-2.3,3.4-1.9c0.4,0.4-0.4,2-1.9,3.4c-1.5,1.5-2.4,1.7-2.8,1.2
									C152.7,267.4,152.9,266.5,154.4,265z"/>
							</g>
						</g>
					</g>
				</g>
				<g>
					<g>
						<g>
							<g>
								<path class="st17" d="M156,259.7c1.5,1.5,2.3,3,1.9,3.4c-0.4,0.4-2-0.4-3.4-1.9c-1.5-1.5-1.7-2.4-1.2-2.8
									C153.6,258.1,154.5,258.3,156,259.7z"/>
							</g>
						</g>
					</g>
				</g>
				<g>
					<g>
						<g>
							<g>
								<path class="st17" d="M159.7,266.6c-1.5-1.5-2.3-3-1.9-3.4c0.4-0.4,2,0.4,3.4,1.9c1.5,1.5,1.7,2.4,1.2,2.8
									C162.1,268.3,161.2,268.1,159.7,266.6z"/>
							</g>
						</g>
					</g>
				</g>
			</g>
			<g>
				<g>
					<g>
						<g>
							<circle class="st41" cx="157.8" cy="263.2" r="1.9"/>
						</g>
					</g>
				</g>
			</g>
		</g>
	</g>
</g>
</svg>
